<?xml version="1.0" encoding="utf-8"?>
<!-- Generator: Adobe Illustrator 25.0.0, SVG Export Plug-In . SVG Version: 6.00 Build 0)  -->
<svg version="1.1" id="Layer_1" xmlns="http://www.w3.org/2000/svg" xmlns:xlink="http://www.w3.org/1999/xlink" x="0px" y="0px"
	 width="461.4px" height="371.3px" viewBox="0 0 461.4 371.3" style="enable-background:new 0 0 461.4 371.3;" xml:space="preserve"
	>
<style type="text/css">
	.st0{fill:#EAE8F7;}
	.st1{fill:none;}
	.st2{fill:#04AF65;}
	.st3{opacity:0.23;fill:#595C68;enable-background:new    ;}
	.st4{opacity:0.23;fill:none;stroke:#04AF65;stroke-width:1.0147;stroke-miterlimit:10;enable-background:new    ;}
	.st5{fill:none;stroke:#04AF65;stroke-width:1.553;stroke-miterlimit:10;}
	.st6{fill:#04AF65;stroke:#FFFFFF;stroke-width:1.0147;stroke-miterlimit:10;}
	.st7{fill:#04AF65;stroke:#FFFFFF;stroke-width:1.0084;stroke-miterlimit:10;}
	.st8{fill:#1A2E35;}
	.st9{fill:#FCCEB6;}
	.st10{fill:#FFFFFF;}
	.st11{fill:#595C68;}
	.st12{clip-path:url(#SVGID_3_);}
	.st13{fill:#263238;}
	.st14{fill:#F9B28F;}
	.st15{fill:#EB996E;}
	.st16{fill:#FFFFFF;}
	.st17{fill:#1A2E35;}
	.st18{opacity:0.2;}
	.st19{fill:#8E72FF;}
	.st20{fill:#375A64;}
	.st21{opacity:0.33;fill:#BF654E;enable-background:new    ;}
	.st22{fill:none;stroke:#FFA7AD;stroke-miterlimit:10;}
	.st23{fill:#FAB799;}
	.st24{fill:#F9AC8E;}
	.st25{fill:#F38772;}
	.st26{fill:#F7967D;}
	.st27{fill:#F66B5F;}
	.st28{opacity:0.3;}
	.st29{fill:#2A2A2D;}
	.st30{fill:#E0E0E0;}
	.st31{fill:#FFBE9D;}
	
		.st32{opacity:0.23;fill:none;stroke:#595C68;stroke-width:8;stroke-linecap:round;stroke-miterlimit:10;enable-background:new    ;}
	.st33{fill:none;stroke:#04AF65;stroke-width:8;stroke-linecap:round;stroke-miterlimit:10;}
	
		.st34{opacity:0.23;fill:none;stroke:#595C68;stroke-width:9;stroke-linecap:round;stroke-miterlimit:10;enable-background:new    ;}
	.st35{fill:none;stroke:#04AF65;stroke-width:9;stroke-linecap:round;stroke-miterlimit:10;}
	.st36{opacity:0.5;fill:#04AF65;enable-background:new    ;}
	.st37{opacity:0.8;fill:#04AF65;enable-background:new    ;}
	.st38{fill:none;stroke:#04AF65;stroke-width:1.2746;stroke-miterlimit:10;}
	.st39{opacity:0.8;}
	.st40{opacity:0.8;fill:none;stroke:#2A2A2D;stroke-miterlimit:10;enable-background:new    ;}
	.st41{opacity:0.5;fill:#595C68;enable-background:new    ;}
	.st42{font-family:'Roboto-Regular';}
	.st43{font-size:8px;}
	.st44{fill:#EBB96E;}


	#skin-tissue {
		animation: pulse 3s infinite;
		transform-origin: 42%;
	}

	@keyframes pulse {
	0% { transform: scale(0.9); }
	30% { transform: scale(1); }
	70% { transform: scale(1); }
	100% { transform: scale(0.9); }
	}

	#chart-bar-1 {
		animation: grow 3s infinite;
		transform-origin: 10%;
	}

	#chart-bar-2 {
		animation: grow 4s infinite;
		transform-origin: 10%;
		animation-delay: 1s;
	}

	#chart-bar-3 {
		animation: grow 3s infinite;
		transform-origin: 10%;
		animation-delay: 2s;
	}

	@keyframes grow {
	from { transform: scaleY(0.7) translateY(-34px); }
	30% { transform: scaleY(1); }
	70% { transform: scaleY(1); }
	to { transform: scaleY(0.7) translateY(-34px); }
	}

	#doctor-head-nodding {
		animation: agree 8s infinite;
		transform-origin: 66%;
		animation-delay: 2s;
	}

	@keyframes agree {
		0% { transform: rotateZ(0); }
		20% { transform: rotateZ(-4deg) translate(-2px, 6px);}
		50% { transform: rotateZ(-6deg) translate(-3px, 8px);}
		100% { transform: rotateZ(0); }
	}

	#ponnytail {
		animation: ponnytail 8s infinite;
		transform-origin: 66%;
		animation-delay: 2s;
	}

	@keyframes ponnytail {
		0% { transform: translate(0px, 0px); }
		20% { transform: translate(-1px, 4px);}
		50% { transform: translate(-1px, 5px);}
		100% { transform: translate(0px, 0px); }
	}

	#doctor-hand {
		animation: type 2s infinite;
		transform-origin: 66%;
	}

	@keyframes type {
		0% { transform: rotateZ(0); }
		30% { transform: rotateZ(-4deg) translate(-8px, 4px);}
		70% { transform: rotateZ(-6deg) translate(-10px, 6px);}
		100% { transform: rotateZ(0); }
	}


</style>
<g>
	<g>
		<g>
			<path class="st0" d="M108.9,284.6L7.5,284.2c-4.1,0-7.5-3.4-7.5-7.5V22.4h108.9V284.6z"/>
		</g>
	</g>
	<g>
		<g>
			<g>
				<g>
					<g>
						<g>
							<g>
								<g>
									<polygon class="st1" points="40,97.3 43.5,96.6 60.3,96.8 68.9,98.7 72.2,146.6 34.3,148.3 									"/>
								</g>
							</g>
							<g>
								<g>
									<path class="st1" d="M64.6,144.4l0.8-21.8l-1.3-25.2c5.3,1.4,12.6,2.9,16.6,7.5c2.6,3,5.2,6.8,6.1,13
										c1.1,7.2,2.6,21.1,3.5,28.8"/>
								</g>
							</g>
							<g>
								<g>
									<path class="st1" d="M69.9,140.8l-26.2,4.3l-0.9-16.2l-1.4-32c-7.6,0.3-16.3,6.6-18.8,11.5c-1.8,3.4-3.3,7.3-3.8,11.2
										c-0.9,7.3-2.4,19.6-3.4,27.4c-0.6,4.8,1,9.5,4.4,13l0,0c3.8,3.9,9.8,5.3,15.1,4.2L74.8,153L69.9,140.8z"/>
								</g>
							</g>
						</g>
						<g>
							<g>
								<g>
									<g>
										<path class="st1" d="M67.2,140.5L67.2,140.5c0-0.2,0.1-0.2,0.1-0.4c0.1-0.2,0.2-0.6,0.3-1c0.3-0.9,0.7-2.2,1.2-3.8
											c1-3.2,2.5-7.7,4.1-12.8l0.1,0.1c-1.4-0.6-2.8-1.2-4.2-1.8l-0.2-0.1l0.1-0.1c0.3-0.2,0.6-0.4,1-0.6
											c1.1-0.7,2.2-1.4,3.2-2.1v0.1c-1.6-5.7-3.1-10.6-4.1-14.2c-0.5-1.8-0.9-3.2-1.2-4.2c-0.1-0.5-0.2-0.9-0.3-1.1
											c0-0.1-0.1-0.2-0.1-0.3s0-0.1,0-0.1s0,0,0,0.1s0.1,0.2,0.1,0.3c0.1,0.3,0.2,0.6,0.3,1.1c0.3,1,0.7,2.4,1.2,4.2
											c1,3.6,2.5,8.6,4.2,14.2v0.1h-0.1c-1,0.7-2.1,1.4-3.2,2.1c-0.3,0.2-0.7,0.4-1,0.6v-0.2c1.5,0.6,2.9,1.2,4.2,1.8H73v0.1
											c-1.7,5.1-3.1,9.6-4.2,12.8c-0.5,1.6-0.9,2.9-1.2,3.7c-0.1,0.4-0.3,0.8-0.3,1C67.3,140.3,67.2,140.4,67.2,140.5
											L67.2,140.5z"/>
									</g>
								</g>
							</g>
							<g>
								<g>
									<g>
										<path class="st1" d="M73,118.2c-0.2,0.7-0.8,1.7-1.3,2s-0.2,0.7,0.2,1.1c0.5,0.5,1.3,0.6,1.7,1.2c0.3,0.5,0.2,1.2,0,1.8
											c-1.8,5.8-4,11.4-6.6,16.9l6.1-18.5l-4.2-1.8L73,118.2z"/>
									</g>
								</g>
							</g>
						</g>
						<g>
							<g>
								<g>
									<path class="st1" d="M41.6,141C41.6,141,41.6,140.9,41.6,141c-0.1-0.1-0.1-0.2-0.1-0.3c-0.1-0.2-0.2-0.5-0.4-0.9
										c-0.3-0.8-0.8-1.9-1.4-3.3c-1.2-2.8-2.9-6.8-4.9-11.4V125h0.1c1.1-0.8,2.2-1.6,3.4-2.4v0.1c-0.7-0.6-1.5-1.2-2.2-1.8
										c-0.3-0.3-0.7-0.5-1-0.8l-0.5-0.4l-0.1-0.1c0,0,0,0-0.1-0.1c0,0,0-0.1-0.1-0.1c0-0.1,0-0.2,0-0.3c0-0.8,0.1-1.6,0.2-2.4
										c0.2-1.6,0.5-3.1,0.7-4.5c0.5-2.9,1-5.4,1.5-7.6c0.4-2.2,0.8-3.9,1.1-5.1c0.1-0.6,0.2-1.1,0.3-1.4c0-0.1,0.1-0.3,0.1-0.4
										s0-0.1,0-0.1s0,0,0,0.1s0,0.2-0.1,0.4c-0.1,0.3-0.2,0.8-0.3,1.4c-0.2,1.2-0.6,3-1,5.1c-0.4,2.2-0.9,4.7-1.4,7.6
										c-0.3,1.4-0.5,2.9-0.7,4.5c-0.1,0.8-0.2,1.6-0.2,2.4c0,0.1,0,0.2,0,0.3c0,0,0.1,0.1,0.2,0.2l0.5,0.4c0.3,0.3,0.7,0.5,1,0.8
										c0.8,0.6,1.5,1.2,2.2,1.8l0.1,0.1l-0.1,0.1c-1.2,0.8-2.3,1.6-3.4,2.4v-0.1c1.9,4.6,3.6,8.6,4.8,11.5
										c0.6,1.4,1.1,2.5,1.4,3.3c0.2,0.4,0.3,0.7,0.4,0.9C41.5,140.7,41.5,140.8,41.6,141C41.6,140.9,41.6,141,41.6,141z"/>
								</g>
							</g>
						</g>
					</g>
					<g>
						<g>
							<path class="st1" d="M85.7,157.3"/>
						</g>
					</g>
					<g>
						<g>
							<g>
								<path class="st1" d="M34.2,119.4c0,1.1,0.2,2.2,1.2,2.8c-1.1,0.6-1.7,1.9-1.8,3.1c0,1.3,0.4,2.5,0.9,3.7
									c1.5,3.6,4.6,8.7,7,11.7c0,0-1.2-3.3-1.6-4c-1.6-3.4-3-6.9-4.5-10.3c-0.2-0.4-0.5-1.4-0.5-1.4c-0.2,0.1,0.1,0,0.5-0.3
									c0.9-0.7,2.8-2,2.8-2S34.2,119.5,34.2,119.4"/>
							</g>
						</g>
					</g>
					<g>
						<g>
							<g>
								<path class="st1" d="M34.2,126.8c0.1,0,0,4.2-0.2,9.3c-0.2,5.2-0.3,9.3-0.4,9.3s0-4.2,0.2-9.3
									C33.9,130.9,34.1,126.8,34.2,126.8z"/>
							</g>
						</g>
					</g>
					<g>
						<g>
							<g>
								<g>
									<g>
										<path class="st1" d="M40.4,115.8H40c0-0.1,0.5-13.8,0.9-19.3c0.1-0.8,0.4-1.5,1-2c1.1-1,2.8-0.8,2.9-0.8v0.4
											c0,0-1.6-0.1-2.6,0.8c-0.5,0.4-0.8,1-0.8,1.8C40.9,101.9,40.4,115.6,40.4,115.8z"/>
									</g>
								</g>
							</g>
							<g>
								<g>
									<g>
										<path class="st1" d="M43.8,138.7L43.8,138.7h-0.6V138h0.6l0,0c1.4,0,2.5-1.1,2.5-2.5v-7.7H47v7.7
											C47,137.2,45.6,138.7,43.8,138.7z"/>
									</g>
								</g>
								<g>
									<g>
										<path class="st1" d="M44,138.4c0,0.4-0.4,0.7-0.9,0.7c-0.4,0-0.7-0.4-0.7-0.9c0-0.4,0.4-0.7,0.9-0.7
											C43.8,137.6,44.1,138,44,138.4z"/>
									</g>
								</g>
								<g>
									<g>
										<path class="st1" d="M37.5,138.7h-0.6c-0.9,0-1.7-0.3-2.3-1c-0.6-0.6-0.9-1.4-0.9-2.3v-7.7h0.7v7.7c0,0.7,0.3,1.3,0.7,1.8
											c0.5,0.5,1.1,0.7,1.8,0.7h0.6V138.7z"/>
									</g>
								</g>
								<g>
									<g>
										<path class="st1" d="M36.6,138.4c0,0.4,0.4,0.7,0.8,0.7s0.7-0.4,0.7-0.8c0-0.4-0.4-0.7-0.8-0.7S36.6,138,36.6,138.4z"/>
									</g>
								</g>
								<g>
									<g>
										<path class="st1" d="M33.4,128.6l-0.1-5.5c-0.1-4.2,3-7.6,6.8-7.7c1.9,0,3.6,0.7,4.9,2.2c1.3,1.4,2.1,3.3,2.1,5.3l0.1,5.5
											h-1.1l-0.1-5.5c0-1.7-0.7-3.4-1.8-4.6s-2.6-1.8-4.1-1.8c-3.2,0.1-5.8,3-5.7,6.6l0.1,5.5H33.4z"/>
									</g>
								</g>
							</g>
						</g>
						<g>
							<g>
								<g>
									<path class="st1" d="M64.4,116c0-0.1-1.7-14.4-2.1-18.9v-0.3c-0.2-1.5-0.3-3.3-2-3.8l0.1-0.3c2,0.5,2.1,2.5,2.3,4.1v0.3
										c0.5,4.6,2.1,18.8,2.1,18.9L64.4,116z"/>
								</g>
							</g>
							<g>
								<g>
									<g>
										<ellipse class="st1" cx="64.5" cy="113.6" rx="3.9" ry="3.9"/>
									</g>
								</g>
								<g>
									<g>
										<path class="st1" d="M66.4,113.5c0,1-0.8,1.9-1.9,1.9s-1.9-0.8-1.9-1.9c0-1,0.8-1.9,1.9-1.9
											C65.6,111.6,66.4,112.5,66.4,113.5z"/>
									</g>
								</g>
							</g>
						</g>
					</g>
					<g>
						<g>
							<g>
								<g>
									<path class="st1" d="M39.8,145.4l1.3-3.5l-2.9-4.6c-0.5-0.8-1.3-1.4-2.3-1.5l-10.8-2c0,0-0.5,1.3,0.9,2.1s7.8,2.3,7.8,2.3
										L24,138c0,0-0.3,1.4,0.8,1.9c1.1,0.5,8.1,0.8,8.1,0.8L24,142c0,0-0.1,1.4,2,1.4c1.6,0,5-0.2,6-0.4c0.2,0,0.3,0.1,0.4,0.3
										l0,0c0,0.2-0.1,0.3-0.2,0.4l-5.9,1.4c-0.8,0.2-0.8,1.3-0.1,1.5c0.1,0,0.2,0,0.3,0c1-0.1,7.1-0.9,7.1-0.9l0.3,0.7
										L39.8,145.4"/>
								</g>
							</g>
							<g>
								<g>
									<g>
										<path class="st1" d="M35.4,144.3c0,0-0.1-0.3-0.3-0.5c-0.1-0.1-0.3-0.3-0.6-0.4c-0.2-0.1-0.5-0.1-0.8-0.1
											c-0.6,0-1.1,0.2-1.6,0.3c-0.4,0.1-0.7,0-0.7,0s0.2,0,0.6-0.1s0.9-0.3,1.6-0.3c0.3,0,0.6,0,0.9,0.1s0.5,0.3,0.6,0.4
											C35.5,144,35.4,144.3,35.4,144.3z"/>
									</g>
								</g>
							</g>
							<g>
								<g>
									<g>
										<path class="st1" d="M36.4,141.6c0,0,0-0.1-0.1-0.3s-0.2-0.4-0.5-0.5c-0.5-0.3-1.5-0.2-2.4-0.1c-1,0.1-1.9,0.2-2.5,0.3
											s-1,0.1-1,0.1s0.4-0.1,1-0.2c0.6-0.1,1.5-0.3,2.5-0.3c0.5,0,1-0.1,1.4-0.1s0.8,0.1,1.1,0.3s0.5,0.4,0.5,0.6
											C36.4,141.5,36.4,141.6,36.4,141.6z"/>
									</g>
								</g>
							</g>
							<g>
								<g>
									<g>
										<path class="st1" d="M37.1,140.1c0,0,0.1-0.4-0.2-0.8c-0.1-0.2-0.4-0.5-0.7-0.6c-0.3-0.2-0.7-0.3-1.1-0.3
											c-0.8-0.1-1.6,0-2.1,0c-0.6,0-0.9-0.2-0.9-0.2s0.3,0.1,0.9,0.1c0.5,0,1.3-0.1,2.1,0c0.4,0,0.8,0.2,1.1,0.4
											s0.5,0.5,0.7,0.7c0.1,0.3,0.2,0.5,0.2,0.6C37.2,140,37.1,140.1,37.1,140.1z"/>
									</g>
								</g>
							</g>
						</g>
					</g>
					<g>
						<g>
							<g>
								<path class="st1" d="M72.2,140.1c0,0,0-0.2,0.1-0.6c0-0.4,0.1-0.9,0.3-1.6c0.2-1.3,0.7-3.2,1.2-5.2s0.8-3.8,0.9-5.2
									c0-0.3,0.1-0.6,0.1-0.9s0-0.5,0-0.7c0-0.4,0-0.6,0.1-0.6c0,0,0,0.2,0,0.6c0,0.2,0,0.4,0,0.7s0,0.6-0.1,0.9
									c-0.1,1.4-0.4,3.2-0.9,5.2s-0.9,3.8-1.2,5.1c-0.1,0.7-0.3,1.2-0.3,1.6C72.2,139.9,72.2,140.1,72.2,140.1z"/>
							</g>
						</g>
					</g>
					<g>
						<g>
							<g>
								<path class="st1" d="M75.9,163.8c0,0-0.1,0-0.2,0c-0.2,0-0.4-0.1-0.6-0.1c-0.5-0.1-1.3-0.3-2.2-0.5
									c-1.9-0.5-4.4-1.1-7.2-1.9c-2.8-0.8-5.4-1.5-7.2-2.1c-0.9-0.3-1.6-0.5-2.2-0.7c-0.2-0.1-0.4-0.1-0.6-0.2
									c-0.1,0-0.2-0.1-0.2-0.1s0.1,0,0.2,0c0.2,0,0.4,0.1,0.6,0.2c0.5,0.2,1.3,0.4,2.2,0.6c1.9,0.5,4.4,1.2,7.2,2
									c2.8,0.8,5.3,1.5,7.2,2c0.9,0.2,1.6,0.5,2.2,0.6c0.2,0.1,0.4,0.1,0.6,0.2C75.9,163.8,75.9,163.8,75.9,163.8z"/>
							</g>
						</g>
					</g>
					<g>
						<g>
							<g>
								<path class="st1" d="M25.4,164.8"/>
							</g>
						</g>
					</g>
				</g>
			</g>
		</g>
	</g>
</g>
<g>
	<path class="st1" d="M272.1,129.9c-1.7,1-3.3,2.2-4.6,3.6c-1.4,1.4-2.6,2.9-3.6,4.6c-1,1.7-1.7,3.5-2.2,5.4c-1,3.8-1,7.8,0,11.6
		c0.5,1.9,1.3,3.7,2.2,5.4c1,1.7,2.2,3.3,3.6,4.6c1.4,1.4,2.9,2.6,4.6,3.6s3.5,1.7,5.4,2.2c3.8,1,7.8,1,11.6,0
		c1.9-0.5,3.7-1.3,5.4-2.2c1.7-1,3.2-2.2,4.6-3.5l0,0c1.4-1.4,2.6-2.9,3.6-4.6c1-1.7,1.7-3.5,2.3-5.4c1-3.8,1-7.8,0-11.6
		c-0.5-1.9-1.3-3.7-2.3-5.4s-2.2-3.3-3.6-4.6c-1.4-1.4-2.9-2.6-4.6-3.6c-5.2-3-11.3-3.8-17-2.3C275.5,128.2,273.7,128.9,272.1,129.9
		z"/>
	<path class="st2" d="M294.5,168.8c-1.7,1-3.5,1.7-5.4,2.2c-3.8,1-7.8,1-11.6,0c-1.9-0.5-3.7-1.3-5.4-2.2c-1.7-1-3.3-2.2-4.6-3.6
		c-1.4-1.4-2.6-2.9-3.6-4.6c-1-1.7-1.7-3.5-2.2-5.4c-1-3.8-1-7.8,0-11.6c0.5-1.9,1.3-3.7,2.2-5.4c1-1.7,2.2-3.3,3.6-4.6
		c1.4-1.4,2.9-2.6,4.6-3.6s3.5-1.7,5.4-2.3c1.9-0.5,3.9-0.8,5.8-0.8v-4.4c-7.1,0-14,2.8-19,7.9c-1.7,1.7-3.1,3.5-4.3,5.6
		c-1.2,2-2.1,4.2-2.7,6.5c-1.2,4.6-1.2,9.4,0,13.9c0.6,2.3,1.5,4.5,2.7,6.5c3.6,6.2,9.5,10.7,16.3,12.5c4.6,1.2,9.4,1.2,13.9,0
		c2.3-0.6,4.4-1.5,6.5-2.7c2-1.2,3.9-2.6,5.5-4.2l-3.1-3.1C297.7,166.6,296.2,167.8,294.5,168.8z"/>
	<path class="st3" d="M309.2,142.3c-2.5-9.3-9.7-16.5-19-19c-2.3-0.6-4.6-0.9-7-0.9v4.4c3.9,0,7.8,1,11.2,3c1.7,1,3.3,2.2,4.6,3.6
		c1.4,1.4,2.6,2.9,3.6,4.6c1,1.7,1.7,3.5,2.3,5.4c1,3.8,1,7.8,0,11.6c-0.5,1.9-1.3,3.7-2.3,5.4s-2.2,3.3-3.6,4.6l0,0l3.1,3.1l0,0
		c5-5,7.9-11.9,7.9-19C310.2,147,309.8,144.6,309.2,142.3z"/>
	<path class="st3" d="M375.1,149.3c0,2.3-0.3,4.7-0.9,6.9c-1.8,6.9-6.3,12.8-12.5,16.4c-2,1.2-4.2,2.1-6.5,2.7
		c-4.6,1.2-9.4,1.2-13.9,0c-2.3-0.6-4.4-1.5-6.5-2.7c-4.1-2.3-7.5-5.7-9.8-9.8c-1.2-2-2.1-4.2-2.7-6.5c-0.4-1.7-0.7-3.4-0.8-5.1h4.4
		c0.1,1.3,0.3,2.7,0.7,4c0.5,1.9,1.3,3.7,2.2,5.4c1,1.7,2.2,3.3,3.6,4.7s3,2.6,4.6,3.6c1.7,1,3.5,1.7,5.4,2.2c3.8,1,7.8,1,11.6,0
		c1.9-0.5,3.7-1.3,5.4-2.2c1.7-1,3.3-2.2,4.6-3.6c1.4-1.4,2.6-3,3.6-4.7s1.7-3.5,2.2-5.4c1-3.8,1-7.8,0-11.6
		c-0.5-1.9-1.3-3.8-2.3-5.5s-2.2-3.3-3.6-4.7c-2.8-2.8-6.3-4.8-10.1-5.8c-1.9-0.5-3.9-0.8-5.8-0.8v-4.4c2.3,0,4.7,0.3,7,0.9
		s4.5,1.5,6.5,2.7c6.2,3.6,10.7,9.4,12.5,16.3C374.8,144.6,375.1,147,375.1,149.3z"/>
	<path class="st2" d="M370.6,149.3c0,2-0.3,3.9-0.8,5.8c-0.5,1.9-1.3,3.7-2.2,5.4c-1,1.7-2.2,3.3-3.6,4.7s-3,2.6-4.6,3.6
		c-1.7,1-3.5,1.7-5.4,2.2c-3.8,1-7.8,1-11.6,0c-1.9-0.5-3.7-1.3-5.4-2.2c-1.7-1-3.3-2.2-4.6-3.6c-1.4-1.4-2.6-3-3.6-4.7
		s-1.7-3.5-2.2-5.4c-0.3-1.3-0.6-2.6-0.7-4l0,0c0-0.6-0.1-1.2-0.1-1.9c0-2,0.3-3.9,0.8-5.8c1-3.8,3-7.3,5.8-10.1
		c4.2-4.2,9.9-6.6,15.9-6.6v-4.4c-7.1,0-14,2.8-19,7.9c-3.3,3.3-5.7,7.5-7,12.1c-0.6,2.3-0.9,4.6-0.9,7c0,0.6,0,1.2,0.1,1.9l0,0
		c0.1,1.7,0.4,3.4,0.8,5.1c0.6,2.3,1.5,4.4,2.7,6.5c2.3,4.1,5.7,7.5,9.8,9.8c2,1.2,4.2,2.1,6.5,2.7c4.6,1.2,9.4,1.2,13.9,0
		c2.3-0.6,4.5-1.5,6.5-2.7c6.2-3.6,10.7-9.4,12.5-16.3c0.6-2.3,0.9-4.6,0.9-6.9L370.6,149.3z"/>
	<path class="st2" d="M422.8,168.8c-1.7,1-3.5,1.7-5.4,2.2c-3.8,1-7.8,1-11.6,0c-1.9-0.5-3.7-1.3-5.4-2.2c-1.7-1-3.3-2.2-4.6-3.6
		c-1.4-1.4-2.6-2.9-3.6-4.6c-1-1.7-1.7-3.5-2.2-5.4c-1-3.8-1-7.8,0-11.6c0.5-1.9,1.3-3.7,2.2-5.4c1-1.7,2.2-3.3,3.6-4.6
		c1.4-1.4,2.9-2.6,4.6-3.6s3.5-1.7,5.4-2.3c1.9-0.5,3.9-0.8,5.8-0.8v-4.4c-7.1,0-14,2.8-19,7.9c-1.7,1.7-3.1,3.5-4.3,5.6
		c-1.2,2-2.1,4.2-2.7,6.5c-1.2,4.6-1.2,9.4,0,13.9c0.6,2.3,1.5,4.5,2.7,6.5c3.6,6.2,9.5,10.7,16.3,12.5c4.6,1.2,9.4,1.2,13.9,0
		c2.3-0.6,4.4-1.5,6.5-2.7c2-1.2,3.9-2.6,5.5-4.2l-3.1-3.1C426.1,166.6,424.5,167.8,422.8,168.8z"/>
	<path class="st3" d="M437.6,142.3c-2.5-9.3-9.7-16.5-19-19c-2.3-0.6-4.6-0.9-7-0.9v4.4c3.9,0,7.8,1,11.2,3c1.7,1,3.3,2.2,4.6,3.6
		c1.4,1.4,2.6,2.9,3.6,4.6c1,1.7,1.7,3.5,2.3,5.4c1,3.8,1,7.8,0,11.6c-0.5,1.9-1.3,3.7-2.3,5.4s-2.2,3.3-3.6,4.6l0,0l3.1,3.1l0,0
		c5-5,7.9-11.9,7.9-19C438.5,147,438.2,144.6,437.6,142.3z"/>
</g>
<g>
	<line class="st4" x1="134.7" y1="249" x2="438.3" y2="249"/>
	<line class="st4" x1="134.7" y1="229.9" x2="438.3" y2="229.9"/>
	<line class="st4" x1="134.7" y1="191.6" x2="438.3" y2="191.6"/>
	<line class="st4" x1="134.7" y1="210.7" x2="438.3" y2="210.7"/>
	<g>
		<path class="st5" d="M134.1,247.3c0,0,20.4-44.9,50.7-44.9s29.9,54,50.8,54s21.4-43.8,50.6-43.8s70.5,18.3,101.2,18.3
			s37.8-18.6,50.9-18.6"/>
		<g>
			<path class="st6" d="M187.7,202.4c0-1.6-1.3-2.9-2.9-2.9c-1.6,0-2.9,1.3-2.9,2.9s1.3,2.9,2.9,2.9l0,0
				C186.4,205.3,187.7,204,187.7,202.4z"/>
			<path class="st6" d="M137,247.3c0-1.6-1.3-2.9-2.9-2.9s-2.9,1.3-2.9,2.9s1.3,2.9,2.9,2.9l0,0C135.7,250.2,137,248.9,137,247.3z"
				/>
			<path class="st6" d="M238.4,256.4c0-1.6-1.3-2.9-2.9-2.9c-1.6,0-2.9,1.3-2.9,2.9c0,1.6,1.3,2.9,2.9,2.9l0,0
				C237.1,259.3,238.4,258,238.4,256.4z"/>
			<path class="st7" d="M289,212.5c0-1.6-1.3-2.9-2.8-2.9c-1.6,0-2.8,1.3-2.8,2.9s1.3,2.9,2.8,2.9l0,0
				C287.7,215.3,289,214.1,289,212.5z"/>
			<path class="st6" d="M339.8,220.3c0-1.6-1.3-2.9-2.9-2.9s-2.9,1.3-2.9,2.9s1.3,2.9,2.9,2.9l0,0
				C338.5,223.2,339.8,221.9,339.8,220.3z"/>
			<path class="st6" d="M390.5,230.7c0-1.6-1.3-2.9-2.9-2.9s-2.9,1.3-2.9,2.9s1.3,2.9,2.9,2.9l0,0
				C389.2,233.5,390.5,232.3,390.5,230.7z"/>
			<path class="st6" d="M441.1,211.7c0-1.6-1.3-2.9-2.9-2.9s-2.9,1.3-2.9,2.9s1.3,2.9,2.9,2.9l0,0
				C439.9,214.6,441.1,213.3,441.1,211.7z"/>
		</g>
	</g>
</g>
<g id="freepik--Character--inject-11_1_">
	<path class="st8" d="M37.2,62"/>
	<path class="st8" d="M59.9,52"/>
	<path class="st8" d="M59.9,52c1.4,0.3,3.5-0.4,4.9,0c2,0.6,3.9,2.5,4.7,4.4c0.8,1.9,0.9,4.1,1.1,6.2c0.1,1.9,0.3,3.7,0.4,5.6
		c0,1.2,0.2,2.4,0.5,3.6c0.4,1.3,1.4,4.7,1.5,6.4"/>
	<path class="st9" d="M68.1,63.7c-0.3-4.9-3.6-10.9-8.5-10.4l-15.3,3.9c-1.5,0.2-2.6,1.4-2.6,2.9"/>
	<path class="st8" d="M47.8,66c0,0,3.2-2.3,7.2-5.1l7.4-7.8c0,0-2.2-2-3-2.5c-3.7-2-19.5-0.8-22.3,9.6"/>
	<path class="st10" d="M46.4,68.3c0.1-1.2,0.1-1.9,0.1-1.9c0,0.2,0.1,0.3,0.1,0.5c0,0.5,0,0.9,0,1.4"/>
	<path class="st10" d="M46.9,68.9c0-1.3,0-2,0-2c0,0.2,0.1,0.3,0.1,0.5c0,0.3,0.1,0.8,0.1,1.5"/>
	<path class="st10" d="M36.1,66.7c0,0,0-0.1,0-0.3c0-0.3,0.1-0.6,0.2-0.9c0.4-1,1-2,1.8-2.7c1.2-1.1,2.7-1.9,4.3-2.4
		c1.8-0.6,3.8-0.9,5.8-1.3c3.5-0.7,6.9-1.9,10.1-3.5c1.2-0.6,2.1-1.3,2.5-2c0.2-0.3,0.4-0.7,0.5-1.1c0,0,0,0.1,0,0.3
		c-0.1,0.3-0.2,0.6-0.3,0.8c-0.4,0.7-1.3,1.5-2.5,2.1c-3.2,1.7-6.6,3-10.1,3.7c-2.1,0.4-4,0.7-5.8,1.3c-1.5,0.4-3,1.2-4.2,2.2
		c-0.8,0.7-1.5,1.6-1.9,2.5C36.2,66.2,36.1,66.7,36.1,66.7z"/>
</g>
<g id="profile-picture">
	<g>
		<g>
			<g>
				<path id="SVGID_1_" class="st11" d="M88.2,143H20.1c-5.2,0-9.4-4.2-9.4-9.4V65.5c0-5.2,4.2-9.4,9.4-9.4h68.2
					c5.2,0,9.4,4.2,9.4,9.4v68.2C97.6,138.8,93.4,143,88.2,143z"/>
			</g>
			<g>
				<defs>
					<path id="SVGID_2_" d="M88.2,143H20.1c-5.2,0-9.4-4.2-9.4-9.4V65.5c0-5.2,4.2-9.4,9.4-9.4h68.2c5.2,0,9.4,4.2,9.4,9.4v68.2
						C97.6,138.8,93.4,143,88.2,143z"/>
				</defs>
				<clipPath id="SVGID_3_">
					<use xlink:href="#SVGID_2_"  style="overflow:visible;"/>
				</clipPath>
				<g id="freepik--Character--inject-11" class="st12">
					<path class="st8" d="M37.2,62l-5.5,16.4c-1.2,3.5-2.4,7.1-4.3,10.3c-0.9,1.4-1.9,2.8-2.2,4.5c-0.3,1.6,0,3.3-0.5,4.9
						c-0.5,1.6-1.8,2.8-2.7,4.2c-0.9,1.4-1.4,3.5-0.2,4.7c0,0,12.1,2.1,12.4,2.3C34.5,109.5,37.2,62,37.2,62z"/>
					<path class="st8" d="M60.9,50.7c1.4,0.3,2.9,0.1,4.3,0.5c2,0.6,3.5,3.3,4.3,5.3c0.8,1.9,0.9,4.1,1.1,6.2
						c0.1,1.9,0.3,3.7,0.4,5.6c0,1.2,0.2,2.4,0.5,3.6c0.4,1.3,1.4,4.7,1.5,6.4c0.2,5.5,1.2,17.5-1.2,20.3
						c-1.3,1.5-10.7,2.3-12.7,2.7c-0.8-0.7-2.5-9.1-3.3-9.8c-0.1-0.1,6.1-4.9,6-5.1c-0.1-0.3-0.1-0.6,0.1-0.9
						c3.7-10.9,3-22.9-1.9-33.3"/>
					<path class="st9" d="M68.1,63.7c-0.3-4.9-3.6-10.9-8.5-10.4l-15.3,3.9c-1.5,0.2-2.6,1.4-2.6,2.9L43.5,99l9.8,23.7
						c0-3.1,6.9-1.7,8.4-8.2c2-8.8-1.1-25.3-1.1-25.3c0,0,6.3-1.1,7.6-9.3C68.7,75.8,68.4,69.1,68.1,63.7z"/>
					<path class="st13" d="M65.7,70.4c0,0.6-0.4,1-1,1.1c-0.6,0-1-0.4-1.1-0.9c0,0,0,0,0,0c0-0.6,0.4-1,1-1.1
						C65.2,69.4,65.7,69.8,65.7,70.4C65.7,70.4,65.7,70.4,65.7,70.4z"/>
					<path class="st13" d="M66.2,67.2c-0.1,0.1-0.9-0.4-2.1-0.4c-1.1,0-2,0.6-2.1,0.4c-0.1-0.1,0.1-0.3,0.4-0.6
						c0.5-0.3,1.1-0.5,1.7-0.5c0.6,0,1.2,0.2,1.6,0.5C66.1,66.9,66.2,67.1,66.2,67.2z"/>
					<path class="st13" d="M55.4,71c0,0.6-0.4,1-1,1.1c-0.6,0.1-1-0.4-1.1-0.9c0,0,0,0,0,0c0-0.6,0.4-1,1-1.1
						C54.9,70,55.4,70.4,55.4,71C55.4,71,55.4,71,55.4,71z"/>
					<path class="st13" d="M55.1,68c-0.1,0.1-0.9-0.5-2.1-0.4c-1.1,0-2,0.6-2.1,0.4c-0.1-0.1,0.1-0.3,0.4-0.6
						c0.5-0.3,1.1-0.5,1.7-0.5c0.6,0,1.2,0.2,1.6,0.5C55,67.7,55.1,67.9,55.1,68z"/>
					<path class="st13" d="M59.2,75.8c0-0.1,0.7-0.2,1.8-0.3c0.3,0,0.6-0.1,0.6-0.3c0-0.3,0-0.6-0.2-0.9l-0.9-2.2
						c-1.2-3.1-2.1-5.7-1.9-5.7s1.2,2.5,2.4,5.6c0.3,0.8,0.6,1.5,0.8,2.2c0.2,0.3,0.2,0.7,0.2,1.1c-0.1,0.2-0.3,0.4-0.5,0.4
						c-0.2,0-0.3,0.1-0.5,0.1C59.9,75.8,59.2,75.8,59.2,75.8z"/>
					<path class="st14" d="M60.5,89.2c0,0-6,0.4-11.4-2.9c0,0,3.2,5.8,11.4,5L60.5,89.2z"/>
					<path class="st15" d="M58.7,78.5c-0.4-0.5-1.1-0.8-1.8-0.8c-0.5,0-1,0.3-1.3,0.7c-0.3,0.4-0.3,0.9-0.1,1.3
						c0.4,0.4,1,0.6,1.5,0.4c0.5-0.2,1-0.5,1.5-0.9c0.1-0.1,0.2-0.2,0.3-0.3C58.9,78.8,58.9,78.7,58.7,78.5"/>
					<path class="st13" d="M55.9,76.6c0.2,0,0.2,1.2,1.2,2.1s2.4,0.7,2.4,0.9c0,0.1-0.3,0.2-0.8,0.3c-0.7,0-1.4-0.2-2-0.7
						c-0.5-0.4-0.9-1.1-1-1.7C55.6,76.9,55.8,76.6,55.9,76.6z"/>
					<path class="st8" d="M55.6,64.7C55.5,65,54.3,64.8,53,65s-2.4,0.5-2.6,0.3c-0.1-0.1,0.1-0.4,0.5-0.7c1.2-0.7,2.6-0.9,3.9-0.4
						C55.4,64.3,55.6,64.5,55.6,64.7z"/>
					<path class="st8" d="M65.7,65.1c-0.2,0.3-1,0-1.9,0c-0.9,0-1.7,0.2-1.9-0.1c-0.1-0.1,0-0.4,0.4-0.6c1-0.6,2.2-0.6,3.1,0.1
						C65.7,64.7,65.8,65,65.7,65.1z"/>
					<path class="st8" d="M59.5,50.6c0,0-18.1-5-22.3,9.6c-2.1,7.4-13.8,45.2-13.8,45.2s5.3,11.2,11.5,11.7s6.3-1.4,6.3-1.4L47.8,66
						c0,0,3.2-2.3,7.2-5.1l7.4-7.8L59.5,50.6z"/>
					<path class="st10" d="M23.8,106.1c0-0.2-0.1-0.3-0.1-0.5c-0.1-0.5-0.1-0.9-0.1-1.4c0-1.7,0.3-3.4,0.9-5
						c0.9-2.4,2.1-4.6,3.7-6.6c1.8-2.3,4-4.4,6.4-6.7c2.4-2.2,4.7-4.4,6.5-6.5c1.6-1.9,3-4,4-6.3c0.7-1.5,1.1-3.2,1.3-4.9
						c0.1-1.2,0.1-1.9,0.1-1.9c0,0.2,0.1,0.3,0.1,0.5c0,0.5,0,0.9,0,1.4c-0.1,1.7-0.5,3.4-1.2,5c-1,2.3-2.3,4.5-3.9,6.5
						c-1.8,2.2-4.1,4.4-6.5,6.6s-4.6,4.4-6.4,6.6c-1.6,1.9-2.8,4.1-3.7,6.4c-0.6,1.6-1,3.2-1.1,4.9
						C23.8,105.4,23.9,106.1,23.8,106.1z"/>
					<path class="st10" d="M27,108.7c-0.1-0.1-0.2-0.3-0.3-0.4c-0.3-0.4-0.5-0.8-0.7-1.3c-0.7-1.7-0.9-3.5-0.6-5.3
						c0.3-2.3,1.4-4.9,3.3-7.2c1.9-2.3,4.4-4.5,7.1-6.6c2.7-2.2,5.2-4.3,6.9-6.7c1.5-2.1,2.7-4.5,3.4-7.1c0.5-1.7,0.7-3.5,0.8-5.2
						c0-1.3,0-2,0-2c0,0.2,0.1,0.3,0.1,0.5c0,0.3,0.1,0.8,0.1,1.5c0,1.8-0.2,3.6-0.6,5.3c-0.6,2.6-1.8,5-3.3,7.2
						c-1.8,2.5-4.3,4.7-6.9,6.8c-2.7,2.2-5.2,4.2-7.1,6.6c-1.9,2.3-3,4.8-3.3,7c-0.3,1.7-0.2,3.5,0.4,5.2
						C26.6,108.1,27,108.7,27,108.7z"/>
					<path class="st10" d="M36.1,66.7c0,0,0-0.1,0-0.3c0-0.3,0.1-0.6,0.2-0.9c0.4-1,1-2,1.8-2.7c1.2-1.1,2.7-1.9,4.3-2.4
						c1.8-0.6,3.8-0.9,5.8-1.3c3.5-0.7,6.9-1.9,10.1-3.5c1.2-0.6,2.1-1.3,2.5-2c0.2-0.3,0.4-0.7,0.5-1.1c0,0,0,0.1,0,0.3
						c-0.1,0.3-0.2,0.6-0.3,0.8c-0.4,0.7-1.3,1.5-2.5,2.1c-3.2,1.7-6.6,3-10.1,3.7c-2.1,0.4-4,0.7-5.8,1.3c-1.5,0.4-3,1.2-4.2,2.2
						c-0.8,0.7-1.5,1.6-1.9,2.5C36.2,66.2,36.1,66.7,36.1,66.7z"/>
					<polygon class="st2" points="68.8,96.9 62.1,95.3 54.2,116.1 43.5,99 43.9,94.8 41.3,95.1 34.1,146.5 72,144.8 					"/>
				</g>
				<g class="st12">
					<g>
						<g>
							<g>
								<g>
									<path class="st16" d="M64.4,142.6l0.8-21.8l-1.3-25.2c5.3,1.4,12.6,2.9,16.6,7.5c2.6,3,5.2,6.8,6.1,13
										c1.1,7.2,2.6,21.1,3.5,28.8"/>
								</g>
							</g>
							<g>
								<g>
									<path class="st16" d="M69.8,139l-26.2,4.3l-0.9-16.2l-1.4-32c-7.6,0.3-16.3,6.6-18.8,11.5c-1.8,3.4-3.3,7.3-3.8,11.2
										c-0.9,7.3-2.4,19.6-3.4,27.4c-0.6,4.8,1,9.5,4.4,13l0,0c3.8,3.9,9.8,5.3,15.1,4.2l39.9-11.2L69.8,139z"/>
								</g>
							</g>
						</g>
						<g>
							<g>
								<g>
									<g>
										<path class="st17" d="M67,138.7L67,138.7c0-0.2,0.1-0.2,0.1-0.4c0.1-0.2,0.2-0.6,0.3-1c0.3-0.9,0.7-2.2,1.2-3.8
											c1-3.2,2.5-7.7,4.1-12.8l0.1,0.1c-1.4-0.6-2.8-1.2-4.2-1.8l-0.2-0.1l0.1-0.1c0.3-0.2,0.6-0.4,1-0.6
											c1.1-0.7,2.2-1.4,3.2-2.1v0.1c-1.6-5.7-3.1-10.6-4.1-14.2c-0.5-1.8-0.9-3.2-1.2-4.2c-0.1-0.5-0.2-0.9-0.3-1.1
											c0-0.1-0.1-0.2-0.1-0.3c0-0.1,0-0.1,0-0.1s0,0,0,0.1s0.1,0.2,0.1,0.3c0.1,0.3,0.2,0.6,0.3,1.1c0.3,1,0.7,2.4,1.2,4.2
											c1,3.6,2.5,8.6,4.2,14.2v0.1h-0.1c-1,0.7-2.1,1.4-3.2,2.1c-0.3,0.2-0.7,0.4-1,0.6v-0.2c1.5,0.6,2.9,1.2,4.2,1.8h0.1v0.1
											c-1.7,5.1-3.1,9.6-4.2,12.8c-0.5,1.6-0.9,2.9-1.2,3.7c-0.1,0.4-0.3,0.8-0.3,1C67.1,138.5,67.1,138.6,67,138.7
											C67.1,138.7,67,138.7,67,138.7z"/>
									</g>
								</g>
							</g>
							<g class="st18">
								<g>
									<g>
										<path d="M72.8,116.4c-0.2,0.7-0.8,1.7-1.3,2s-0.2,0.7,0.2,1.1c0.5,0.5,1.3,0.6,1.7,1.2c0.3,0.5,0.2,1.2,0,1.8
											c-1.8,5.8-4,11.4-6.6,16.9l6.1-18.5l-4.2-1.8L72.8,116.4z"/>
									</g>
								</g>
							</g>
						</g>
						<g>
							<g>
								<g>
									<path class="st17" d="M41.4,139.2C41.4,139.2,41.4,139.1,41.4,139.2c-0.1-0.1-0.1-0.2-0.1-0.3c-0.1-0.2-0.2-0.5-0.4-0.9
										c-0.3-0.8-0.8-1.9-1.4-3.3c-1.2-2.8-2.9-6.8-4.9-11.4v-0.1h0.1c1.1-0.8,2.2-1.6,3.4-2.4v0.1c-0.7-0.6-1.5-1.2-2.2-1.8
										c-0.3-0.3-0.7-0.5-1-0.8l-0.5-0.4l-0.1-0.1c0,0,0,0-0.1-0.1c0,0,0-0.1-0.1-0.1c0-0.1,0-0.2,0-0.3c0-0.8,0.1-1.6,0.2-2.4
										c0.2-1.6,0.5-3.1,0.7-4.5c0.5-2.9,1-5.4,1.5-7.6c0.4-2.2,0.8-3.9,1.1-5.1c0.1-0.6,0.2-1.1,0.3-1.4c0-0.1,0.1-0.3,0.1-0.4
										s0-0.1,0-0.1s0,0,0,0.1s0,0.2-0.1,0.4c-0.1,0.3-0.2,0.8-0.3,1.4c-0.2,1.2-0.6,3-1,5.1c-0.4,2.2-0.9,4.7-1.4,7.6
										c-0.3,1.4-0.5,2.9-0.7,4.5c-0.1,0.8-0.2,1.6-0.2,2.4c0,0.1,0,0.2,0,0.3c0,0,0.1,0.1,0.2,0.2l0.5,0.4c0.3,0.3,0.7,0.5,1,0.8
										c0.8,0.6,1.5,1.2,2.2,1.8l0.1,0.1l-0.1,0.1c-1.2,0.8-2.3,1.6-3.4,2.4v-0.1c1.9,4.6,3.6,8.6,4.8,11.5
										c0.6,1.4,1.1,2.5,1.4,3.3c0.2,0.4,0.3,0.7,0.4,0.9C41.4,138.9,41.4,139,41.4,139.2C41.4,139.1,41.4,139.2,41.4,139.2z"/>
								</g>
							</g>
						</g>
					</g>
					<g>
						<g>
							<path class="st19" d="M85.5,155.6"/>
						</g>
					</g>
					<g class="st18">
						<g>
							<g>
								<path d="M34.1,117.6c0,1.1,0.2,2.2,1.2,2.8c-1.1,0.6-1.7,1.9-1.8,3.1c0,1.3,0.4,2.5,0.9,3.7c1.5,3.6,4.6,8.7,7,11.7
									c0,0-1.2-3.3-1.6-4c-1.6-3.4-3-6.9-4.5-10.3c-0.2-0.4-0.5-1.4-0.5-1.4c-0.2,0.1,0.1,0,0.5-0.3c0.9-0.7,2.8-2,2.8-2
									S34.1,117.7,34.1,117.6"/>
							</g>
						</g>
					</g>
					<g>
						<g>
							<g>
								<path class="st17" d="M34,125c0.1,0,0,4.2-0.2,9.3c-0.2,5.2-0.3,9.3-0.4,9.3c-0.1,0,0-4.2,0.2-9.3C33.8,129.1,34,125,34,125
									z"/>
							</g>
						</g>
					</g>
					<g>
						<g>
							<g>
								<g>
									<g>
										<path class="st17" d="M40.3,114l-0.4,0c0-0.1,0.2-13.8,0.5-19.3c0.1-0.8,0.4-1.5,1-2c1.1-1,2.8-0.9,2.9-0.9l0,0.4
											c0,0-1.6-0.1-2.6,0.8c-0.5,0.4-0.8,1-0.8,1.8C40.5,100.1,40.3,113.8,40.3,114z"/>
									</g>
								</g>
							</g>
							<g>
								<g>
									<g>
										<path class="st20" d="M44,136.8L44,136.8l-0.6,0l0-0.7l0.6,0l0,0c1.4,0,2.5-1.1,2.5-2.5l-0.1-7.7l0.7,0l0.1,7.7
											C47.3,135.3,45.8,136.8,44,136.8z"/>
									</g>
								</g>
								<g>
									<g>
										<path class="st17" d="M44.3,136.5c0,0.4-0.4,0.7-0.9,0.7c-0.5,0-0.7-0.4-0.7-0.9c0-0.4,0.4-0.7,0.9-0.7
											C44,135.7,44.3,136.1,44.3,136.5z"/>
									</g>
								</g>
								<g>
									<g>
										<path class="st20" d="M37.8,136.9l-0.6,0c-0.9,0-1.7-0.3-2.3-1c-0.6-0.6-0.9-1.4-0.9-2.3l-0.1-7.7l0.7,0l0.1,7.7
											c0,0.7,0.3,1.3,0.7,1.8c0.5,0.5,1.1,0.7,1.8,0.7l0.6,0L37.8,136.9z"/>
									</g>
								</g>
								<g>
									<g>
										<path class="st17" d="M36.9,136.7c0,0.4,0.4,0.7,0.8,0.7c0.4,0,0.7-0.4,0.7-0.8c0-0.4-0.4-0.7-0.8-0.7
											C37.2,135.9,36.8,136.3,36.9,136.7z"/>
									</g>
								</g>
								<g>
									<g>
										<path class="st17" d="M33.5,126.9l-0.2-5.5c-0.2-4.2,2.9-7.7,6.7-7.8c1.9,0,3.6,0.6,4.9,2.1c1.3,1.4,2.2,3.3,2.2,5.3
											l0.2,5.5l-1.1,0L46,121c0-1.7-0.8-3.4-1.9-4.6s-2.6-1.8-4.1-1.7c-3.2,0.2-5.7,3.1-5.6,6.7l0.2,5.5L33.5,126.9z"/>
									</g>
								</g>
							</g>
						</g>
						<g>
							<g>
								<g>
									<path class="st17" d="M64.6,114.2c0-0.1-1.5-14.4-1.8-18.9l0-0.3c-0.2-1.5-0.2-3.3-1.9-3.8l0.1-0.3c2,0.5,2.1,2.5,2.2,4.1
										l0,0.3c0.4,4.6,1.8,18.8,1.8,18.9L64.6,114.2z"/>
								</g>
							</g>
							<g>
								<g>
									<g>
										<ellipse class="st17" cx="64.8" cy="111.7" rx="3.9" ry="3.9"/>
									</g>
								</g>
								<g>
									<g>
										<path class="st20" d="M66.7,111.7c0,1-0.8,1.9-1.9,1.9c-1,0-1.9-0.8-1.9-1.9c0-1,0.8-1.9,1.9-1.9
											C65.8,109.9,66.7,110.7,66.7,111.7z"/>
									</g>
								</g>
							</g>
						</g>
					</g>
					<g>
						<g>
							<g>
								<g>
									<path class="st9" d="M39.7,143.6l1.3-3.5l-2.9-4.6c-0.5-0.8-1.3-1.4-2.3-1.5L25,132c0,0-0.5,1.3,0.9,2.1s7.8,2.3,7.8,2.3
										l-9.8-0.2c0,0-0.3,1.4,0.8,1.9c1.1,0.5,8.1,0.8,8.1,0.8l-8.9,1.3c0,0-0.1,1.4,2,1.4c1.6,0,5-0.2,6-0.4
										c0.2,0,0.3,0.1,0.4,0.3l0,0c0,0.2-0.1,0.3-0.2,0.4l-5.9,1.4c-0.8,0.2-0.8,1.3-0.1,1.5c0.1,0,0.2,0,0.3,0
										c1-0.1,7.1-0.9,7.1-0.9l0.3,0.7L39.7,143.6"/>
								</g>
							</g>
							<g>
								<g>
									<g>
										<path class="st21" d="M35.3,142.5c0,0-0.1-0.3-0.3-0.5c-0.1-0.1-0.3-0.3-0.6-0.4c-0.2-0.1-0.5-0.1-0.8-0.1
											c-0.6,0-1.1,0.2-1.6,0.3c-0.4,0.1-0.7,0-0.7,0s0.2,0,0.6-0.1s0.9-0.3,1.6-0.3c0.3,0,0.6,0,0.9,0.1
											c0.3,0.1,0.5,0.3,0.6,0.4C35.3,142.2,35.3,142.5,35.3,142.5z"/>
									</g>
								</g>
							</g>
							<g>
								<g>
									<g>
										<path class="st21" d="M36.2,139.8c0,0,0-0.1-0.1-0.3s-0.2-0.4-0.5-0.5c-0.5-0.3-1.5-0.2-2.4-0.1c-1,0.1-1.9,0.2-2.5,0.3
											s-1,0.1-1,0.1s0.4-0.1,1-0.2c0.6-0.1,1.5-0.3,2.5-0.3c0.5,0,1-0.1,1.4-0.1s0.8,0.1,1.1,0.3s0.5,0.4,0.5,0.6
											C36.3,139.7,36.3,139.8,36.2,139.8z"/>
									</g>
								</g>
							</g>
							<g>
								<g>
									<g>
										<path class="st21" d="M37,138.3c0,0,0.1-0.4-0.2-0.8c-0.1-0.2-0.4-0.5-0.7-0.6c-0.3-0.2-0.7-0.3-1.1-0.3
											c-0.8-0.1-1.6,0-2.1,0c-0.6,0-0.9-0.2-0.9-0.2s0.3,0.1,0.9,0.1c0.5,0,1.3-0.1,2.1,0c0.4,0,0.8,0.2,1.1,0.4
											s0.5,0.5,0.7,0.7c0.1,0.3,0.2,0.5,0.2,0.6V138.3z"/>
									</g>
								</g>
							</g>
						</g>
					</g>
					<g>
						<g>
							<g>
								<path class="st17" d="M72.1,138.3c0,0,0-0.2,0.1-0.6c0-0.4,0.1-0.9,0.3-1.6c0.2-1.3,0.7-3.2,1.2-5.2s0.8-3.8,0.9-5.2
									c0-0.3,0.1-0.6,0.1-0.9c0-0.3,0-0.5,0-0.7c0-0.4,0-0.6,0.1-0.6c0,0,0,0.2,0,0.6c0,0.2,0,0.4,0,0.7s0,0.6-0.1,0.9
									c-0.1,1.4-0.4,3.2-0.9,5.2s-0.9,3.8-1.2,5.1c-0.1,0.7-0.3,1.2-0.3,1.6C72.1,138.1,72.1,138.3,72.1,138.3z"/>
							</g>
						</g>
					</g>
					<g>
						<g>
							<g>
								<path class="st22" d="M25.3,163"/>
							</g>
						</g>
					</g>
					<g>
						<g>
							<g>
								<g>
									<g>
										<path class="st9" d="M64.4,142l6.6-2.3l5.9-9.2c0.6-0.9,1.5-1.5,2.6-1.7l10.6-2c0,0,0.5,1.3-0.9,2.1s-7.8,2.3-7.8,2.3
											l9.8-0.2c0,0,0.3,1.4-0.8,1.9c-1.1,0.5-8.1,0.8-8.1,0.8l8.9,1.3c0,0,0.1,1.4-2,1.4c-1.6,0-5-0.2-6-0.4
											c-0.2,0-0.3,0.1-0.4,0.3l0,0c0,0.2,0.1,0.3,0.2,0.4l5.9,1.4c0.8,0.2,0.8,1.3,0.1,1.5c-0.1,0-0.2,0-0.3,0
											c-1-0.1-7.1-0.9-7.1-0.9s-2.1,7.5-3.5,8.1s-4.3,0.8-4.3,0.8l-6.2,2.4L64.4,142z"/>
									</g>
								</g>
								<g>
									<g>
										<g>
											<path class="st21" d="M90.6,130.9c0,0-0.2,0-0.5,0.1c-0.4,0-0.8,0-1.4,0.1c-1.2,0-2.8,0.1-4.6,0.2c-0.9,0-1.8,0-2.6,0.1
												c-0.8,0-1.5,0.1-2,0.3s-0.9,0.6-1,0.9c-0.2,0.3-0.2,0.5-0.2,0.5s0,0,0-0.1s0.1-0.2,0.1-0.4c0.2-0.3,0.5-0.7,1.1-0.9
												c0.6-0.3,1.3-0.3,2.1-0.3c0.8,0,1.6-0.1,2.6-0.1c1.8-0.1,3.4-0.1,4.6-0.1c0.6,0,1,0,1.4,0
												C90.4,130.9,90.6,130.9,90.6,130.9z"/>
										</g>
									</g>
								</g>
								<g>
									<g>
										<g>
											<path class="st21" d="M90.7,134.9c0,0-0.2,0-0.5,0s-0.8-0.1-1.3-0.2c-1.1-0.1-2.6-0.4-4.2-0.6c-0.8-0.1-1.6-0.3-2.3-0.3
												c-0.7-0.1-1.4,0.1-1.8,0.3c-0.5,0.3-0.8,0.6-0.9,0.8c-0.2,0.2-0.2,0.4-0.3,0.4c0,0,0,0,0-0.1s0.1-0.2,0.2-0.3
												c0.2-0.3,0.4-0.6,0.9-0.9c0.5-0.3,1.2-0.4,1.9-0.4c0.7,0.1,1.5,0.2,2.3,0.3c1.6,0.2,3.1,0.5,4.2,0.7
												c0.5,0.1,0.9,0.2,1.3,0.2C90.5,134.9,90.7,134.9,90.7,134.9z"/>
										</g>
									</g>
								</g>
								<g>
									<g>
										<g>
											<path class="st21" d="M85.7,137.2c0,0-0.4-0.1-1-0.2c-0.6-0.2-1.5-0.4-2.5-0.6c-0.2,0-0.5-0.1-0.7-0.1s-0.4,0.1-0.6,0.2
												c-0.4,0.2-0.6,0.5-0.8,0.8c-0.3,0.6-0.3,1-0.3,1s0-0.1,0-0.3s0.1-0.5,0.2-0.8c0.2-0.3,0.4-0.6,0.8-0.8
												c0.2-0.1,0.4-0.2,0.7-0.2c0.3,0,0.5,0.1,0.7,0.1c1,0.2,1.9,0.5,2.5,0.6C85.4,137,85.7,137.2,85.7,137.2z"/>
										</g>
									</g>
								</g>
							</g>
						</g>
						<g>
							<g>
								<g>
									<path class="st17" d="M33.8,144.5c0,0-0.2,0-0.5,0.1c-0.4,0-0.8,0.1-1.4,0.1c-1.2,0.1-2.7,0.3-4.5,0.4
										c-1.7,0.2-3.3,0.4-4.5,0.5c-0.5,0.1-1,0.1-1.4,0.1c-0.3,0-0.5,0-0.5,0s0.2,0,0.5-0.1s0.8-0.1,1.3-0.2
										c1.1-0.2,2.7-0.4,4.5-0.5c1.7-0.2,3.3-0.3,4.5-0.4c0.6,0,1-0.1,1.4-0.1C33.6,144.5,33.8,144.5,33.8,144.5z"/>
								</g>
							</g>
						</g>
					</g>
				</g>
			</g>
		</g>
	</g>
</g>
<g id="skin-tissue">
	<g>
		<path class="st23" d="M230,70.6c-1.6-5.9-6.1-5.9-11-5.2c-0.5-2-1.3-3.8-1.8-5.8c2.7-1.3,5.2-2.5,7.9-3.8c2.3-1.1,2.9-3.2,0.2-3.1
			c-5.8,0.4-8.5-5.4-13.5-5.9c0.5-6.8-2.7-9-9.2-11.3c-8.3-2.7-11,3.8-16.2,5.9l0,0c-1.4-1.3-3.4-4-4.1-3.8c-2.7,1.3,0,3.2,0,5
			c0.2,3.2,0.4,6.3,0.5,9.5c-1.8,0.5-3.6,1.1-5.4,1.4c-0.7-1.4-1.6-4.3-2-4.1c-5.4,1.3-8.1,5.6-10.8,9.7c-2.3,0-4.7,0.2-7.2,0.2
			c-4,0.2-8.5,5.9-11.5-1.8c-1.1-2.9-3.4-0.4-4.7,1.4c-8.1,11-12.9,23.6-10.4,37c1.1,5.9,1.1,16,12.1,16c2.3,1.1,3.6,2.7,3.6,5.4
			c-2.3,3.1-11.7-0.7-7.6,8.3c7.6,17.1,25,25.5,40.6,19.4c0.5-0.2,1.4-0.5,1.8-0.2c5.8,7,14.4,0.5,20.1,4.1
			c8.8,5.4,9.4-0.2,10.3-6.1c4.5-3.4,12.8-2.3,12.8-11c4.5-1.8,7.6,7,11.9,2c4.1-4.9,2.7-10.6-0.4-15.8c-0.7-1.3-0.5-2.9-0.7-4.3
			c0.7-4-1.4-8.5,2.7-11.7c1.6-1.3,3.1-0.7,4.7,0.7c1.1,0.9,0.9,5,3.2,2.5c0.9-0.9,2.9-5.4-0.5-7.7c-1.6-1.3-3.2-2.5-4.7-3.8
			c0.9-3.6,2-7,5.6-9.2c2.9-0.9,8.1,5,8.5-1.3c0.2-5-1.4-11.5-6.1-15.3c-5.4-4.3-7.6,2.7-11.3,4C234.9,71.8,232.4,71.1,230,70.6z
			 M154.8,43.4c-0.7,0.4-2.2,1.1-3.6,1.8c2.2,1.4,4.1,3.1,6.5,4.1c0.5,0.2,2.7-1.4,2.9-2.3C161.1,43.2,158.3,43.6,154.8,43.4z
			 M231.6,59.1c-0.2-0.5-0.4-1.1-0.7-1.4c-0.2,0.4-0.5,0.9-0.7,1.3c0,0.2,0.2,0.5,0.2,0.7C230.9,59.4,231.3,59.2,231.6,59.1z"/>
		<path class="st24" d="M211.9,143.1c-0.9,6.1-1.4,11.5-10.3,6.1c-5.8-3.6-14.6,2.9-20.1-4.1c-0.2-0.2-1.3,0-1.8,0.2
			c-15.6,6.1-33.1-2.2-40.6-19.4c-4-9,5.4-5.4,7.6-8.3c2.7,15.3,19.1,13.7,27.3,22.3c0.5-1.3,1.6-2.5,1.4-3.6
			c-0.2-2.7-1.1-5.2-1.6-7.9c4.1-0.4,9,0,6.8,5.8c-4.3,11.2,2.7,6.3,7,5.4c7.4-1.4,7.9-7.2,8.1-13.1c8.3-2.3,11.2,3.6,14.4,9
			C210.8,138.2,211.3,140.7,211.9,143.1z"/>
		<path class="st25" d="M210.1,135.9c-3.2-5.6-6.3-11.5-14.4-9l0,0c1.3-5.9,13.1-1.1,11-10.8c8.5-6.1,12.8-14.9,10.8-24.5
			c-1.4-6.8,1.3-8.3,5.8-10.3c1.8,0,3.4,0.2,5.2,0.2c0.7,0.5,1.3,1.1,2,1.8c0,2.3,0,4.7,0,7c-3.4,0.9-9.7-2.2-8.8,5.2
			c0.5,4.1,2.9,9.5,7.4,8.8c6.7-1.1,0-6.3,1.3-9.5c0.5-1.3,0.2-2.9,0.2-4.5c4,0.4,6.7-1.1,7.4-5.2c1.1,3.1,2.2,5.9,3.2,9
			c1.6,1.3,3.1,2.5,4.7,3.8c3.4,2.3,1.3,6.8,0.5,7.7c-2.3,2.5-2.2-1.4-3.2-2.5c-1.6-1.4-3.1-2-4.7-0.7c-4,3.1-2,7.7-2.7,11.7
			c-6.7,1.6-8.6,7.2-10.8,12.8c-10.1-8.1-13.3-2.9-14.4,7C210.2,134.6,210.1,135.1,210.1,135.9z"/>
		<path class="st25" d="M157.7,59.8c2.3,0,4.7-0.2,7.2-0.2c1.3,2.9,2.7,5.8,3.8,8.8c1.1,2.5,4.1,5,4.9,2.5c1.6-5.4,8.8-9.9,4.1-16.9
			c1.8-0.5,3.6-1.1,5.4-1.4c8.3-1.3,16.9-6.5,24.6,1.6c0.7,0.7,2.9,0,4.3,0c2.3,1.3,5.2,2,5.4,5.4c0.5,2,1.3,3.8,1.8,5.8
			c0,0.5,0,1.1,0,1.6c-4.5,0.4-9.7-2-12.6,3.6c-3.2,0-6.7,0.5-9.9-0.4c-5.6-1.4-10.4-2.5-10.3,5.8c-2.2,0-4.5,0-6.7,0
			c-3.1,0-6.3,0-9.4,0c-3.2-2.5-4.7-10.4-11-3.6C158.8,68.2,158.3,63.9,157.7,59.8z"/>
		<path class="st24" d="M157.7,59.8c0.5,4.1,1.1,8.5,1.6,12.6l0,0c-0.5,0.5-1.3,1.3-1.8,1.8l0,0c-9,0.7-12.2,6.5-12.8,14.7
			c0,3.1,0,5.9,0,9c-0.5,4.9-1.3,9.5-1.8,14.4c-11,0.2-11-10.1-12.1-16c-2.5-13.3,2.3-25.9,10.4-37c1.3-1.8,3.6-4.1,4.7-1.4
			C149.3,65.7,153.8,60,157.7,59.8z"/>
		<path class="st26" d="M143,112.3c0.5-4.9,1.3-9.5,1.8-14.4c1.3,0,2.7,0,4-0.2c4.5-0.5,8.8-1.3,13.3-1.6c2.9-0.2,5.8,0.9,5.9,4.1
			c0.2,3.4,0.2,7.2-0.7,10.6c-0.7,2.3-3.4,1.4-5.6,0.9c-2.2-0.5-3.2-5.9-6.3-2.2c-2.9,3.6,0.7,6.5,2.3,9.5c3.4,6.7,12.6,3.2,16,9.5
			c0.5,2.7,1.3,5.2,1.6,7.9c0.2,1.1-0.9,2.3-1.4,3.6c-8.1-8.6-24.6-7.2-27.3-22.3C146.7,115,145.3,113.2,143,112.3z"/>
		<path class="st24" d="M211.9,54.2c-1.4,0-3.6,0.7-4.3,0c-7.7-8.1-16.4-3.1-24.6-1.6c-0.2-3.2-0.4-6.3-0.5-9.5
			c-0.2-1.8-2.7-3.8,0-5c0.7-0.4,2.7,2.3,4.1,3.8c-0.2,0.2-0.2,0.5-0.4,0.7c0.2-0.2,0.2-0.5,0.4-0.7c5.2-2.2,7.9-8.6,16.2-5.9
			c6.7,2.2,9.7,4.5,9.2,11.3C211.9,49.4,211.9,51.9,211.9,54.2z"/>
		<path class="st24" d="M237.2,72.4c3.8-1.3,5.9-8.3,11.3-4c4.7,3.8,6.5,10.1,6.1,15.3c-0.4,6.3-5.6,0.4-8.5,1.3
			c-1.3-5.6-5.8-2.7-9-3.6C237.2,78.5,237.2,75.4,237.2,72.4z"/>
		<path class="st26" d="M224.6,126.9c2.2-5.6,4.1-11.2,10.8-12.8c0.2,1.4,0,3.2,0.7,4.3c3.1,5.2,4.5,11,0.4,15.8
			c-4.1,5-7.4-3.8-11.9-2l0,0C224.6,130.5,224.6,128.7,224.6,126.9z"/>
		<path class="st24" d="M177.5,54c4.7,7-2.3,11.5-4.1,16.9c-0.7,2.3-3.8-0.2-4.9-2.5c-1.3-3.1-2.5-5.9-3.8-8.8
			c2.7-4.1,5.4-8.6,10.8-9.7C175.9,49.7,177,52.6,177.5,54z"/>
		<path class="st26" d="M211.9,54.2c0-2.5,0-4.9,0-7.4c5,0.5,7.7,6.3,13.5,5.9c2.7-0.2,2.2,2-0.2,3.1c-2.7,1.3-5.2,2.5-7.9,3.8
			C217.1,56.2,214.2,55.5,211.9,54.2z"/>
		<path class="st26" d="M210.1,135.9c0-0.7,0-1.3,0-2c5.2,3.4,9.7-1.1,14.4-1.8l0,0c0.2,8.6-8.3,7.6-12.8,11
			C211.3,140.7,210.8,138.2,210.1,135.9z"/>
		<path class="st26" d="M237.2,81.4c3.1,0.9,7.7-2.2,9,3.6c-3.4,2-4.7,5.6-5.6,9.2c-1.1-3.1-2.2-5.9-3.2-9
			C237.4,83.9,237.4,82.6,237.2,81.4L237.2,81.4z"/>
		<path class="st26" d="M237.2,72.4c0,3.1,0,5.9,0,9l0,0c-2.3,0.5-4.7,1.3-7.2,1.8c-0.7-0.5-1.3-1.1-2-1.8c8.3-2.3,2.2-7.2,1.8-11
			l0,0C232.4,71.1,234.9,71.8,237.2,72.4z"/>
		<path class="st25" d="M154.8,43.4c3.4,0.2,6.3-0.2,5.8,3.6c-0.2,0.9-2.3,2.5-2.9,2.3c-2.3-1.1-4.3-2.7-6.5-4.1
			C152.9,44.3,154.3,43.8,154.8,43.4z"/>
		<path class="st26" d="M219.2,67c0-0.5,0-1.1,0-1.6c4.9-0.7,9.4-0.7,11,5.2l0,0c-4.7-1.8-8.6-1.4-11.2,3.8
			c-0.5-0.2-1.3-0.4-1.8-0.5C217.8,71.5,218.5,69.1,219.2,67z"/>
		<path class="st26" d="M231.6,59.1c-0.4,0.2-0.7,0.4-1.1,0.5c-0.2-0.2-0.4-0.5-0.2-0.7c0.2-0.5,0.5-0.9,0.7-1.3
			C231.3,58.2,231.5,58.5,231.6,59.1z"/>
		<path class="st27" d="M217.3,73.6c0.5,0.2,1.3,0.4,1.8,0.5c1.4,2.3,2.7,4.7,4.1,7c-4.5,2-7.2,3.4-5.8,10.3
			c2,9.5-2.3,18.3-10.8,24.5c-3.6-2.2-4.5-11.3-10.6-6.1c-4.9,4.1-9.2,11.2-0.4,16.9l0,0c-0.2,5.9-0.7,11.7-8.1,13.1
			c-4.3,0.9-11.3,5.8-7-5.4c2.3-5.9-2.5-6.1-6.8-5.8c-3.4-6.3-12.6-3.1-16-9.5c-1.6-3.1-5.2-5.9-2.3-9.5c3.1-3.8,4,1.6,6.3,2.2
			c2.2,0.5,4.9,1.3,5.6-0.9c0.9-3.2,1.1-7,0.7-10.6c-0.2-3.2-3.1-4.3-5.9-4.1c-4.5,0.4-8.8,1.1-13.3,1.6c-0.9-3.2,2-8.1-4-8.8
			c0.5-8.3,3.8-14,12.8-14.7c0,3.2-0.9,7.4,3.2,8.5c5,1.4,7-3.4,9.5-6.5c3.1,0,6.3,0,9.4,0c-0.5,3.2-1.4,6.8,3.8,7.2
			c1.6,0.2,4.5,1.8,3.1,2.7c-10.1,5.9-8.6,9.7,1.3,13.5c1.4,0.5,0,6.1,4.3,5c3.1-0.7,3.4-3.8,3.4-6.7c3.4,0.9,7,1.4,10.4,2.5
			c2.9,0.9,5.4,1.4,7-1.6s0.5-6.1-1.6-8.3c-2.9-2.9-6.8-1.1-10.4-1.6c-2-6.1-3.8-12.1-12.8-8.8c-2.5,0.9-1.1-2.5-1.8-3.8
			c-0.2-8.3,4.7-7.2,10.3-5.8c3.1,0.7,6.5,0.2,9.9,0.4C207.9,79,213.3,73.5,217.3,73.6z M168,88.7c0.2-2.2-0.7-3.4-2.9-3.4
			c-3.1,0-5.2,1.3-5.6,4.3c-0.4,2.2,0,4.5,3.1,4.1C165.3,93.2,167.3,91.4,168,88.7z M155.6,83.3c0-2-0.7-3.4-3.1-3.6
			c-2.5,0-4,1.3-3.8,3.8c0.2,2.2,1.4,3.1,3.6,3.1C154.5,86.6,155.6,85.5,155.6,83.3z"/>
		<path class="st26" d="M195.7,126.7c-8.8-5.8-4.5-12.6,0.4-16.9c6.1-5.2,7,4,10.6,6.1C208.8,125.6,196.9,120.8,195.7,126.7z"/>
		<path class="st23" d="M224.6,132.3c-4.9,0.7-9.2,5-14.4,1.8c1.1-10.1,4.5-15.3,14.4-7C224.6,128.7,224.6,130.5,224.6,132.3z"/>
		<path class="st23" d="M223,81.4c-1.4-2.3-2.7-4.7-4.1-7c2.3-5,6.3-5.4,11.2-3.8c0.2,3.8,6.5,8.6-1.8,11
			C226.4,81.6,224.8,81.4,223,81.4z"/>
		<path class="st27" d="M230.2,90.4c0,1.4,0.4,3.2-0.2,4.5c-1.3,3.2,5.4,8.5-1.3,9.5c-4.5,0.7-6.8-4.7-7.4-8.8
			C220.5,88,226.8,91.3,230.2,90.4L230.2,90.4z"/>
		<path class="st23" d="M230.2,83.3c2.3-0.5,4.7-1.3,7.2-1.8c0,1.3,0.2,2.5,0.2,3.8c-0.7,4.1-3.4,5.6-7.4,5.2l0,0
			C230.2,88,230.2,85.7,230.2,83.3z"/>
		<path class="st24" d="M186.5,76c0.7,1.3-0.7,4.7,1.8,3.8c8.8-3.2,10.6,2.7,12.8,8.8l0,0c-1.3,0.5-2.3,1.3-3.6,1.8l0,0
			c-2.5,0-4.9-0.2-5.4,3.2c-0.4,2.9,1.3,3.6,3.6,4.1l0,0c0,2.9-0.4,5.8-3.4,6.7c-4.3,1.1-2.9-4.3-4.3-5c-9.9-3.8-11.3-7.6-1.3-13.5
			c1.6-0.9-1.3-2.5-3.1-2.7c-5.2-0.4-4.3-4-3.8-7.2C182,76,184.2,76,186.5,76z"/>
		<path class="st24" d="M170.5,76c-2.5,3.1-4.5,7.9-9.5,6.5c-4.1-1.1-3.2-5.2-3.2-8.5l0,0c0.5-0.5,1.3-1.3,1.8-1.8l0,0
			C165.6,65.7,167.1,73.6,170.5,76z"/>
		<path class="st24" d="M217.3,73.6c-3.8-0.2-9.4,5.4-10.6-3.2c3.1-5.6,8.3-3.1,12.6-3.6C218.5,69.1,217.8,71.5,217.3,73.6z"/>
		<path class="st23" d="M144.8,88.7c6.1,0.9,3.1,5.8,4,8.8c-1.3,0-2.7,0-4,0.2C144.8,94.9,144.8,91.8,144.8,88.7z"/>
		<path class="st25" d="M159.3,72.4c-0.5,0.5-1.3,1.3-1.8,1.8C158.1,73.6,158.8,72.9,159.3,72.4z"/>
		<path class="st23" d="M186.5,41.6c-0.2,0.2-0.2,0.5-0.4,0.7C186.3,42,186.5,41.8,186.5,41.6L186.5,41.6z"/>
		<path class="st26" d="M201.1,88.6c3.4,0.5,7.6-1.4,10.4,1.6c2.2,2.2,3.2,5.2,1.6,8.3c-1.6,3.1-4.1,2.5-7,1.6
			c-3.4-1.1-7-1.6-10.4-2.5l0,0c0.5-2.5,1.3-4.9,1.8-7.4l0,0C198.5,89.8,199.8,89.3,201.1,88.6L201.1,88.6z"/>
		<path class="st23" d="M168,88.7c-0.9,2.7-2.7,4.7-5.6,5c-3.1,0.4-3.4-2-3.1-4.1c0.5-3.1,2.7-4.5,5.6-4.3
			C167.3,85.3,168.3,86.6,168,88.7z"/>
		<path class="st24" d="M155.6,83.3c0,2.2-1.1,3.4-3.2,3.4s-3.4-0.9-3.6-3.1c-0.2-2.5,1.1-4,3.8-3.8
			C154.8,79.8,155.6,81.2,155.6,83.3z"/>
		<path class="st27" d="M197.5,90.5c-0.5,2.5-1.3,4.9-1.8,7.4c-2.2-0.5-4-1.3-3.6-4.1C192.6,90.2,194.9,90.4,197.5,90.5z"/>
		<path class="st27" d="M201.1,88.6c-1.3,0.5-2.3,1.3-3.6,1.8C198.5,89.8,199.8,89.3,201.1,88.6z"/>
	</g>
	<g>
		<path class="st23" d="M230,70.6c-1.6-5.9-6.1-5.9-11-5.2c-0.5-2-1.3-3.8-1.8-5.8c2.7-1.3,5.2-2.5,7.9-3.8c2.3-1.1,2.9-3.2,0.2-3.1
			c-5.8,0.4-8.5-5.4-13.5-5.9c0.5-6.8-2.7-9-9.2-11.3c-8.3-2.7-11,3.8-16.2,5.9l0,0c-1.4-1.3-3.4-4-4.1-3.8c-2.7,1.3,0,3.2,0,5
			c0.2,3.2,0.4,6.3,0.5,9.5c-1.8,0.5-3.6,1.1-5.4,1.4c-0.7-1.4-1.6-4.3-2-4.1c-5.4,1.3-8.1,5.6-10.8,9.7c-2.3,0-4.7,0.2-7.2,0.2
			c-4,0.2-8.5,5.9-11.5-1.8c-1.1-2.9-3.4-0.4-4.7,1.4c-8.1,11-12.9,23.6-10.4,37c1.1,5.9,1.1,16,12.1,16c2.3,1.1,3.6,2.7,3.6,5.4
			c-2.3,3.1-11.7-0.7-7.6,8.3c7.6,17.1,25,25.5,40.6,19.4c0.5-0.2,1.4-0.5,1.8-0.2c5.8,7,14.4,0.5,20.1,4.1
			c8.8,5.4,9.4-0.2,10.3-6.1c4.5-3.4,12.8-2.3,12.8-11c4.5-1.8,7.6,7,11.9,2c4.1-4.9,2.7-10.6-0.4-15.8c-0.7-1.3-0.5-2.9-0.7-4.3
			c0.7-4-1.4-8.5,2.7-11.7c1.6-1.3,3.1-0.7,4.7,0.7c1.1,0.9,0.9,5,3.2,2.5c0.9-0.9,2.9-5.4-0.5-7.7c-1.6-1.3-3.2-2.5-4.7-3.8
			c0.9-3.6,2-7,5.6-9.2c2.9-0.9,8.1,5,8.5-1.3c0.2-5-1.4-11.5-6.1-15.3c-5.4-4.3-7.6,2.7-11.3,4C234.9,71.8,232.4,71.1,230,70.6z
			 M154.8,43.4c-0.7,0.4-2.2,1.1-3.6,1.8c2.2,1.4,4.1,3.1,6.5,4.1c0.5,0.2,2.7-1.4,2.9-2.3C161.1,43.2,158.3,43.6,154.8,43.4z
			 M231.6,59.1c-0.2-0.5-0.4-1.1-0.7-1.4c-0.2,0.4-0.5,0.9-0.7,1.3c0,0.2,0.2,0.5,0.2,0.7C230.9,59.4,231.3,59.2,231.6,59.1z"/>
		<path class="st24" d="M211.9,143.1c-0.9,6.1-1.4,11.5-10.3,6.1c-5.8-3.6-14.6,2.9-20.1-4.1c-0.2-0.2-1.3,0-1.8,0.2
			c-15.6,6.1-33.1-2.2-40.6-19.4c-4-9,5.4-5.4,7.6-8.3c2.7,15.3,19.1,13.7,27.3,22.3c0.5-1.3,1.6-2.5,1.4-3.6
			c-0.2-2.7-1.1-5.2-1.6-7.9c4.1-0.4,9,0,6.8,5.8c-4.3,11.2,2.7,6.3,7,5.4c7.4-1.4,7.9-7.2,8.1-13.1c8.3-2.3,11.2,3.6,14.4,9
			C210.8,138.2,211.3,140.7,211.9,143.1z"/>
		<path class="st25" d="M210.1,135.9c-3.2-5.6-6.3-11.5-14.4-9l0,0c1.3-5.9,13.1-1.1,11-10.8c8.5-6.1,12.8-14.9,10.8-24.5
			c-1.4-6.8,1.3-8.3,5.8-10.3c1.8,0,3.4,0.2,5.2,0.2c0.7,0.5,1.3,1.1,2,1.8c0,2.3,0,4.7,0,7c-3.4,0.9-9.7-2.2-8.8,5.2
			c0.5,4.1,2.9,9.5,7.4,8.8c6.7-1.1,0-6.3,1.3-9.5c0.5-1.3,0.2-2.9,0.2-4.5c4,0.4,6.7-1.1,7.4-5.2c1.1,3.1,2.2,5.9,3.2,9
			c1.6,1.3,3.1,2.5,4.7,3.8c3.4,2.3,1.3,6.8,0.5,7.7c-2.3,2.5-2.2-1.4-3.2-2.5c-1.6-1.4-3.1-2-4.7-0.7c-4,3.1-2,7.7-2.7,11.7
			c-6.7,1.6-8.6,7.2-10.8,12.8c-10.1-8.1-13.3-2.9-14.4,7C210.2,134.6,210.1,135.1,210.1,135.9z"/>
		<path class="st25" d="M157.7,59.8c2.3,0,4.7-0.2,7.2-0.2c1.3,2.9,2.7,5.8,3.8,8.8c1.1,2.5,4.1,5,4.9,2.5c1.6-5.4,8.8-9.9,4.1-16.9
			c1.8-0.5,3.6-1.1,5.4-1.4c8.3-1.3,16.9-6.5,24.6,1.6c0.7,0.7,2.9,0,4.3,0c2.3,1.3,5.2,2,5.4,5.4c0.5,2,1.3,3.8,1.8,5.8
			c0,0.5,0,1.1,0,1.6c-4.5,0.4-9.7-2-12.6,3.6c-3.2,0-6.7,0.5-9.9-0.4c-5.6-1.4-10.4-2.5-10.3,5.8c-2.2,0-4.5,0-6.7,0
			c-3.1,0-6.3,0-9.4,0c-3.2-2.5-4.7-10.4-11-3.6C158.8,68.2,158.3,63.9,157.7,59.8z"/>
		<path class="st24" d="M157.7,59.8c0.5,4.1,1.1,8.5,1.6,12.6l0,0c-0.5,0.5-1.3,1.3-1.8,1.8l0,0c-9,0.7-12.2,6.5-12.8,14.7
			c0,3.1,0,5.9,0,9c-0.5,4.9-1.3,9.5-1.8,14.4c-11,0.2-11-10.1-12.1-16c-2.5-13.3,2.3-25.9,10.4-37c1.3-1.8,3.6-4.1,4.7-1.4
			C149.3,65.7,153.8,60,157.7,59.8z"/>
		<path class="st26" d="M143,112.3c0.5-4.9,1.3-9.5,1.8-14.4c1.3,0,2.7,0,4-0.2c4.5-0.5,8.8-1.3,13.3-1.6c2.9-0.2,5.8,0.9,5.9,4.1
			c0.2,3.4,0.2,7.2-0.7,10.6c-0.7,2.3-3.4,1.4-5.6,0.9c-2.2-0.5-3.2-5.9-6.3-2.2c-2.9,3.6,0.7,6.5,2.3,9.5c3.4,6.7,12.6,3.2,16,9.5
			c0.5,2.7,1.3,5.2,1.6,7.9c0.2,1.1-0.9,2.3-1.4,3.6c-8.1-8.6-24.6-7.2-27.3-22.3C146.7,115,145.3,113.2,143,112.3z"/>
		<path class="st24" d="M211.9,54.2c-1.4,0-3.6,0.7-4.3,0c-7.7-8.1-16.4-3.1-24.6-1.6c-0.2-3.2-0.4-6.3-0.5-9.5
			c-0.2-1.8-2.7-3.8,0-5c0.7-0.4,2.7,2.3,4.1,3.8c-0.2,0.2-0.2,0.5-0.4,0.7c0.2-0.2,0.2-0.5,0.4-0.7c5.2-2.2,7.9-8.6,16.2-5.9
			c6.7,2.2,9.7,4.5,9.2,11.3C211.9,49.4,211.9,51.9,211.9,54.2z"/>
		<path class="st24" d="M237.2,72.4c3.8-1.3,5.9-8.3,11.3-4c4.7,3.8,6.5,10.1,6.1,15.3c-0.4,6.3-5.6,0.4-8.5,1.3
			c-1.3-5.6-5.8-2.7-9-3.6C237.2,78.5,237.2,75.4,237.2,72.4z"/>
		<path class="st26" d="M224.6,126.9c2.2-5.6,4.1-11.2,10.8-12.8c0.2,1.4,0,3.2,0.7,4.3c3.1,5.2,4.5,11,0.4,15.8
			c-4.1,5-7.4-3.8-11.9-2l0,0C224.6,130.5,224.6,128.7,224.6,126.9z"/>
		<path class="st24" d="M177.5,54c4.7,7-2.3,11.5-4.1,16.9c-0.7,2.3-3.8-0.2-4.9-2.5c-1.3-3.1-2.5-5.9-3.8-8.8
			c2.7-4.1,5.4-8.6,10.8-9.7C175.9,49.7,177,52.6,177.5,54z"/>
		<path class="st26" d="M211.9,54.2c0-2.5,0-4.9,0-7.4c5,0.5,7.7,6.3,13.5,5.9c2.7-0.2,2.2,2-0.2,3.1c-2.7,1.3-5.2,2.5-7.9,3.8
			C217.1,56.2,214.2,55.5,211.9,54.2z"/>
		<path class="st26" d="M210.1,135.9c0-0.7,0-1.3,0-2c5.2,3.4,9.7-1.1,14.4-1.8l0,0c0.2,8.6-8.3,7.6-12.8,11
			C211.3,140.7,210.8,138.2,210.1,135.9z"/>
		<path class="st26" d="M237.2,81.4c3.1,0.9,7.7-2.2,9,3.6c-3.4,2-4.7,5.6-5.6,9.2c-1.1-3.1-2.2-5.9-3.2-9
			C237.4,83.9,237.4,82.6,237.2,81.4L237.2,81.4z"/>
		<path class="st26" d="M237.2,72.4c0,3.1,0,5.9,0,9l0,0c-2.3,0.5-4.7,1.3-7.2,1.8c-0.7-0.5-1.3-1.1-2-1.8c8.3-2.3,2.2-7.2,1.8-11
			l0,0C232.4,71.1,234.9,71.8,237.2,72.4z"/>
		<path class="st25" d="M154.8,43.4c3.4,0.2,6.3-0.2,5.8,3.6c-0.2,0.9-2.3,2.5-2.9,2.3c-2.3-1.1-4.3-2.7-6.5-4.1
			C152.9,44.3,154.3,43.8,154.8,43.4z"/>
		<path class="st26" d="M219.2,67c0-0.5,0-1.1,0-1.6c4.9-0.7,9.4-0.7,11,5.2l0,0c-4.7-1.8-8.6-1.4-11.2,3.8
			c-0.5-0.2-1.3-0.4-1.8-0.5C217.8,71.5,218.5,69.1,219.2,67z"/>
		<path class="st26" d="M231.6,59.1c-0.4,0.2-0.7,0.4-1.1,0.5c-0.2-0.2-0.4-0.5-0.2-0.7c0.2-0.5,0.5-0.9,0.7-1.3
			C231.3,58.2,231.5,58.5,231.6,59.1z"/>
		<path class="st27" d="M217.3,73.6c0.5,0.2,1.3,0.4,1.8,0.5c1.4,2.3,2.7,4.7,4.1,7c-4.5,2-7.2,3.4-5.8,10.3
			c2,9.5-2.3,18.3-10.8,24.5c-3.6-2.2-4.5-11.3-10.6-6.1c-4.9,4.1-9.2,11.2-0.4,16.9l0,0c-0.2,5.9-0.7,11.7-8.1,13.1
			c-4.3,0.9-11.3,5.8-7-5.4c2.3-5.9-2.5-6.1-6.8-5.8c-3.4-6.3-12.6-3.1-16-9.5c-1.6-3.1-5.2-5.9-2.3-9.5c3.1-3.8,4,1.6,6.3,2.2
			c2.2,0.5,4.9,1.3,5.6-0.9c0.9-3.2,1.1-7,0.7-10.6c-0.2-3.2-3.1-4.3-5.9-4.1c-4.5,0.4-8.8,1.1-13.3,1.6c-0.9-3.2,2-8.1-4-8.8
			c0.5-8.3,3.8-14,12.8-14.7c0,3.2-0.9,7.4,3.2,8.5c5,1.4,7-3.4,9.5-6.5c3.1,0,6.3,0,9.4,0c-0.5,3.2-1.4,6.8,3.8,7.2
			c1.6,0.2,4.5,1.8,3.1,2.7c-10.1,5.9-8.6,9.7,1.3,13.5c1.4,0.5,0,6.1,4.3,5c3.1-0.7,3.4-3.8,3.4-6.7c3.4,0.9,7,1.4,10.4,2.5
			c2.9,0.9,5.4,1.4,7-1.6s0.5-6.1-1.6-8.3c-2.9-2.9-6.8-1.1-10.4-1.6c-2-6.1-3.8-12.1-12.8-8.8c-2.5,0.9-1.1-2.5-1.8-3.8
			c-0.2-8.3,4.7-7.2,10.3-5.8c3.1,0.7,6.5,0.2,9.9,0.4C207.9,79,213.3,73.5,217.3,73.6z M168,88.7c0.2-2.2-0.7-3.4-2.9-3.4
			c-3.1,0-5.2,1.3-5.6,4.3c-0.4,2.2,0,4.5,3.1,4.1C165.3,93.2,167.3,91.4,168,88.7z M155.6,83.3c0-2-0.7-3.4-3.1-3.6
			c-2.5,0-4,1.3-3.8,3.8c0.2,2.2,1.4,3.1,3.6,3.1C154.5,86.6,155.6,85.5,155.6,83.3z"/>
		<path class="st26" d="M195.7,126.7c-8.8-5.8-4.5-12.6,0.4-16.9c6.1-5.2,7,4,10.6,6.1C208.8,125.6,196.9,120.8,195.7,126.7z"/>
		<path class="st23" d="M224.6,132.3c-4.9,0.7-9.2,5-14.4,1.8c1.1-10.1,4.5-15.3,14.4-7C224.6,128.7,224.6,130.5,224.6,132.3z"/>
		<path class="st23" d="M223,81.4c-1.4-2.3-2.7-4.7-4.1-7c2.3-5,6.3-5.4,11.2-3.8c0.2,3.8,6.5,8.6-1.8,11
			C226.4,81.6,224.8,81.4,223,81.4z"/>
		<path class="st27" d="M230.2,90.4c0,1.4,0.4,3.2-0.2,4.5c-1.3,3.2,5.4,8.5-1.3,9.5c-4.5,0.7-6.8-4.7-7.4-8.8
			C220.5,88,226.8,91.3,230.2,90.4L230.2,90.4z"/>
		<path class="st23" d="M230.2,83.3c2.3-0.5,4.7-1.3,7.2-1.8c0,1.3,0.2,2.5,0.2,3.8c-0.7,4.1-3.4,5.6-7.4,5.2l0,0
			C230.2,88,230.2,85.7,230.2,83.3z"/>
		<path class="st24" d="M186.5,76c0.7,1.3-0.7,4.7,1.8,3.8c8.8-3.2,10.6,2.7,12.8,8.8l0,0c-1.3,0.5-2.3,1.3-3.6,1.8l0,0
			c-2.5,0-4.9-0.2-5.4,3.2c-0.4,2.9,1.3,3.6,3.6,4.1l0,0c0,2.9-0.4,5.8-3.4,6.7c-4.3,1.1-2.9-4.3-4.3-5c-9.9-3.8-11.3-7.6-1.3-13.5
			c1.6-0.9-1.3-2.5-3.1-2.7c-5.2-0.4-4.3-4-3.8-7.2C182,76,184.2,76,186.5,76z"/>
		<path class="st24" d="M170.5,76c-2.5,3.1-4.5,7.9-9.5,6.5c-4.1-1.1-3.2-5.2-3.2-8.5l0,0c0.5-0.5,1.3-1.3,1.8-1.8l0,0
			C165.6,65.7,167.1,73.6,170.5,76z"/>
		<path class="st24" d="M217.3,73.6c-3.8-0.2-9.4,5.4-10.6-3.2c3.1-5.6,8.3-3.1,12.6-3.6C218.5,69.1,217.8,71.5,217.3,73.6z"/>
		<path class="st23" d="M144.8,88.7c6.1,0.9,3.1,5.8,4,8.8c-1.3,0-2.7,0-4,0.2C144.8,94.9,144.8,91.8,144.8,88.7z"/>
		<path class="st25" d="M159.3,72.4c-0.5,0.5-1.3,1.3-1.8,1.8C158.1,73.6,158.8,72.9,159.3,72.4z"/>
		<path class="st23" d="M186.5,41.6c-0.2,0.2-0.2,0.5-0.4,0.7C186.3,42,186.5,41.8,186.5,41.6L186.5,41.6z"/>
		<path class="st26" d="M201.1,88.6c3.4,0.5,7.6-1.4,10.4,1.6c2.2,2.2,3.2,5.2,1.6,8.3c-1.6,3.1-4.1,2.5-7,1.6
			c-3.4-1.1-7-1.6-10.4-2.5l0,0c0.5-2.5,1.3-4.9,1.8-7.4l0,0C198.5,89.8,199.8,89.3,201.1,88.6L201.1,88.6z"/>
		<path class="st23" d="M168,88.7c-0.9,2.7-2.7,4.7-5.6,5c-3.1,0.4-3.4-2-3.1-4.1c0.5-3.1,2.7-4.5,5.6-4.3
			C167.3,85.3,168.3,86.6,168,88.7z"/>
		<path class="st24" d="M155.6,83.3c0,2.2-1.1,3.4-3.2,3.4s-3.4-0.9-3.6-3.1c-0.2-2.5,1.1-4,3.8-3.8
			C154.8,79.8,155.6,81.2,155.6,83.3z"/>
		<path class="st27" d="M197.5,90.5c-0.5,2.5-1.3,4.9-1.8,7.4c-2.2-0.5-4-1.3-3.6-4.1C192.6,90.2,194.9,90.4,197.5,90.5z"/>
		<path class="st27" d="M201.1,88.6c-1.3,0.5-2.3,1.3-3.6,1.8C198.5,89.8,199.8,89.3,201.1,88.6z"/>
	</g>
</g>
<g id="doctor">
	<path class="st0" d="M441,188.4l-58.9,1.4l-65,150.4H229l-1.8,9.3c-2.2,11.3,6.5,21.8,18,21.8h143.1l61-177.5L441,188.4z"/>
	<path class="st2" d="M371.9,290.3l-56.1,8.1c-21.1,6-43.3,7.7-66.5,5.7l84.5,39.4l33.9,0.5c0,0,10.3,0,12.1-9
		c1.8-9.2,3.8-36.4,3.8-36.4S376.9,292.8,371.9,290.3z"/>
	<g class="st28">
		<path d="M371.8,313.9c0.9,5.6,1.3,11.3,1,17c3.5-3.8,5-9.1,4.2-14.2c-0.5-2.8-1.6-5.8-0.2-8.2c1-1.6,3.5-3.5,3.2-5.3
			c0,0-2.2,0-4.3-0.1c-1.6-0.1-5-0.2-5-0.2c1.7,4.4,1.6,7.2,0.9,11.1"/>
	</g>
	<path class="st2" d="M280.9,307.8c0,0-35.6-11.2-46.7-14.8c-19.2-6.2-31.8,0.1-35.8,7c-5.2,8.9,7.2,26.3,12,30.3
		c14.1,11.9,38.3,13.5,38.3,13.5l0,0l86.9-0.2l-25.4-34.4L280.9,307.8z"/>
	<path class="st16" d="M284.6,321.7c-14.5,1.7-29.1-0.3-42.6-5.8c-2.3-1-4.7-1.9-7.1-2.6c-2.4-0.6-4.9-0.8-7.3-0.5
		c-1.9,0.2-4,0.8-5.2,2.4c-1.7,2.3-0.8,5.5,0.1,8.2c1.1,3.2,2.3,6.4,4.5,9c2.6,3,6.3,4.7,10.1,5.8c7.3,2.3,15.1,3,22.8,3.3l26.4-1.4
		L284.6,321.7z"/>
	<path class="st29" d="M280.7,339.8c-0.7-0.6-1.4-1.2-1.9-2c-2.6-3.7-3.7-8.2-2.9-12.6c0.1-0.9,0.4-1.8,0.8-2.6c0.1,0-0.2,1-0.4,2.7
		c-0.5,4.3,0.5,8.7,2.8,12.4C280.1,339,280.8,339.8,280.7,339.8z"/>
	<path class="st29" d="M233.6,313.3c0.2,0.2,0.3,0.5,0.4,0.7c0.3,0.7,0.5,1.4,0.7,2.1c1.2,4.9-0.5,10.1-4.3,13.4
		c-0.6,0.5-1.2,0.9-1.8,1.3c-0.5,0.3-0.7,0.4-0.7,0.3c0,0,1-0.7,2.3-1.9c3.5-3.3,5.1-8.2,4.2-13C234,314.4,233.5,313.3,233.6,313.3z
		"/>
	<path class="st29" d="M280.4,326.1c-1.4,0.4-2.8,0.5-4.2,0.2c0-0.2,0.9-0.3,2.1-0.4C279.5,325.9,280.4,326,280.4,326.1z"/>
	<path class="st29" d="M279.6,332.3c0.1,0.1-0.5,0.5-1.2,0.5s-1.3-0.4-1.2-0.5c0.1-0.1,0.6-0.1,1.2-0.1S279.6,332.2,279.6,332.3z"/>
	<g id="doctor-body">
		<path class="st2" d="M331.1,220.3l-2.4-23.7c-0.3,0.2-4-0.4-4.8,1.6c-2,5-1.7,15.3-1.7,15.3s-3.2,23.3-2.8,23.7s0.7,18.4,0.7,18.4
			l0.8,36.9l0.8,6.7l4.3-30.3l30.9-75.7L331.1,220.3z"/>
		<path class="st16" d="M277.4,298.6c8.8,1.6,17.9-0.6,25.7-6.1l22.8-87.8c0,0-16.7,0.3-22.8,12.7c-2.8,4.6-19.2,42.2-19.2,42.2"/>
		<path class="st16" d="M391,217.2c-1.8-3.2-27.2-16-27.2-16l-6.3-10.1l-14.6,35.1l-16.9,43l-5.2,37.5l58-11.9
			C378.8,294.7,394.8,224,391,217.2z"/>
		<path class="st16" d="M320.7,251.4l-0.7-20.2l3.7-25.2c-0.1,0.1-3.5,4.9-3.5,4.9l-10.7,8.1c0,0-7.5,20.7-6.8,29.1l-5.2,54.1
			l30.8,5.3L320.7,251.4z"/>
		<polygon class="st16" points="320.5,269.8 310.3,239 320.2,218.8 322.6,208.7 320,236.9 		"/>
		<path class="st29" d="M314.6,251c0.1,2.5,0.1,5,0,7.5c-0.1,4.1-0.3,7.4-0.3,7.4c-0.1,0-0.1-3.3,0-7.5
			C314.4,254.2,314.6,251,314.6,251z"/>
		<path class="st30" d="M309.2,275.7c0.1,1.4,0.5,2.8,1.3,3.9c0.8,1.2,1.9,1.9,3.2,2c1.7,0.1,3.4-0.9,4.4-2.6
			c1.5-2.6,1.9-8,0.9-11.1c-0.7-2.2-2.4-4.2-4.4-4.2c-2.3,0-4.4,1.9-5,4.5"/>
		<path class="st29" d="M309.6,268.2c0.1-0.5,0.3-1.1,0.5-1.5c0.3-0.6,0.6-1.1,1.1-1.5c0.5-0.6,1.2-1.1,1.9-1.3
			c0.4-0.1,0.8-0.2,1.3-0.3c0.5,0,0.9,0,1.4,0.2c1,0.4,1.8,1.1,2.4,2c0.7,1,1.2,2.2,1.4,3.5c0.2,1.4,0.3,2.8,0.2,4.2
			c-0.1,2.2-0.7,4.3-1.7,6.1c-0.5,0.8-1.2,1.4-2.1,1.8c-0.7,0.4-1.5,0.5-2.3,0.5l0,0c-0.6,0-1.1-0.1-1.6-0.4c-0.4-0.3-0.8-0.6-1.2-1
			c-0.6-0.7-1-1.4-1.3-2.3c-0.2-0.5-0.3-1.1-0.4-1.7c0-0.2,0-0.4,0-0.5s0-0.2,0-0.2c0.1,0.8,0.3,1.5,0.5,2.3
			c0.3,0.8,0.7,1.6,1.3,2.2c0.3,0.4,0.7,0.7,1.2,0.9c0.5,0.3,1,0.4,1.5,0.4l0,0c1.6,0.1,3.1-0.7,4.1-2.2c1-1.8,1.6-3.8,1.6-5.9
			c0.2-2.8-0.1-5.6-1.5-7.4c-0.6-0.9-1.4-1.6-2.3-2c-0.4-0.2-0.9-0.2-1.3-0.2s-0.8,0.1-1.2,0.2c-0.7,0.2-1.3,0.7-1.9,1.2
			c-0.4,0.4-0.8,0.9-1.1,1.5C310,267.2,309.8,267.7,309.6,268.2z"/>
		<path class="st30" d="M307.7,275.9c0.1,1.4,0.5,2.8,1.3,4s1.9,1.9,3.2,2c1.7,0.1,3.4-0.9,4.4-2.6c1.5-2.6,1.9-8,0.9-11.1
			c-0.7-2.2-2.4-4.2-4.4-4.2c-2.3,0-4.4,1.9-5,4.5"/>
		<path class="st29" d="M308.2,268.3c0.1-0.5,0.3-1.1,0.5-1.5c0.3-0.6,0.6-1.1,1.1-1.5c0.9-1,2-1.5,3.2-1.6c0.5,0,0.9,0,1.4,0.2
			c1,0.4,1.8,1.1,2.4,2c0.7,1,1.2,2.2,1.4,3.5c0.2,1.4,0.3,2.8,0.2,4.2c-0.1,2.1-0.7,4.3-1.7,6.1c-0.5,0.8-1.3,1.4-2.1,1.8
			c-0.7,0.4-1.5,0.5-2.3,0.5l0,0c-0.6,0-1.1-0.1-1.6-0.4c-0.4-0.3-0.8-0.6-1.2-1c-0.6-0.7-1-1.4-1.3-2.3c-0.2-0.5-0.3-1.1-0.4-1.7
			c0-0.2,0-0.3,0-0.5c0-0.1,0-0.2,0-0.2c0.1,0.8,0.3,1.5,0.5,2.3c0.3,0.8,0.7,1.6,1.3,2.2c0.4,0.4,0.7,0.7,1.2,0.9
			c0.5,0.3,1,0.4,1.5,0.4l0,0c1.6,0.1,3.1-0.7,4.1-2.2c1-1.8,1.5-3.8,1.6-5.9c0.2-2.8-0.1-5.6-1.4-7.4c-0.6-0.9-1.4-1.6-2.3-1.9
			c-0.4-0.2-0.8-0.3-1.3-0.2c-0.4,0-0.8,0.1-1.2,0.2c-0.7,0.2-1.3,0.6-1.9,1.2c-0.4,0.4-0.8,0.9-1.1,1.5
			C308.6,267.3,308.3,267.8,308.2,268.3z"/>
		<path class="st30" d="M310.5,267.5c-1.4-0.2-2.7,0.7-3.3,2.2c-0.5,1.5-0.6,3.1-0.1,4.6c0.2,0.8,0.5,1.5,1,2c0.4,0.6,1.1,0.9,1.8,1
			c1-0.1,2-0.7,2.5-1.8c1-1.6,1.4-3.6,1-5.4c-0.2-1.2-1-2.5-2.1-2.5"/>
		<path class="st29" d="M311.3,267.7c0.1,0,0.2,0,0.2,0c0.2,0,0.5,0.1,0.7,0.3c0.7,0.5,1.2,1.4,1.3,2.4c0.3,1.4,0.1,3-0.5,4.3
			c-0.3,0.8-0.8,1.5-1.4,2.1c-0.7,0.6-1.5,0.9-2.4,0.7c-0.8-0.3-1.4-0.9-1.8-1.7c-0.4-0.7-0.6-1.6-0.7-2.4c-0.3-1.4,0-3,0.7-4.2
			c0.5-0.8,1.3-1.4,2.2-1.6c0.2,0,0.5,0,0.7,0h0.2c-0.3,0-0.6,0-0.9,0.1c-0.8,0.2-1.5,0.8-2,1.6c-0.7,1.2-0.9,2.7-0.6,4
			c0.1,0.8,0.4,1.6,0.7,2.3c0.4,0.8,0.9,1.3,1.7,1.6c0.7,0.2,1.5,0,2.1-0.6c0.6-0.5,1-1.2,1.3-1.9c0.6-1.3,0.7-2.7,0.5-4.1
			c-0.1-0.9-0.5-1.8-1.2-2.3C311.9,267.9,311.6,267.8,311.3,267.7z"/>
		<path class="st29" d="M313.3,279c0,0-0.1-0.2-0.3-0.5c-0.3-0.4-0.6-0.6-1-0.8c-0.4-0.1-0.8-0.2-1.3-0.2c-0.3-0.1-0.5-0.1-0.5-0.1
			s0.2-0.1,0.6-0.1c0.5-0.1,0.9,0,1.4,0.1c0.5,0.2,0.8,0.5,1.1,1C313.3,278.7,313.3,279,313.3,279z"/>
		<path class="st29" d="M314.1,266.5c0,0-0.1,0.3-0.4,0.5c-0.4,0.3-0.8,0.6-1.3,0.7s-0.9,0.1-1.4-0.1c-0.3-0.1-0.5-0.3-0.5-0.3
			c0.6,0.1,1.2,0.1,1.8,0C312.9,267.1,313.5,266.9,314.1,266.5z"/>
		<path class="st29" d="M342.6,282.8c1.7,0,3.1-1.8,4.8-1.6c1.3,0.2,2.1,1.5,1.9,3s-1.4,2.5-2.7,2.3c-1.7-0.3-2.6-2.8-4.2-3.3"/>
		<path class="st29" d="M356.6,285.2c-0.5,0-1-0.1-1.6-0.2l0.1-0.7c1.7,0.5,3.6,0.2,5.2-0.9c1.8-1.4,3.1-3.9,3.8-7.5v-0.1
			c0.3-1.4,2.7-29.9,3.1-35.3c0.7-8.4-5.6-9.9-5.9-10s-6-1.5-9.7,7.5c-4,9.5-10.5,27.8-11,30c0,0.3-0.1,0.6-0.2,1
			c-0.8,2.8-2.3,8.5,0.8,12c3.4,3.9,6.5,2.6,6.6,2.6l0.2,0.6c-0.1,0.1-3.5,1.5-7.2-2.7c-3.3-3.8-1.7-9.8-0.9-12.7
			c0.1-0.4,0.2-0.7,0.3-0.9c0.5-2.2,7.1-20.6,11-30.1c4-9.5,10.3-8,10.4-7.9c4.2,1.1,6.9,5.7,6.3,10.7c-0.3,4.4-2.8,33.9-3.1,35.4
			v0.1c-0.8,3.8-2.1,6.5-4.1,7.9C359.4,284.8,358,285.3,356.6,285.2z"/>
		<path class="st29" d="M367.2,246c-0.2-1.2-0.5-2.3-0.9-3.4c-1.2-2.5-3.2-4.4-5.6-5.2s-5-0.5-7.3,0.7c-1,0.5-1.9,1.2-2.7,2
			c0-0.1,0.1-0.1,0.1-0.2c0.1-0.2,0.3-0.3,0.5-0.5c0.6-0.6,1.3-1.1,2-1.5c1.1-0.6,2.2-1,3.3-1.1c1.4-0.2,2.8-0.1,4.2,0.3
			c1.3,0.5,2.6,1.2,3.6,2.3c0.8,0.9,1.5,1.9,2,3.1c0.3,0.8,0.6,1.6,0.7,2.5c0,0.2,0.1,0.5,0.1,0.7
			C367.2,245.8,367.2,245.9,367.2,246z"/>
		<polygon class="st16" points="363.8,201.1 345.5,245.5 326,269.1 357.5,191 		"/>
		<path class="st29" d="M326,269.1c0.6-0.5,1.1-1.1,1.5-1.7l4.1-4.8l14.2-16.9l0,0v-0.1c1.7-4.1,3.6-8.6,5.5-13.3
			c5.1-12.3,9.6-23.3,12.7-31.1l0.1-0.2l-0.1-0.1l-4.7-7.4l-1.3-2c-0.1-0.2-0.3-0.5-0.5-0.6c0.1,0.3,0.2,0.5,0.4,0.8l1.2,2.1
			l4.5,7.5V201c-3.2,7.7-7.8,18.7-12.9,31l-5.5,13.3l0.1-0.1c-5.6,6.9-10.4,12.8-14,17.1l-4,5C326.8,267.8,326.4,268.4,326,269.1z"
			/>
		<path class="st29" d="M323.6,277.1c-0.1-0.8-0.4-1.6-0.6-2.3l-2-6.2c-1.7-5.3-4.2-12.5-7-20.7v0.3c0.3-1.2,0.6-2.4,0.9-3.7
			c2.2-9.6,4.2-18.2,5.6-24.5c0.7-3,1.2-6.5,1.6-8.5c0.2-0.9,0.4-1.8,0.5-2.8c-0.3,0.9-0.6,1.7-0.8,2.7c-0.5,1.9-1.1,5.4-1.9,8.4
			c-1.5,6.2-3.6,14.9-5.8,24.5c-0.3,1.3-0.6,2.5-0.9,3.7v0.2v0.1c2.8,8.2,5.4,15.4,7.2,20.6l2.2,6.1
			C322.9,275.7,323.2,276.4,323.6,277.1z"/>
		<path class="st29" d="M362.6,200.2c0.8,0.6,1.4,1.5,1.8,2.6v0.1c1.3,3.5,0.6,8.4,0,12.7l-0.1,0.8c-0.8,4.6-1.8,9.1-3.1,13.5l3,1
			l-1.5-0.5l1.5,0.5c1.4-4.6,2.5-9.3,3.3-14.1l0.1-0.8c0.7-4.8,1.5-10.3-0.2-14.8v-0.1c-0.8-2-2.2-3.5-3.9-4.4l0,0
			c-0.5-0.2-1.1-0.2-1.7,0l-0.6,0.2L362.6,200.2"/>
		<path class="st29" d="M320.8,306.7c0-0.5,0-1,0.1-1.5c0.1-0.9,0.3-2.4,0.5-4.1c0.4-3.4,1.1-8.2,1.8-13.4c0.8-5.2,1.4-9.9,2-13.4
			c0.2-1.7,0.5-3,0.6-4.1c0-0.5,0.1-1,0.3-1.5c0,0.5,0,1-0.1,1.5c-0.1,1-0.3,2.4-0.5,4.1c-0.4,3.4-1.1,8.2-1.8,13.4s-1.4,9.9-2,13.4
			c-0.2,1.7-0.4,3-0.6,4.1C321,305.7,320.9,306.2,320.8,306.7z"/>
		<g id="doctor-hand">
			<path class="st31" d="M309.5,286.6l51,1.2l13.2,3.6c0,0-0.5,16.6-4.6,18.6c-4.2,2.1-64.8-11.2-64.8-11.2L309.5,286.6z"/>
			<path class="st9" d="M280.5,286.2c0.2,0.8,0.8,1.5,1.5,1.6c0.2,0,0.3,0,0.5,0c1.2-0.1,1.6-2.5,1.6-2.5l5.3,0.4
				c0,0,5.6,6.4,7.2,10.1s8.3,2.8,8.3,2.8l4.9-11.3l-7.3-11.7c0,0,0.5,0.7,0.2-1.2c-0.2-1.9-3.4-2-3.4-2c-0.3-1-2.1-1.8-2.1-1.8
				l-8.5-1.1c-1.8-0.2-3.5,0.4-4.8,1.7l-4.9,5.1c0,0-2.9,3.8-2.8,4.9c0.1,1,0.8,1.7,1.7,1.7c0,0-0.3,2.9,0.4,3.2
				C279.1,286.4,279.8,286.4,280.5,286.2L280.5,286.2z"/>
			<path class="st14" d="M300.1,282.3c0,0.1-1.1-0.3-2.9-0.7c-2.3-0.5-4.7-0.6-7.1-0.4c-1.3,0.1-2.6,0.4-3.9,0.7
				c-1.1,0.4-2.3,0.6-2.8,1.3c-0.2,0.3-0.3,0.7-0.2,1.1c0.1,0.3,0.3,0.5,0.5,0.7c0.2,0.1,0.4,0.2,0.7,0.3c0,0-0.3,0.2-0.8-0.2
				c-0.3-0.2-0.5-0.5-0.7-0.8c-0.2-0.5-0.1-1,0.1-1.5c0.3-0.5,0.8-0.8,1.3-1s1.1-0.4,1.7-0.6c1.3-0.4,2.6-0.6,3.9-0.8
				c2.4-0.2,4.9,0,7.2,0.6C298.2,281.4,299.2,281.8,300.1,282.3z"/>
			<path class="st14" d="M299.3,288.2c0,0.2-3.4-0.9-7.6-1.7c-4.2-0.8-7.7-1.1-7.7-1.3c0.8-0.1,1.5-0.1,2.3,0
				c1.8,0.1,3.7,0.4,5.5,0.7c1.8,0.3,3.6,0.8,5.3,1.4C297.9,287.5,298.6,287.8,299.3,288.2z"/>
			<path class="st14" d="M280.6,286c0-0.3,0.1-0.7,0.2-1c0.2-0.9,0.4-1.8,0.6-2.6c0.2-0.6,0.4-1.2,0.7-1.8c0.3-0.7,0.8-1.3,1.3-1.7
				c1.1-1.1,2.5-2,3.9-2.6s2.9-1,4.5-1.1c1.2-0.1,2.5,0.1,3.7,0.3c1,0.2,1.9,0.5,2.4,0.6c0.3,0.1,0.6,0.2,0.9,0.3
				c-1.1-0.1-2.2-0.3-3.4-0.6c-1.2-0.2-2.4-0.3-3.6-0.2c-1.5,0.2-2.9,0.6-4.3,1.1c-1.4,0.6-2.7,1.4-3.8,2.5c-0.9,0.9-1.6,2-1.9,3.2
				C280.9,284.7,280.7,286.1,280.6,286z"/>
			<path class="st14" d="M296.3,272.9c0,0.1-1.3-0.2-3.3-0.5c-2-0.2-5.1-0.8-7.5,1.6c-2.2,1.7-4.1,3.7-5.8,5.9c-0.6,1-1.1,2-1.6,3.1
				c0-0.3,0.1-0.7,0.2-1c0.3-0.9,0.6-1.7,1.1-2.4c1.6-2.4,3.6-4.5,5.8-6.2c0.6-0.5,1.3-1,2-1.3s1.4-0.5,2.2-0.5
				c1.2,0,2.4,0.1,3.7,0.3C294.2,272.1,295.3,272.4,296.3,272.9z"/>
			<path class="st14" d="M295.3,293.5c-0.1-0.2-0.3-0.3-0.4-0.5l-1.1-1.6c-1.4-1.9-2.9-3.7-4.5-5.5h0.1l-5.3-0.4l0.2-0.2
				c-0.1,0.5-0.2,0.9-0.4,1.3c-0.2,0.5-0.5,0.9-0.9,1.2c-0.2,0.1-0.5,0.2-0.8,0.2c-0.2,0-0.5,0-0.7-0.1c-0.5-0.2-0.9-0.6-1.1-1.1
				c-0.1-0.1-0.1-0.3-0.1-0.4v-0.1l0,0l0,0l0,0l0.3,0.2l0,0h-0.2l-0.7,0.1c-0.2,0-0.5,0-0.8,0c-0.1,0-0.3,0-0.4-0.1
				c-0.2,0-0.3-0.1-0.5-0.2c-0.2-0.2-0.3-0.5-0.3-0.9c0-0.3-0.1-0.6-0.1-0.8c0-0.6,0-1.1,0-1.7l0.2,0.3c-0.8,0-1.4-0.5-1.8-1.2
				c-0.2-0.4-0.2-0.8-0.1-1.2c0.1-0.3,0.3-0.7,0.4-1c0.7-1.3,1.5-2.5,2.4-3.6l0,0l0,0l2.6-2.7l1.7-1.8c0.5-0.6,1.1-1.1,1.8-1.6
				c0.7-0.4,1.4-0.7,2.2-0.9c0.7-0.1,1.5-0.1,2.2,0.1l8,1.1h0.1c0.4,0.2,0.9,0.5,1.3,0.7c0.4,0.3,0.8,0.7,1,1.2l-0.3-0.2
				c1-0.2,1.9,0.1,2.6,0.8c0.6,0.7,0.8,1.7,0.8,2.6v-0.1l5,8l1.3,2.2c0.2,0.2,0.3,0.5,0.4,0.8c-0.2-0.2-0.4-0.5-0.5-0.7l-1.4-2.1
				l-5.2-7.9v-0.1v-0.1c0-0.8-0.2-1.6-0.7-2.3c-0.6-0.6-1.4-0.9-2.2-0.7h-0.2l-0.1-0.2c-0.2-0.4-0.5-0.7-0.8-0.9
				c-0.4-0.3-0.8-0.5-1.2-0.7h0.1l-8-1c-0.7-0.1-1.4-0.2-2.1-0.1s-1.4,0.4-2,0.8s-1.2,1-1.7,1.5l-1.8,1.6l-2.6,2.7l0,0
				c-0.8,1.1-1.6,2.3-2.3,3.5c-0.2,0.3-0.3,0.6-0.4,0.9s-0.1,0.6,0.1,0.8c0.2,0.5,0.7,0.9,1.3,0.9h0.3v0.3c0,0.5-0.1,1.1,0,1.6
				c0,0.5,0.1,0.9,0.3,1.3c0.1,0,0.1,0,0.2,0s0.2,0,0.3,0.1c0.2,0,0.5,0,0.7,0s0.5,0,0.7-0.1h0.2l0,0l0.3,0.2l0,0l0,0l0,0v0.1
				c0,0.1,0.1,0.2,0.1,0.3c0.2,0.4,0.5,0.7,0.8,0.9c0.2,0.1,0.4,0.1,0.6,0.1s0.4,0,0.5-0.1c0.6-0.6,1-1.3,1.1-2.2v-0.2h0.2l5.3,0.5
				h0.1l0,0c1.6,1.8,3,3.6,4.4,5.6c0.5,0.7,0.8,1.2,1,1.6C295,293,295.2,293.3,295.3,293.5z"/>
		</g>
		<path class="st16" d="M307.8,282.6l-3,21.3l71.1,11.4c7.2,1.2,14.1-4.7,15.4-13.2c0.1-0.5,0.1-1,0.2-1.6
			c0.4-5.3,0.8-11.4,1.2-17.8c0.6-9.9,3.3-37.2,3.7-52.9c0.2-7.6-3.9-14.2-10.2-16.1c-0.7-0.2-1.4-0.4-2.1-0.4
			c-8.1,0-12.7,8.5-14.2,19.1c-1.3,8.7-7.3,49.7-7.3,49.7L307.8,282.6z"/>
		<path class="st29" d="M388.1,310.1l-0.3,0.4c-0.3,0.4-0.6,0.7-0.9,1.1c-1.3,1.3-2.7,2.2-4.3,2.8c-2.5,0.9-5.1,1.2-7.7,1
			c-3-0.4-6.4-1-10.2-1.5l-59.9-9.5h-0.2v-0.2c0.7-5,1.5-10.3,2.2-15.7c0.3-2.1,0.6-4.2,0.9-6.2v-0.2h0.2l54.7,0.3l-0.2,0.2
			c1.9-13.6,3.4-24.9,4.5-32.7c0.5-3.9,1-6.9,1.2-9c0.2-1,0.3-1.8,0.3-2.4c0.1-0.5,0.1-0.8,0.1-0.8s0,0.3-0.1,0.8
			c0,0.5-0.2,1.3-0.3,2.4c-0.3,2.1-0.7,5.1-1.2,9c-1,7.8-2.5,19-4.3,32.7v0.2h-0.1l-54.8-0.3l0.2-0.2c-0.3,2.1-0.6,4.1-0.9,6.2
			c-0.8,5.4-1.5,10.7-2.2,15.7l-0.2-0.3l59.9,9.7c3.8,0.6,7.2,1.2,10.1,1.6c2.6,0.3,5.1,0,7.6-0.9c1.6-0.5,3-1.5,4.3-2.7
			c0.3-0.3,0.6-0.7,0.9-1C387.9,310.3,388,310.2,388.1,310.1z"/>
		<path class="st29" d="M367.2,294.8c-0.1,0-0.8-3-2.1-6.6c-0.6-1.8-1.3-3.4-1.8-4.5c-0.3-0.6-0.7-1.1-1.2-1.4c0,0,0.2,0,0.5,0.1
			c0.4,0.3,0.7,0.6,1,1.1c0.8,1.4,1.4,2.9,1.9,4.5c0.6,1.5,1,3.1,1.4,4.7C367.1,293.4,367.2,294.1,367.2,294.8z"/>
		<path class="st29" d="M374.8,292.8c-0.1,0-0.5-0.8-1.4-2.1c-1.1-1.7-2.5-3.1-4-4.4c-1.5-1.2-3.1-2.3-4.9-3
			c-1.3-0.6-2.2-0.8-2.2-0.9c0.2,0,0.4,0,0.6,0.1c0.6,0.1,1.1,0.3,1.7,0.5c3.6,1.4,6.7,4,8.9,7.5c0.3,0.5,0.6,1.1,0.9,1.7
			C374.7,292.6,374.8,292.8,374.8,292.8z"/>
		<path class="st29" d="M292.2,270.6c0.1-2.1,0.4-4.3,0.8-6.4c0.3-2.1,0.7-4.2,1.2-6.3c-0.1,2.1-0.4,4.3-0.8,6.4
			C293.1,266.4,292.7,268.5,292.2,270.6z"/>
		<path class="st16" d="M316,182.2"/>
	</g>
	<path class="st2" d="M371.6,305.7c-2.1-5.8-2.4-14.4-15.1-18.6s-22.4,3.8-28.9,6.5c-6.5,2.8-42.3,22.4-42.3,22.4s-6.7,12-4.8,17.3
		c1.9,5.3,10.6,10.5,10.6,10.5h40c10.3,0,29.5-0.3,29.5-0.3c2.6-4.2,4.9-8.6,6.9-13.1l0.3-1.7C367.8,327.3,373.7,311.5,371.6,305.7z
		"/>
	<path class="st29" d="M349.4,335.1c0,0.2-0.1,0.4-0.3,0.5c-0.4,0.4-0.8,0.8-1.3,1.2c-1.8,1.2-3.7,2.3-5.7,3.2
		c-1.4,0.6-2.8,1.2-4.2,1.6c-1.6,0.5-3.3,0.9-5,1.1c-3.9,0.4-7.8,0.6-11.8,0.5c-8.3,0.1-15.9,0.5-21.3,0.4c-2.7,0-4.9-0.1-6.5-0.3
		c-0.6-0.1-1.2-0.1-1.7-0.2c-0.2,0-0.4-0.1-0.6-0.1c0,0,0.8,0.1,2.4,0.2c1.5,0.1,3.7,0.1,6.4,0.1c5.5,0,13-0.4,21.3-0.5
		c3.9,0.1,7.8-0.1,11.7-0.4c1.7-0.2,3.4-0.5,5-1c1.4-0.4,2.8-1,4.2-1.6c2-0.8,3.9-1.8,5.7-3c0.5-0.3,0.9-0.7,1.4-1.1
		C349.4,335.2,349.4,335,349.4,335.1z"/>
	<path class="st29" d="M291.1,343.8c-0.2-0.1-0.4-0.2-0.5-0.3c-0.3-0.2-0.8-0.5-1.5-0.9c-1.9-1.2-3.6-2.6-5.3-4.2
		c-1.2-1.1-2.2-2.4-3-3.8c-0.8-1.8-1-3.8-0.6-5.7c1-4.5,2.6-8.9,4.8-13v-0.1h0.1c6.5-3.6,14.1-7.7,22.3-12.1
		c4.1-2.2,8.4-4.5,12.8-6.8c2.2-1.1,4.5-2.3,6.8-3.4s4.6-2.3,6.9-3.5c3.2-1.8,6.7-3.1,10.3-3.9c1.8-0.4,3.6-0.5,5.4-0.5
		c5.2,0.2,10.2,2,14.4,5.1c1.3,1,2.4,2.3,3.3,3.6c0.9,1.3,1.6,2.7,2.2,4.2s1,2.9,1.4,4.4c0.5,1.4,0.8,2.8,1.1,4.2
		c0.2,2.7-0.1,5.5-0.7,8.2c-0.5,2.5-1.2,4.9-1.8,7.1c-0.3,1.1-0.6,2.2-0.9,3.2s-0.6,2-0.8,3l0,0c-0.1,0.6-0.2,1.2-0.4,1.7l0,0
		c-1.1,3.5-2.6,6.9-4.6,10c-0.7,1.1-1.5,2.1-2.4,3.1c0-0.1,0.1-0.1,0.2-0.2l0.5-0.6c0.6-0.8,1.2-1.6,1.7-2.4c1.9-3.1,3.4-6.5,4.4-10
		l0,0c0.1-0.5,0.2-1.1,0.3-1.7l0,0c0.2-1,0.5-2.1,0.8-3.1s0.6-2.1,0.9-3.2c0.6-2.2,1.2-4.6,1.7-7.1c0.6-2.6,0.8-5.3,0.6-8
		c-0.3-1.4-0.7-2.8-1.1-4.2c-0.4-1.4-0.8-2.9-1.4-4.3c-0.5-1.4-1.3-2.8-2.1-4.1c-0.9-1.3-2-2.5-3.2-3.5c-2.7-2-5.7-3.5-9-4.2
		c-1.7-0.4-3.4-0.7-5.1-0.7c-1.8,0-3.5,0.1-5.3,0.5c-3.6,0.8-7,2.1-10.2,3.8c-2.3,1.2-4.6,2.5-7,3.5s-4.6,2.2-6.8,3.4
		c-4.4,2.3-8.7,4.6-12.8,6.8l-22.3,12l0.1-0.1c-2.2,4-3.9,8.4-4.9,12.9c-0.4,1.8-0.3,3.8,0.5,5.5c0.8,1.4,1.7,2.7,2.9,3.8
		c1.6,1.6,3.3,3,5.2,4.2l1.4,1L291.1,343.8z"/>
	<path class="st16" d="M356.2,329c0,0,11.9,1.4,10.9,7.2c-1.1,5.8-5,7.8-5,7.8l-32.4,0.1C329.7,344.1,349,342.8,356.2,329z"/>
	<path class="st29" d="M357.3,326.2c0,0.6-0.1,1.1-0.4,1.7c-0.4,1.3-1.1,2.5-1.9,3.6c-1.1,1.6-2.7,2.8-4.6,3.5
		c-0.1-0.2,2.2-1.4,4.1-3.8S357.2,326.1,357.3,326.2z"/>
	<path class="st29" d="M353.2,328.5c0.2,0,0,2-1.2,4.1c-0.6,1.3-1.5,2.5-2.6,3.4c-0.1-0.1,1.1-1.6,2.1-3.7
		C352.6,330.3,353,328.4,353.2,328.5z"/>
	<path class="st29" d="M368.4,342.4c-0.1,0,0.7-1.5,1.6-4c2.4-6.5,3.2-13.6,2.3-20.5c-0.3-2.6-0.8-4.3-0.7-4.3
		c0.2,0.4,0.3,0.7,0.4,1.1c0.3,1,0.5,2.1,0.7,3.1c1.1,7,0.3,14.2-2.4,20.7c-0.4,1-0.9,2-1.4,2.9
		C368.8,341.8,368.6,342.1,368.4,342.4z"/>
	<g class="st28">
		<path d="M361.7,325.9c-0.1-0.8-0.4-1.7-1.2-1.9c-0.9-0.2-1.6,0.9-2,1.8c-4.1,9.5-17.5,16.9-27.9,17.9c5,0,10-0.4,15-1.2
			c4.2-0.7,8.1-2.5,11.3-5.2C360.2,334.3,361.9,330.2,361.7,325.9z"/>
	</g>
	<path class="st29" d="M282.8,312.9c-3.9-1.3-7.6-2.9-11.2-4.9c2,0.6,3.9,1.3,5.7,2.2C279.2,311,281,311.9,282.8,312.9z"/>
	<g class="st18">
		<path d="M294.3,307.9c-15.4-3-30.9-5.6-46.4-7.9l-11.6,3.7c3.2,6,9.7,9.9,16.3,11.5c6.7,1.6,13.6,1.2,20.4,0.6
			c7.5-0.7,15.2-1.7,21.8-5.5c0.5-0.3,1.1-0.7,1-1.3C295.7,308.4,294.9,308.1,294.3,307.9z"/>
	</g>
	<g>
		<path class="st0" d="M203.6,254.1l22.7,50.3c0.9,2.1,3,3.5,5.3,3.5l66.3,0.9l8.3-4.5l-13.1-1l-20.3-48.9c-0.7-1.6-2.2-2.6-3.9-2.6
			l-63.5-0.5c-1.1,0-2,0.9-2,2C203.4,253.6,203.4,253.8,203.6,254.1z"/>
	</g>
	<g id="doctor-head-nodding">
		<path class="st8" d="M351.6,190c5.2-3,9-9.5,10.1-15.5c1.1-6-1.7-17.6-3.8-23.3c-2.5-6.9-4.7,2.4-7,3.4c-1.4,0.6-2.3,2-2.6,3.5
			c-0.3,1.5-0.1,3,0.1,4.5C349.4,171.7,350.5,180.8,351.6,190"/>
		<path class="st8" d="M332.8,133.3c-9.5-4.1-16.6-0.6-19.9,2.4c-3.3,3.1-5.1,7.5-6.1,11.9s-1.1,9-1.8,13.4
			c-0.4,2.6-0.7,5.2-0.8,7.8c-0.2,3.8,0.5,10.5,2.7,13.6c2.1,3,4.3,5.6,7.6,7.4c1.2,0.6,2.5,1.3,3.7,0.8c0.9-0.4,1.4-1.2,1.9-2.1
			c8.7-15,15.2-31.2,19.2-48"/>
		<path class="st9" d="M343.8,143l-16.3-5l-4.1,0.8c-9.3,0.8-14.9,11.5-14.4,19.1c0.6,8.4,1.7,18.6,3.5,24.6
			c3.7,12.2,12.4,11.5,12.4,11.5s3.4,23.1,4.7,27.6l23-22.6l-4.2-52.1C348.1,144.6,346.1,142.9,343.8,143z"/>
		<path class="st13" d="M314.2,166.5c0.1,0.9,0.9,1.5,1.8,1.4c0.8,0,1.5-0.8,1.5-1.6c0,0,0,0,0,0c-0.1-0.9-0.9-1.5-1.8-1.4
			C314.9,164.9,314.2,165.6,314.2,166.5C314.2,166.5,314.2,166.5,314.2,166.5z"/>
		<path class="st13" d="M312.7,161.8c0.2,0.2,1.3-0.9,3-1.1s3.1,0.5,3.3,0.2c0.1-0.1-0.2-0.5-0.8-0.8c-0.8-0.4-1.7-0.6-2.6-0.4
			c-0.9,0.1-1.7,0.5-2.4,1.1C312.7,161.3,312.6,161.7,312.7,161.8z"/>
		<path class="st13" d="M324.4,174.5c0-0.1-1.1-0.1-2.9-0.1c-0.4,0-0.9,0-1-0.3c-0.1-0.4-0.1-0.9,0.1-1.3c0.3-1.1,0.6-2.3,0.9-3.5
			c1.2-5,1.9-9.1,1.7-9.1c-0.2,0-1.3,4-2.5,9c-0.3,1.2-0.5,2.4-0.8,3.5c-0.1,0.5-0.3,1.1,0,1.8c0.2,0.3,0.5,0.5,0.8,0.6
			c0.3,0,0.5,0,0.8,0C323.3,174.7,324.4,174.6,324.4,174.5z"/>
		<path class="st14" d="M324.9,194c5.9-0.7,12.5-2,17.1-5.7c0,0-4.1,9.2-16.8,9.7L324.9,194z"/>
		<path class="st14" d="M325.8,178.1c0.5-1,1.5-1.6,2.7-1.7c0.8-0.1,1.6,0.2,2.1,0.8c0.5,0.6,0.7,1.6,0.3,2.3
			c-0.5,0.8-1.4,1.3-2.3,1.1c-0.9-0.2-1.7-0.5-2.4-1.1c-0.2-0.1-0.4-0.3-0.6-0.5C325.5,178.8,325.6,178.4,325.8,178.1z"/>
		<path class="st13" d="M329.6,175c-0.3,0,0,1.9-1.5,3.4c-1.4,1.5-3.4,1.6-3.4,1.9c0,0.1,0.5,0.3,1.3,0.2c1.1-0.1,2.1-0.6,2.9-1.5
			c0.7-0.8,1.1-1.8,1.1-2.9C330,175.4,329.7,175,329.6,175z"/>
		<path class="st8" d="M312.5,157c0.4,0.3,1.5-0.2,2.9-0.4c1.4-0.2,2.7-0.1,2.9-0.5c0.1-0.2-0.1-0.6-0.7-0.9
			c-1.6-0.7-3.4-0.4-4.7,0.8C312.5,156.4,312.4,156.8,312.5,157z"/>
		<path class="st13" d="M332.8,164.8c0.1,0.9-0.5,1.7-1.4,1.8c-0.8,0.2-1.6-0.4-1.8-1.2c0,0,0,0,0,0c-0.1-0.9,0.5-1.7,1.4-1.8
			C331.8,163.3,332.6,163.9,332.8,164.8C332.8,164.8,332.8,164.8,332.8,164.8z"/>
		<path class="st13" d="M335.7,159.7c-0.2,0.2-1.5-0.6-3.2-0.4c-1.7,0.2-2.9,1.2-3.1,1c-0.1-0.1,0-0.5,0.6-0.9
			c0.7-0.6,1.6-0.9,2.5-1c0.9-0.1,1.8,0.1,2.6,0.6C335.6,159.2,335.8,159.6,335.7,159.7z"/>
		<path class="st8" d="M334.5,154.3c-0.3,0.4-1.5,0.1-2.9,0.2s-2.6,0.5-2.9,0.1c-0.1-0.2,0-0.6,0.5-1c1.4-1.1,3.2-1.2,4.7-0.3
			C334.4,153.7,334.6,154.1,334.5,154.3z"/>
		<path class="st13" d="M329.2,136.5c3.9-1.9,10-1.9,13.7,0.4c3.7,2.3,6.1,6.2,7.3,10.4c1.2,4.2,0.6,10.6-0.2,14.8
			c-7.2-7.8-14.7-16.9-21.6-24.9L329.2,136.5z"/>
		<path class="st8" d="M325.8,132.9c-22.2-1.3-17.4,31.8-17.4,31.8l0,0c1.2-12.4,17.1-26.6,17.1-26.6l3.4-0.9L325.8,132.9z"/>
		<path class="st31" d="M348.8,168.2c-0.1-0.9,0.7-3.3,1.6-3.5c2.4-0.7,6.8-1.1,7.7,5.1c1.2,8.5-7.6,7.9-7.6,7.7
			S349.2,171.4,348.8,168.2z"/>
		<path class="st15" d="M351.4,174c0,0,0.2,0.1,0.4,0.2c0.4,0.1,0.8,0.1,1.1-0.1c0.9-0.5,1.4-2,1.2-3.5c-0.1-0.7-0.3-1.4-0.7-2.1
			c-0.2-0.5-0.7-0.9-1.3-1c-0.4,0-0.7,0.2-0.8,0.5c-0.1,0.3,0,0.4,0,0.4s-0.2-0.1-0.2-0.5c0-0.2,0.1-0.4,0.3-0.6
			c0.2-0.2,0.5-0.3,0.8-0.3c0.7,0,1.4,0.5,1.7,1.1c0.5,0.7,0.8,1.5,0.8,2.3c0.2,1.7-0.5,3.4-1.6,4c-0.4,0.2-1,0.2-1.4,0
			C351.4,174.2,351.4,174,351.4,174z"/>
		<path class="st8" d="M357.1,146.9c-2.7-5.7-7.5-10.1-12.9-13.2c-2.9-1.7-6.1-3-9.5-3.1c-3.4-0.1-6.9,1.1-8.9,3.8l-0.6,0.7
			c4.5,8,7.7,14.9,13.2,22.3c2,2.7,3.6,12.4,4.3,15.7c2.4,11.3,9.1,15.7,9.1,15.7C365.4,187.6,359.8,152.6,357.1,146.9z"/>
		<path class="st10" d="M360.6,178.5c0,0,0-0.1,0-0.1l0-0.4c0-0.2,0-0.4,0-0.7l-0.1-1c-0.2-2-0.7-4.1-1.4-6c-1.1-2.9-2.5-5.6-4.3-8
			c-2.2-3-4.8-5.8-7.6-8.3c-2.9-2.7-5.8-5.1-8.4-7.4c-2.3-2-4.5-4.1-6.6-6.3c-1.4-1.5-2.7-3.1-3.9-4.8c-0.4-0.6-0.7-1.1-0.9-1.4
			l-0.2-0.4c0,0-0.1-0.1-0.1-0.1c0,0,0.1,0.1,0.1,0.1c0.1,0.1,0.1,0.2,0.2,0.4c0.2,0.3,0.5,0.8,1,1.4c1.2,1.7,2.5,3.3,3.9,4.7
			c2.1,2.2,4.3,4.3,6.6,6.3c2.6,2.3,5.5,4.7,8.5,7.4c2.8,2.5,5.3,5.3,7.6,8.3c1.8,2.5,3.3,5.2,4.3,8.1c0.7,1.9,1.1,4,1.3,6
			c0,0.4,0,0.7,0,1c0,0.3,0,0.5,0,0.7c0,0.2,0,0.3,0,0.4C360.6,178.4,360.6,178.5,360.6,178.5z"/>
		<path class="st10" d="M357.5,151.1c-0.2-0.4-0.4-0.8-0.6-1.2c-0.3-0.4-0.7-0.8-1.1-1.2c-0.6-0.5-1.2-0.8-1.8-1.1
			c-1.4-0.7-3.3-1.3-5.2-2.1s-4.1-1.7-6.3-2.8c-3.8-1.9-7.4-4-10.8-6.5c-1.3-0.9-2.3-1.7-3-2.3l-0.8-0.7c-0.1-0.1-0.2-0.2-0.3-0.2
			c0.1,0.1,0.2,0.1,0.3,0.2l0.8,0.6c0.7,0.6,1.8,1.3,3.1,2.2c3.4,2.4,7.1,4.5,10.8,6.4c2.2,1.1,4.3,2,6.3,2.8s3.8,1.4,5.2,2.1
			c0.7,0.3,1.3,0.7,1.8,1.2c0.4,0.4,0.8,0.8,1.1,1.2c0.1,0.2,0.2,0.3,0.3,0.5c0.1,0.1,0.1,0.3,0.2,0.4
			C357.4,150.9,357.5,151,357.5,151.1z"/>
		<path class="st10" d="M315.7,189.8l-0.2-0.1l-0.5-0.2c-0.6-0.3-1.2-0.7-1.7-1c-0.9-0.6-1.7-1.3-2.4-2c-1-1-1.9-2-2.7-3.2
			c-2.1-3-3.4-6.4-3.9-10.1c-0.5-4.4,0.1-8.9,1.8-13.1c0.9-2.1,2-4.2,3.3-6c1.3-1.7,2.6-3.4,4.1-4.9c1.4-1.5,2.8-2.8,4.1-4.1
			c1.3-1.3,2.4-2.5,3.5-3.6c1.6-1.8,3.1-3.8,4.3-5.9c0.2-0.4,0.4-0.7,0.5-1c0.1-0.3,0.3-0.6,0.3-0.8l0.2-0.5c0-0.1,0.1-0.1,0.1-0.2
			c0,0.1,0,0.1-0.1,0.2l-0.2,0.5c-0.1,0.2-0.2,0.5-0.3,0.8s-0.3,0.6-0.5,1c-1.2,2.1-2.6,4.1-4.2,6c-1,1.2-2.2,2.4-3.5,3.7
			c-1.3,1.3-2.6,2.7-4,4.1c-1.5,1.5-2.8,3.2-4.1,4.9c-1.3,1.9-2.4,3.9-3.3,6c-1.7,4.1-2.3,8.5-1.8,12.9c0.5,3.6,1.8,7,3.8,10
			c1.4,2,3.1,3.8,5.1,5.2c0.7,0.5,1.3,0.8,1.7,1.1l0.5,0.3C315.6,189.7,315.7,189.7,315.7,189.8z"/>
		<g>
			<path class="st8" d="M352.5,199c6.8-0.6,11.9-6.6,11.3-13.5c-0.2-2.3-1.1-4.6-2.5-6.4c-0.4-0.6-0.9-1-1.5-1.2
				c-1.3-0.4-2.6,0.8-3.5,1.8l-6.7,7.7"/>
			<path class="st10" d="M358.2,196.6c0,0,0.4-0.6,0.9-1.6c0.3-0.6,0.5-1.2,0.7-1.9c0.2-0.8,0.2-1.6,0.2-2.4c-0.1-1.5-0.4-3-1.1-4.3
				c-0.5-1-1-1.6-0.9-1.6c0.1,0.1,0.2,0.2,0.3,0.4c0.3,0.4,0.5,0.8,0.7,1.2c1.1,2.1,1.5,4.5,0.9,6.9c-0.2,0.7-0.4,1.3-0.7,1.9
				c-0.1,0.2-0.2,0.5-0.4,0.7c-0.1,0.2-0.2,0.3-0.3,0.5C358.5,196.4,358.3,196.5,358.2,196.6z"/>
			<path class="st10" d="M361.3,176.1c0,0.2-0.1,0.4-0.1,0.6c-0.1,0.4-0.3,0.9-0.5,1.6c-0.6,1.7-1.4,3.4-2.4,4.9
				c-0.6,0.8-1.2,1.6-1.9,2.4c-0.6,0.6-1.2,1.2-1.8,1.7c-0.4,0.4-0.9,0.7-1.3,1c-0.2,0.1-0.3,0.2-0.5,0.3c0,0,0.7-0.5,1.8-1.4
				c0.6-0.5,1.2-1.1,1.8-1.7c0.7-0.7,1.3-1.5,1.8-2.4c1-1.5,1.8-3.2,2.5-4.8c0.2-0.6,0.4-1.1,0.6-1.5
				C361.2,176.5,361.2,176.3,361.3,176.1z"/>
		</g>
	</g>
</g>
<line class="st32" x1="34.9" y1="164.2" x2="90.4" y2="164.2"/>
<line class="st33" x1="34.9" y1="183.8" x2="90.4" y2="183.8"/>
<line class="st32" x1="34.9" y1="203.3" x2="90.4" y2="203.3"/>
<line class="st32" x1="34.9" y1="222.9" x2="90.4" y2="222.9"/>
<line class="st32" x1="34.9" y1="242.4" x2="90.4" y2="242.4"/>
<line class="st34" x1="16.7" y1="164.2" x2="21.4" y2="164.2"/>
<line class="st35" x1="16.7" y1="183.8" x2="21.4" y2="183.8"/>
<line class="st34" x1="16.7" y1="203.3" x2="21.4" y2="203.3"/>
<line class="st34" x1="16.7" y1="222.9" x2="21.4" y2="222.9"/>
<line class="st34" x1="16.7" y1="242.4" x2="21.4" y2="242.4"/>
<g>
	<rect x="277.9" y="84.7" class="st36" width="9.7" height="22.3"/>
	<rect x="310.7" y="84.7" class="st36" width="9.7" height="22.3"/>
	<rect x="294.3" y="64.4" class="st37" width="9.7" height="42.5"/>
	<rect id="chart-bar-3" x="327.1" y="64.4" class="st37" width="9.7" height="42.5"/>
	<rect x="343.5" y="65.6" class="st36" width="9.7" height="41.3"/>
	<rect x="376.3" y="65.6" class="st36" width="9.7" height="41.3"/>
	<rect x="409.1" y="65.6" class="st36" width="9.7" height="41.3"/>
	<rect id="chart-bar-2" x="359.9" y="43.9" class="st37" width="9.7" height="63"/>
	<rect id="chart-bar-1" x="392.7" y="50.1" class="st37" width="9.7" height="56.8"/>
	<rect x="425.5" y="58.8" class="st36" width="9.7" height="48.1"/>
	<path class="st13" d="M436.5,63.1l-0.2-0.4c-0.2-0.3-0.4-0.7-0.7-1.3c-0.9-1.7-1.9-3.3-3-4.8c-0.7-1-1.5-2.1-2.5-3.3
		c-1.1-1.2-2.2-2.4-3.4-3.5c-1.4-1.3-2.9-2.4-4.5-3.3c-0.4-0.2-0.9-0.5-1.3-0.7c-0.5-0.2-0.9-0.4-1.4-0.6c-1-0.4-2-0.7-3.1-0.9
		s-2.2-0.4-3.4-0.4c-2.4,0-4.8,0.5-7,1.5c-1.1,0.5-2.2,1.2-3.4,1.8c-2.4,1.3-4.9,2.3-7.4,3.1c-2.8,0.7-5.7,1-8.5,0.9
		c-0.4,0-0.7,0-1.1,0s-0.7,0-1.1-0.1c-0.2,0-0.4,0-0.6-0.1l-0.5-0.1c-0.4-0.1-0.7-0.2-1.1-0.3c-1.4-0.5-2.9-1.1-4.2-1.7l-4.2-2.1
		c-1.4-0.7-2.9-1.3-4.4-1.7c-3.1-0.9-6.4-1.2-9.6-0.9c-1.6,0.2-3.3,0.6-4.7,1.3c-1.5,0.7-2.9,1.7-4.1,2.9c-2.3,2.4-4.4,5.1-6.1,7.9
		c-1.9,2.8-3.6,5.5-5.5,8.1c-1.8,2.6-3.9,4.9-6.2,7.1c-1.1,1-2.3,2-3.6,2.8c-1.2,0.8-2.5,1.6-3.9,2.2c-1.3,0.6-2.7,1.1-4.1,1.4
		c-0.7,0.2-1.4,0.3-2.1,0.4s-1.4,0.1-2.1,0.1c-2.7,0-5.4-0.6-7.8-1.9c-2.4-1.1-4.5-2.5-6.6-3.6s-4.3-1.7-6.6-2
		c-9.1-1.2-17.9,4-21.4,12.6l-0.3,0.8c-0.1,0.2-0.1,0.4-0.2,0.6l-0.2,0.5c0,0,0-0.2,0.1-0.5c0-0.2,0.1-0.4,0.2-0.6l0.3-0.8
		c1.8-4.6,5.3-8.4,9.7-10.7c5.8-2.9,12.6-2.8,18.3,0.1c2.2,1.1,4.3,2.4,6.6,3.6c2.4,1.2,5.1,1.9,7.8,1.9c0.7,0,1.4,0,2.1-0.1
		s1.4-0.2,2.1-0.4c1.4-0.3,2.8-0.8,4.1-1.4c1.3-0.6,2.6-1.3,3.9-2.2c1.3-0.8,2.4-1.8,3.5-2.8c2.3-2.2,4.3-4.6,6.1-7.2
		c1.9-2.6,3.6-5.3,5.4-8.1c1.7-2.9,3.8-5.5,6.1-7.9c1.2-1.2,2.6-2.2,4.1-2.9s3.1-1.1,4.8-1.3c3.3-0.3,6.5,0.1,9.7,0.9
		c1.5,0.4,3,1,4.4,1.8l4.2,2.1c1.4,0.7,2.8,1.3,4.2,1.7c0.4,0.1,0.7,0.2,1.1,0.3l0.5,0.1l0.5,0.1c0.4,0,0.7,0.1,1.1,0.1s0.7,0,1.1,0
		c2.9,0.1,5.7-0.2,8.5-0.9c2.6-0.8,5.1-1.8,7.4-3.1c1.2-0.6,2.3-1.3,3.4-1.8c2.2-1,4.6-1.6,7.1-1.5c1.1,0,2.3,0.2,3.4,0.4
		s2.1,0.6,3.1,1c0.5,0.2,0.9,0.4,1.4,0.7s0.9,0.5,1.3,0.7c1.6,1,3.2,2.1,4.6,3.4c1.2,1.1,2.4,2.3,3.4,3.5c0.9,1.2,1.8,2.3,2.5,3.3
		c1.1,1.6,2.1,3.2,3,4.9c0.3,0.6,0.5,1,0.7,1.3L436.5,63.1z"/>
	<path class="st2" d="M366.4,43c0,1.4-1.1,2.5-2.5,2.5s-2.5-1.1-2.5-2.5s1.1-2.5,2.5-2.5S366.4,41.7,366.4,43L366.4,43z"/>
	<path class="st2" d="M364,47.3c-2.5,0-4.5-2-4.5-4.5s2-4.5,4.5-4.5s4.5,2,4.5,4.5S366.5,47.3,364,47.3L364,47.3z M364,38.6
		c-2.3,0-4.2,1.9-4.2,4.2s1.9,4.2,4.2,4.2c2.3,0,4.2-1.9,4.2-4.2l0,0C368.2,40.5,366.3,38.6,364,38.6L364,38.6L364,38.6z"/>
	<path class="st2" d="M285.5,74.5c0,1.4-1.1,2.5-2.5,2.5s-2.5-1.1-2.5-2.5s1.1-2.5,2.5-2.5S285.5,73.1,285.5,74.5z"/>
	<path class="st2" d="M283,79.1c-2.5,0-4.5-2-4.5-4.5s2-4.5,4.5-4.5s4.5,2,4.5,4.5S285.5,79.1,283,79.1z M283,70.4
		c-2.3,0-4.2,1.9-4.2,4.2c0,2.3,1.9,4.2,4.2,4.2c2.3,0,4.2-1.9,4.2-4.2l0,0C287.2,72.3,285.3,70.4,283,70.4z"/>
	<circle class="st2" cx="429.5" cy="52.6" r="2.5"/>
	<path class="st2" d="M429.5,57.2c-2.5,0-4.5-2-4.5-4.5s2-4.5,4.5-4.5s4.5,2,4.5,4.5l0,0C434,55.1,432,57.2,429.5,57.2z M429.5,48.5
		c-2.3,0-4.2,1.9-4.2,4.1c0,2.3,1.9,4.2,4.1,4.2c2.3,0,4.2-1.9,4.2-4.1l0,0C433.7,50.4,431.8,48.5,429.5,48.5z"/>
</g>
<g class="st39">
	<g>
		<path class="st11" d="M11.9,35.8c0.1,0,0.2,0,0.3-0.1h0.1l0,0c-0.1,0.1-0.2,0.2-0.3,0.3l-0.1,0.1c0,0-0.1,0-0.1,0.1
			c-0.1,0.1-0.1,0.1-0.1,0.2c0,0.1,0.1,0.1,0.2,0.1c0,0,0,0,0.1,0h0.1l0,0c0.4-0.1,0.7-0.2,1.1-0.5c0.1-0.1,0.2-0.2,0.3-0.2
			s0.1-0.1,0.2-0.1l0.1-0.1l-0.1,0.1c0,0,0,0.1-0.1,0.1c-0.2,0.2-0.4,0.5-0.6,0.6l0,0c-0.1,0.1-0.1,0.1-0.1,0.2
			c0,0.1,0.1,0.1,0.2,0.1l0,0c0.3,0,0.5-0.1,0.8-0.2c0.5-0.3,0.8-0.7,1.1-1.2l0,0c0.1-0.1,0.1-0.2,0.3-0.2c0.6,0,1.1,0.1,1.7,0.4
			l0,0l0,0c-0.1,0.1-0.3,0.1-0.4,0.1l0,0c-0.4,0-0.8,0-1.3,0.1c-0.4,0.1-0.6,0.3-0.8,0.5c0,0,0,0,0,0.1c-0.1,0.1-0.1,0.2,0,0.2
			c0,0.1,0.1,0.1,0.2,0h0.1h0.1c0,0,0,0,0.1,0c0.7-0.1,1.3-0.1,2,0c0.2,0,0.3,0,0.5,0c1.4,0.1,2.5-0.1,3.5-0.6
			c0.5-0.2,0.9-0.5,1.3-0.9l0,0c0.1-0.1,0.1-0.1,0.1-0.2c0-0.1-0.1,0-0.2,0l0,0c-0.1,0-0.1,0.1-0.2,0.1S21.9,35,21.8,35
			c-0.9,0.4-1.8,0.5-2.7,0.2c-0.4-0.1-0.8-0.3-1.2-0.5c-0.1,0-0.1-0.1-0.2-0.1c-0.7-0.3-1.2-0.5-1.8-0.5c-0.3,0-0.4,0-0.5,0.3
			c-0.4,0.7-0.8,1.2-1.2,1.6c-0.2,0.2-0.4,0.3-0.7,0.4h-0.1l0,0c0,0,0,0,0-0.1c0,0,0,0,0-0.1c0.8-0.8,1.3-1.7,1.6-2.4
			c0.2-0.4,0.5-0.6,1-0.6c2.4,0,4.7,0.5,6.9,1.4H23c0.1,0,0.1,0.1,0.2,0.1c0,0,0,0,0.1-0.1v-0.1c0,0-0.1-0.1-0.2-0.1H23
			c-1.1-0.5-2.4-0.9-3.6-1.1c-1.5-0.3-2.8-0.4-4-0.3c-0.4,0-0.8,0.1-1.1,0.4c-0.3,0.3-0.6,0.5-0.9,0.7l0,0c-0.8,0.5-1.6,0.9-2.4,1.2
			l0,0c-0.1,0-0.1,0-0.1,0.1s0.1,0.1,0.1,0.2l0,0c0.2,0.1,0.4,0.1,0.6,0.1C11.6,35.9,11.7,35.9,11.9,35.8z M15.4,34.8
			c0-0.2,0.1-0.3,0.3-0.3s0.4,0,0.6,0.1c0.6,0.1,1.1,0.4,1.6,0.6c0.1,0.1,0.2,0.1,0.4,0.2c1,0.4,1.8,0.5,2.7,0.3h0.1l0,0h0.1
			l-0.1,0.1c-0.6,0.4-1.2,0.6-2,0.7c-0.3,0-0.7,0.1-1,0.1c-0.5,0-1,0-1.5-0.1h-0.1c-0.6,0-1,0-1.6,0.1h-0.1v-0.1
			c0.2-0.3,0.5-0.4,0.7-0.4c0.3-0.1,0.6-0.1,1-0.1c0.1,0,0.3,0,0.4,0s0.1,0,0.2,0s0.2,0,0.4,0c0.1,0,0.3,0,0.4,0.1
			c0.3,0.1,0.6,0.2,1,0.4l0,0c0.1,0,0.1,0,0.2,0c0,0,0,0,0-0.1v-0.1c0,0-0.1,0-0.1-0.1l0,0c-0.4-0.1-0.9-0.3-1.3-0.5
			c-0.2-0.1-0.5-0.2-0.7-0.3c-0.4-0.1-0.8-0.2-1.2-0.3c0,0,0,0-0.1,0s-0.1,0-0.2,0C15.4,34.9,15.4,34.8,15.4,34.8z M15,33.4L15,33.4
			c-0.4,1.3-2,2.8-3,2.9h-0.1H12C13.2,35.3,14.1,34.4,15,33.4L15,33.4z M11.2,35.7L11.2,35.7L11.2,35.7c1.3-0.6,2.2-1.1,3.1-1.8
			l0.1-0.1l-0.1,0.1c-0.6,0.9-1.9,1.8-2.8,1.8C11.3,35.7,11.2,35.7,11.2,35.7z"/>
		<path class="st11" d="M23.3,38.8L23.3,38.8c-0.2-0.1-0.4-0.1-0.6-0.1c-0.1,0-0.3,0-0.4,0.1c-0.1,0-0.2,0-0.3,0.1h-0.1l0,0
			c0.1-0.1,0.2-0.2,0.3-0.3l0.1-0.1c0,0,0.1,0,0.1-0.1c0.1-0.1,0.1-0.1,0.1-0.2c0-0.1-0.1-0.1-0.2-0.1c0,0,0,0-0.1,0h-0.1l0,0
			c-0.4,0.1-0.7,0.2-1.1,0.5c-0.1,0.1-0.2,0.2-0.3,0.2c-0.1,0-0.1,0.1-0.2,0.1L20.3,39l0.1-0.1c0,0,0-0.1,0.1-0.1
			c0.2-0.2,0.4-0.5,0.6-0.6l0,0c0.1-0.1,0.1-0.1,0.1-0.2c0-0.1-0.1-0.1-0.2-0.1l0,0c-0.3,0-0.5,0.1-0.8,0.2
			c-0.5,0.3-0.8,0.7-1.1,1.2l0,0c-0.1,0.1-0.1,0.2-0.3,0.2c-0.6,0-1.1-0.1-1.7-0.4l0,0l0,0c0.1-0.1,0.3-0.1,0.4-0.1l0,0
			c0.4,0,0.8,0,1.3-0.1c0.4-0.1,0.6-0.3,0.8-0.5c0,0,0,0,0-0.1c0.1-0.1,0.1-0.2,0-0.2c0-0.1-0.1-0.1-0.2,0h-0.1h-0.1c0,0,0,0-0.1,0
			c-0.7,0.1-1.3,0.1-2,0c-0.2,0-0.3,0-0.5,0c-1.4-0.1-2.5,0.1-3.5,0.6c-0.5,0.2-0.9,0.5-1.3,0.9l0,0c-0.1,0.1-0.1,0.1-0.1,0.2
			c0,0.1,0.1,0,0.2,0l0,0c0.1,0,0.1-0.1,0.2-0.1c0.1,0,0.1-0.1,0.2-0.1c0.9-0.4,1.8-0.5,2.7-0.2c0.4,0.1,0.8,0.3,1.2,0.5
			c0.1,0,0.1,0.1,0.2,0.1c0.7,0.3,1.2,0.5,1.8,0.5c0.3,0,0.4,0,0.5-0.3c0.4-0.7,0.8-1.2,1.2-1.6c0.2-0.2,0.4-0.3,0.7-0.4h0.1l0,0
			c0,0,0,0,0,0.1c0,0,0,0,0,0.1c-0.8,0.8-1.3,1.7-1.6,2.4c-0.2,0.4-0.5,0.6-1,0.6c-2.4,0-4.7-0.5-6.9-1.4h-0.1
			c-0.1,0-0.1-0.1-0.2-0.1c0,0,0,0-0.1,0.1v0.1c0,0,0.1,0.1,0.2,0.1h0.1c1.1,0.5,2.4,0.9,3.6,1.1c1.5,0.3,2.8,0.4,4,0.3
			c0.4,0,0.8-0.1,1.1-0.4c0.3-0.3,0.6-0.5,0.9-0.7l0,0c0.8-0.5,1.6-0.9,2.4-1.2l0,0c0.1,0,0.1,0,0.1-0.1
			C23.4,38.9,23.3,38.9,23.3,38.8z M18.7,39.8c0,0.2-0.1,0.3-0.3,0.3c-0.2,0-0.4,0-0.6-0.1c-0.6-0.1-1.1-0.4-1.6-0.6
			c-0.1-0.1-0.2-0.1-0.4-0.2c-1-0.4-1.8-0.5-2.7-0.3H13l0,0h-0.1L13,39c0.6-0.4,1.2-0.6,2-0.7c0.3,0,0.7-0.1,1-0.1
			c0.5,0,1,0,1.5,0.1h0.1c0.6,0,1,0,1.6-0.1h0.1v0.1c-0.2,0.3-0.5,0.4-0.7,0.4c-0.3,0.1-0.6,0.1-1,0.1c-0.1,0-0.3,0-0.4,0
			s-0.1,0-0.2,0s-0.2,0-0.4,0c-0.1,0-0.3,0-0.4-0.1c-0.3-0.1-0.6-0.2-1-0.4l0,0c-0.1,0-0.1,0-0.2,0c0,0,0,0,0,0.1v0.1
			c0,0,0.1,0,0.1,0.1l0,0c0.4,0.1,0.9,0.3,1.3,0.5c0.2,0.1,0.5,0.2,0.7,0.3c0.4,0.1,0.8,0.2,1.2,0.3c0,0,0,0,0.1,0s0.1,0,0.2,0
			C18.7,39.8,18.7,39.8,18.7,39.8z M19.1,41.2L19.1,41.2c0.4-1.3,2-2.8,3-2.9h0.1h-0.1C21,39.3,20,40.2,19.1,41.2L19.1,41.2z M23,39
			c-1.3,0.5-2.2,1.1-3.1,1.7l-0.1,0.1l0.1-0.1c0.6-0.9,1.9-1.8,2.8-1.8C22.8,38.9,22.9,38.9,23,39L23,39L23,39z"/>
	</g>
	<g>
		<g>
			<path class="st11" d="M27,39.4h2.3v1.1h-3.6V34H27V39.4z"/>
		</g>
		<g>
			<path class="st11" d="M35.6,37.7h-2v1.7H36v1.1h-3.7V34H36v1.1h-2.4v1.5h2V37.7z"/>
		</g>
		<g>
			<path class="st11" d="M43.1,39.8c-0.3,0.3-0.6,0.5-0.9,0.6c-0.4,0.1-0.8,0.2-1.2,0.2c-0.7,0-1.3-0.2-1.7-0.7s-0.6-1.1-0.6-2v-1.2
				c0-0.9,0.2-1.6,0.6-2.1c0.4-0.5,1-0.7,1.7-0.7s1.2,0.2,1.6,0.5s0.6,0.9,0.6,1.6h-1.3c0-0.4-0.1-0.7-0.3-0.8
				C41.5,35.1,41.3,35,41,35c-0.4,0-0.6,0.1-0.8,0.4C40,35.7,40,36.1,40,36.6v1.2c0,0.6,0.1,1,0.3,1.3s0.5,0.4,0.9,0.4
				c0.3,0,0.5-0.1,0.6-0.2l0.1-0.1V38H41v-1h2.2L43.1,39.8L43.1,39.8z"/>
		</g>
		<g>
			<path class="st11" d="M47.8,40.5h-1.3V34h1.3V40.5z"/>
		</g>
		<g>
			<path class="st11" d="M54.7,35.1h-1.6v5.4h-1.3v-5.4h-1.6V34h4.5C54.7,34,54.7,35.1,54.7,35.1z"/>
		</g>
		<g>
			<path class="st11" d="M56.1,39.9c0-0.2,0.1-0.4,0.2-0.5c0.1-0.1,0.3-0.2,0.5-0.2s0.4,0.1,0.5,0.2s0.2,0.3,0.2,0.5
				s-0.1,0.4-0.2,0.5c-0.1,0.1-0.3,0.2-0.5,0.2s-0.4-0.1-0.5-0.2C56.2,40.2,56.1,40.1,56.1,39.9z"/>
		</g>
		<g>
			<path class="st11" d="M64.8,40.5h-1.3v-2.8h-1.9v2.8h-1.3V34h1.3v2.6h1.9V34h1.3V40.5z"/>
		</g>
		<g>
			<path class="st11" d="M71.1,37.7h-2v1.7h2.4v1.1h-3.7V34h3.7v1.1h-2.4v1.5h2V37.7z"/>
		</g>
		<g>
			<path class="st11" d="M77.1,39.2h-1.8L75,40.5h-1.4l2-6.5h1.2l2,6.5h-1.4L77.1,39.2z M75.6,38.1h1.2l-0.6-2.3L75.6,38.1z"/>
		</g>
		<g>
			<path class="st11" d="M82.4,39.4h2.3v1.1h-3.6V34h1.3C82.4,34,82.4,39.4,82.4,39.4z"/>
		</g>
		<g>
			<path class="st11" d="M90.6,35.1H89v5.4h-1.3v-5.4h-1.6V34h4.5V35.1z"/>
		</g>
		<g>
			<path class="st11" d="M97.6,40.5h-1.3v-2.8h-1.9v2.8h-1.3V34h1.3v2.6h1.9V34h1.3V40.5z"/>
		</g>
	</g>
</g>
<line class="st6" x1="441.4" y1="188.4" x2="389.5" y2="341.2"/>
<path id="Top_BG_1_" class="st3" d="M461.4,22.4H0V2.7C0,1.2,1.2,0,2.7,0h456.1c1.5,0,2.7,1.2,2.7,2.7v19.7H461.4z"/>
<g id="Dots">
	<circle class="st27" cx="9.9" cy="11.2" r="2.5"/>
	<circle class="st24" cx="18.3" cy="11.2" r="2.5"/>
	<circle class="st2" cx="26.8" cy="11.2" r="2.5"/>
</g>
<g id="Previous">
	<path class="st16" d="M46.8,16.9h-7.5c-1.1,0-2-0.9-2-2V7.4c0-1.1,0.9-2,2-2h7.5c1.1,0,2,0.9,2,2v7.5C48.8,16,47.9,16.9,46.8,16.9z
		"/>
</g>
<g id="Next">
	<path class="st16" d="M52,5.5h7.5c1.1,0,2,0.9,2,2V15c0,1.1-0.9,2-2,2H52c-1.1,0-2-0.9-2-2V7.4C50,6.3,50.9,5.5,52,5.5z"/>
	<path class="st41" d="M55,13.8c0.9-0.8,1.9-1.6,2.8-2.4c0.1-0.1,0.1-0.4,0-0.5C56.9,10.1,56,9.3,55,8.5c-0.3-0.3-0.8,0.2-0.5,0.5
		c0.9,0.8,1.9,1.6,2.8,2.4c0-0.2,0-0.3,0-0.5c-0.9,0.8-1.9,1.6-2.8,2.4C54.3,13.7,54.7,14.1,55,13.8L55,13.8z"/>
	<path class="st11" d="M44.3,8.5c-0.9,0.8-1.9,1.6-2.8,2.4c-0.1,0.1-0.1,0.4,0,0.5c0.9,0.8,1.9,1.6,2.8,2.4c0.3,0.3,0.8-0.2,0.5-0.5
		c-0.9-0.8-1.9-1.6-2.8-2.4c0,0.2,0,0.3,0,0.5c0.9-0.8,1.9-1.6,2.8-2.4C45.1,8.7,44.6,8.2,44.3,8.5L44.3,8.5z"/>
</g>
<g id="Sidebar">
	<path class="st16" d="M68.7,5.5h12.6c1.1,0,2,0.9,2,2V15c0,1.1-0.9,2-2,2H68.7c-1.1,0-2-0.9-2-2V7.4C66.7,6.3,67.6,5.5,68.7,5.5z"
		/>
	<path class="st11" d="M78.5,13.9h-6.8c-0.2,0-0.3-0.1-0.3-0.3V8.5c0-0.2,0.1-0.3,0.3-0.3h6.8c0.2,0,0.3,0.1,0.3,0.3v5.1
		C78.8,13.8,78.6,13.9,78.5,13.9z M71.8,13.5h6.6V8.6h-6.6V13.5z"/>
	<rect x="73.7" y="8.6" class="st11" width="0.4" height="5.3"/>
	<g>
		<rect x="72.4" y="10.2" class="st11" width="0.7" height="0.3"/>
		<rect x="72.4" y="9.2" class="st11" width="0.7" height="0.3"/>
		<rect x="72.4" y="11.2" class="st11" width="0.7" height="0.3"/>
	</g>
</g>
<g id="Tabs">
	<path class="st16" d="M440.2,5.5h12.6c1.1,0,2,0.9,2,2V15c0,1.1-0.9,2-2,2h-12.6c-1.1,0-2-0.9-2-2V7.4
		C438.2,6.3,439.1,5.5,440.2,5.5z"/>
	<g>
		<path class="st11" d="M449,12.6h-0.8v-0.4h0.7V8.9h-3.2v0.6h-0.4V8.8c0-0.2,0.1-0.3,0.3-0.3h3.4c0.2,0,0.3,0.1,0.3,0.3v3.4
			C449.3,12.4,449.1,12.6,449,12.6z"/>
		<path class="st11" d="M447.5,13.9h-3.4c-0.2,0-0.3-0.1-0.3-0.3v-3.4c0-0.2,0.1-0.3,0.3-0.3h3.4c0.2,0,0.3,0.1,0.3,0.3v3.4
			C447.9,13.8,447.7,13.9,447.5,13.9z M444.2,13.5h3.2v-3.2h-3.2V13.5z"/>
	</g>
</g>
<path id="Address_Bar" class="st16" d="M363.8,17.1H123.5c-1.1,0-2-0.9-2-2V7.3c0-1.1,0.9-2,2-2h240.4c1.1,0,2,0.9,2,2v7.8
	C365.8,16.2,364.9,17.1,363.8,17.1z"/>
<g>
	<g>
		<path class="st11" d="M129.2,14.4c-0.6,0-1.3,0-1.9,0c-0.4,0-0.7-0.2-0.8-0.5c0-0.1,0-0.2,0-0.2c0-1.1,0-2.2,0-3.3
			c0-0.4,0.3-0.7,0.7-0.7c0.3,0,0.3,0,0.3-0.3c0-0.4,0-0.8,0.2-1.2c0.4-0.7,1.1-1,1.9-0.8c0.7,0.2,1.2,0.9,1.3,1.6
			c0,0.2,0,0.3,0,0.5s0,0.2,0.2,0.2s0.3,0,0.5,0.1s0.3,0.3,0.3,0.6c0,1.1,0,2.2,0,3.4c0,0.4-0.3,0.7-0.8,0.7
			C130.4,14.4,129.8,14.4,129.2,14.4z M129.2,9.7c0.3,0,0.6,0,0.9,0c0.1,0,0.2,0,0.1-0.1c0-0.2,0-0.4,0-0.6c0-0.5-0.5-0.9-1-0.9
			s-1,0.4-1,0.9c0,0.2,0,0.4,0,0.6c0,0.1,0.1,0.2,0.2,0.2C128.6,9.7,128.9,9.7,129.2,9.7z M129.2,12.6c0.4,0,0.6-0.3,0.6-0.6
			c0-0.4-0.3-0.6-0.6-0.6s-0.6,0.3-0.6,0.6C128.5,12.4,128.8,12.6,129.2,12.6z"/>
	</g>
</g>
<text transform="matrix(1 0 0 1 137.1323 13.698)" class="st29 st42 st43">https:</text>
<text transform="matrix(1 0 0 1 158.2323 13.698)" class="st29 st42 st43">/</text>
<text transform="matrix(1 0 0 1 160.4323 13.698)" class="st29 st42 st43">/</text>
<text transform="matrix(1 0 0 1 163.6323 13.698)" class="st29 st42 st43">app.legit.health</text>
<g id="ponnytail">
	<g class="st28">
		<path d="M326.9,245.5c3.4-2.5,5.1-6.6,4.5-10.7c-0.3-2.1-1.3-4-1.5-6c-0.3-2.2,0.3-4.4,0.6-6.5c0.3-2.2,0.4-4.5-0.7-6.4
			c-0.6-1.1-1.5-2-1.7-3.2c-0.2-1.2,0.3-2.2,0.5-3.4c0.3-2.1-0.4-4.2-1.9-5.7c-0.4-0.4-1.1-0.8-1.6-0.4c-0.3,0.3-0.5,0.7-0.5,1.1
			c-1.5,10.1-3.1,20.4-0.6,30.3c1,3.8,2.5,7.5,2.6,11.3"/>
	</g>
	<path class="st8" d="M328.6,218.9c-0.4-1.5-1.5-2.7-1.6-4.2c-0.1-1.2,0.5-2.3,0.7-3.5c1.3-3.8,0.3-6.1-1.2-8.3
		c-0.1-2.4-1.2-6.8-1.2-6.8c-3.3-0.8-6.6,2.2-6.9,5.6c-3.8,1.2-6,5.3-4.8,9.1c0.4,1.4,1.3,2.6,2.5,3.5c-0.7,3.1-1.4,6.5-0.5,9.5
		s4.1,5.7,7.2,4.9c2.1-0.6,3.5-2.6,4.6-4.5C328.3,222.7,329,220.8,328.6,218.9z"/>
	<path class="st10" d="M324.9,202.3c-2.2-1-4.8-1.2-7.1-0.4c0.3-0.2,0.6-0.4,1-0.4c0.8-0.3,1.7-0.4,2.6-0.3c0.9,0,1.7,0.2,2.5,0.6
		C324.3,201.9,324.6,202,324.9,202.3z"/>
	<path class="st10" d="M324.5,216.6c-0.1,0.1-0.2,0.1-0.3,0.2c-0.3,0.1-0.6,0.2-0.9,0.3c-2.1,0.4-4.3,0-6-1.2
		c-0.3-0.2-0.5-0.4-0.7-0.6c-0.2-0.2-0.2-0.3-0.2-0.3c0,0,0.4,0.3,1.1,0.7c1.8,1.1,3.8,1.5,5.9,1.2
		C324,216.7,324.5,216.6,324.5,216.6z"/>
	<path class="st10" d="M326.4,214.6c0,0-0.4-0.8-1.1-2.1c-0.4-0.7-0.9-1.4-1.4-2.1c-0.6-0.8-1.3-1.6-2-2.3c-0.7-0.7-1.5-1.4-2.4-2
		c-0.7-0.5-1.4-0.9-2.1-1.3c-1.3-0.7-2.1-1-2.1-1c0.2,0,0.4,0.1,0.6,0.2c0.2,0.1,0.4,0.2,0.7,0.3s0.6,0.2,0.9,0.4
		c0.8,0.4,1.5,0.8,2.2,1.3c0.9,0.6,1.7,1.3,2.4,2c0.7,0.7,1.4,1.5,2.1,2.3c0.5,0.7,1,1.4,1.4,2.1c0.2,0.3,0.3,0.6,0.4,0.9
		c0.1,0.3,0.2,0.5,0.3,0.7C326.2,214.2,326.3,214.4,326.4,214.6z"/>
	<path class="st10" d="M324.7,200.3c-0.1,0-0.5-0.8-1.3-1.6s-1.6-1.3-1.6-1.3c0.7,0.2,1.3,0.6,1.8,1.1
		C324.2,199,324.5,199.6,324.7,200.3z"/>
	<path class="st44" d="M326.4,218.4c0,0-0.6,0.3-1.7,0.8c-1.3,0.7-2.6,1.5-3.7,2.4c-1.2,0.9-2.2,2-3.2,3.1c-0.7,0.9-1.1,1.5-1.2,1.4
		c0.1-0.2,0.1-0.3,0.2-0.4c0.2-0.3,0.4-0.7,0.8-1.1c0.9-1.2,2-2.2,3.1-3.2c1.2-0.9,2.4-1.7,3.8-2.4c0.5-0.2,0.9-0.4,1.3-0.5
		C326,218.5,326.2,218.4,326.4,218.4z"/>
	<path class="st10" d="M318.2,214.2c0-0.2,0-0.3,0-0.5c0.1-0.4,0.1-0.9,0.2-1.3c0.7-2.9,2.3-5.5,4.6-7.5c0.3-0.3,0.7-0.6,1.1-0.8
		c0.1-0.1,0.3-0.2,0.4-0.2c0,0-0.5,0.4-1.4,1.2c-2.2,2-3.8,4.5-4.6,7.4C318.4,213.5,318.3,214.2,318.2,214.2z"/>
	<path class="st10" d="M323.8,225.9c-0.2-0.4-0.3-0.8-0.5-1.2c-0.7-1.9-2-3.7-3.5-5c-0.6-0.5-1-0.8-1-0.8c0.4,0.2,0.8,0.4,1.1,0.7
		c0.8,0.7,1.6,1.4,2.2,2.3c0.6,0.9,1.1,1.8,1.4,2.8C323.7,225.1,323.8,225.5,323.8,225.9z"/>
	<path class="st8" d="M327.7,231.4c-0.7-1.5-1.8-2.9-3.4-3.2l-5.3,1.2c-1.7,1.9-2.2,4.6-1.4,7c0.6,1.2,1.3,2.4,2.1,3.5
		c0.8,1.1,1.5,2.3,1.7,3.7c0.2,1.4-0.3,2.9-1.4,3.6c1.3-0.4,2.5-1.2,3.4-2.3c0.1,1.1-0.3,2.2-0.9,3.1c3.3-0.8,5.8-3.7,6.6-6.9
		C330,237.8,329.3,234.4,327.7,231.4z"/>
	<path class="st2" d="M327.6,226.7c-0.1-0.4-0.4-0.8-0.8-1c-0.6-0.2-1.3,0.3-1.8,0.7c-2,1.4-4.5,1.7-6.8,1l-0.1,0
		c-0.5,0.3-0.8,0.8-0.9,1.3c0,0.5,0.2,0.9,0.6,1.3c0.7,0.8,1.7,1.3,2.8,1.5c1.1,0.1,2.2,0,3.2-0.3c1.1-0.2,2.1-0.7,2.9-1.5
		C327.5,228.9,327.9,227.8,327.6,226.7z"/>
</g>
</svg>
