<?xml version="1.0" encoding="utf-8"?>
<!-- Generator: Adobe Illustrator 25.0.0, SVG Export Plug-In . SVG Version: 6.00 Build 0)  -->
<svg version="1.1" xmlns:svgjs="http://svgjs.com/svgjs"
	 xmlns="http://www.w3.org/2000/svg" xmlns:xlink="http://www.w3.org/1999/xlink" x="0px" y="0px" width="454.7px" height="348.1px"
	 viewBox="0 0 454.7 348.1" style="enable-background:new 0 0 454.7 348.1;" xml:space="preserve">
<style type="text/css">
	.sd89savfa0{fill:#E6E6E6;}
	.sd89savfa1{fill:#595C68;}
	.sd89savfa2{font-family:'Roboto-Bold';}
	.sd89savfa3{font-size:16.2122px;}
	.sd89savfa4{font-family:'Roboto-Regular';}
	.sd89savfa5{font-size:17.9188px;}
	.sd89savfa6{fill:#04AF65;}
	.sd89savfa7{fill:#E5EDEA;}
	.sd89savfa8{fill:none;stroke:#E6E6E6;stroke-width:0.8356;stroke-miterlimit:10;}
	.sd89savfa9{fill:none;stroke:#E6E6E6;stroke-width:0.8533;stroke-miterlimit:10;}
	.sd89savfa10{fill:#FFFFFF;}
	.sd89savfa13{opacity:0.3;}
	.sd89savfa14{fill:#0F824D;}
	.sd89savfa15{opacity:0.2;}
	.sd89savfa16{fill:#2A2A2D;}
	.sd89savfa17{fill:#FFBE9D;}
	.sd89savfa18{fill:#EB996E;}
	.sd89savfa19{fill:#EBEBEB;}
	.sd89savfa20{fill:#E0E0E0;}
	.sd89savfa21{fill:#AA6550;}

	#doctor-head-confirming {
		animation: agree 3s infinite;
		transform-origin: 66%;
	}

	@keyframes agree {
		0% { transform: rotateZ(0); }
		20% { transform: rotateZ(-4deg) translate(8px, 6px);}
		37% { transform: rotateZ(0); }
		50% { transform: rotateZ(-4deg) translate(8px, 6px);}
		100% { transform: rotateZ(0); }
	}

	#robot-floating {
		animation: float 6s infinite;
	}

	@keyframes float {
		0%, 100% {transform: translate(6px, 0px) scale(1.01);}
		25% {transform: translate(-6px, 6px) scale(.96));}
		50% {transform: translate(-6px, -6px) scale(1.01);}
		75% {transform: translate(6px, -6px);}
	}

</style>
<g>
	<g>
		<path class="sd89savfa0" d="M361.6,119.3v227.8H102.1V119.3H361.6 M362.5,118.4H101.2v229.5h261.3V118.4L362.5,118.4z"/>
	</g>
	<text transform="matrix(1 0 0 1 156.3317 147.5758)"><tspan x="0" y="0" class="sd89savfa1 sd89savfa2 sd89savfa3">Swelling</tspan><tspan x="0" y="21.3" class="sd89savfa1 sd89savfa4 sd89savfa5">None (0)</tspan></text>
	<text transform="matrix(1 0 0 1 156.3317 205.5758)"><tspan x="0" y="0" class="sd89savfa1 sd89savfa2 sd89savfa3">Crusting</tspan><tspan x="0" y="21.3" class="sd89savfa1 sd89savfa4 sd89savfa5">Mild (1)</tspan></text>
	<text transform="matrix(1 0 0 1 156.3317 266.3473)"><tspan x="0" y="0" class="sd89savfa1 sd89savfa2 sd89savfa3">Excoration</tspan><tspan x="0" y="21.3" class="sd89savfa1 sd89savfa4 sd89savfa5">Severe (2)</tspan></text>
	<path class="sd89savfa6" d="M362.5,81.3H101.2V33c0-6.8,5.5-12.2,12.2-12.2h236.8c6.8,0,12.2,5.5,12.2,12.2V81.3z"/>
	<rect x="101.2" y="81.3" class="sd89savfa7" width="261.3" height="37.2"/>
	<line class="sd89savfa8" x1="101.2" y1="181.7" x2="351.8" y2="181.7"/>
	<line class="sd89savfa8" x1="101.2" y1="239.5" x2="351.8" y2="239.5"/>
	<line class="sd89savfa9" x1="101.2" y1="300.7" x2="362.5" y2="300.7"/>
	<text transform="matrix(1 0 0 1 156.3317 48.4703)"><tspan x="0" y="0" class="sd89savfa10 sd89savfa2 sd89savfa3">A-SCORAD</tspan><tspan x="0" y="18.8" class="sd89savfa10 sd89savfa4 sd89savfa5">Automatic Scoring At...</tspan></text>
	<text transform="matrix(1 0 0 1 156.3317 106.4655)" class="sd89savfa6 sd89savfa2 sd89savfa5">Score: 28.5</text>
	<g>
		<g>
			<path class="sd89savfa1" d="M128,152.1c0-0.7,0.1-1.2,0.2-1.6c0.2-0.4,0.5-0.8,0.9-1.2c0.4-0.4,0.7-0.7,0.9-1c0.1-0.2,0.2-0.5,0.2-0.8
				c0-0.8-0.4-1.2-1.1-1.2c-0.4,0-0.6,0.1-0.9,0.3s-0.3,0.5-0.3,0.9h-2.1c0-0.9,0.3-1.7,0.9-2.2c0.6-0.5,1.4-0.8,2.4-0.8
				c1,0,1.8,0.2,2.4,0.7c0.6,0.5,0.9,1.2,0.9,2.1c0,0.4-0.1,0.8-0.3,1.2c-0.2,0.4-0.5,0.8-1,1.2l-0.6,0.6c-0.4,0.4-0.6,0.8-0.6,1.2
				l0,0.4H128z M127.8,154.4c0-0.3,0.1-0.6,0.3-0.8c0.2-0.2,0.5-0.3,0.8-0.3c0.3,0,0.6,0.1,0.8,0.3c0.2,0.2,0.3,0.5,0.3,0.8
				c0,0.3-0.1,0.6-0.3,0.8c-0.2,0.2-0.5,0.3-0.9,0.3c-0.4,0-0.6-0.1-0.9-0.3C127.9,155,127.8,154.7,127.8,154.4z"/>
		</g>
		<path class="sd89savfa1" d="M129.1,160c-5.5,0-9.9-4.5-9.9-9.9c0-5.5,4.5-9.9,9.9-9.9s9.9,4.5,9.9,9.9C139,155.5,134.6,160,129.1,160z
			 M129.1,141.7c-4.6,0-8.4,3.8-8.4,8.4c0,4.6,3.8,8.4,8.4,8.4c4.6,0,8.4-3.8,8.4-8.4C137.5,145.4,133.7,141.7,129.1,141.7z"/>
	</g>
	<g>
		<g>
			<path class="sd89savfa1" d="M128,212.7c0-0.7,0.1-1.2,0.2-1.6c0.2-0.4,0.5-0.8,0.9-1.2c0.4-0.4,0.7-0.7,0.9-1c0.1-0.2,0.2-0.5,0.2-0.8
				c0-0.8-0.4-1.2-1.1-1.2c-0.4,0-0.6,0.1-0.9,0.3s-0.3,0.5-0.3,0.9h-2.1c0-0.9,0.3-1.7,0.9-2.2c0.6-0.5,1.4-0.8,2.4-0.8
				c1,0,1.8,0.2,2.4,0.7c0.6,0.5,0.9,1.2,0.9,2.1c0,0.4-0.1,0.8-0.3,1.2c-0.2,0.4-0.5,0.8-1,1.2l-0.6,0.6c-0.4,0.4-0.6,0.8-0.6,1.2
				l0,0.4H128z M127.8,214.9c0-0.3,0.1-0.6,0.3-0.8c0.2-0.2,0.5-0.3,0.8-0.3c0.3,0,0.6,0.1,0.8,0.3c0.2,0.2,0.3,0.5,0.3,0.8
				c0,0.3-0.1,0.6-0.3,0.8c-0.2,0.2-0.5,0.3-0.9,0.3c-0.4,0-0.6-0.1-0.9-0.3C127.9,215.5,127.8,215.2,127.8,214.9z"/>
		</g>
		<path class="sd89savfa1" d="M129.1,220.5c-5.5,0-9.9-4.5-9.9-9.9c0-5.5,4.5-9.9,9.9-9.9s9.9,4.5,9.9,9.9
			C139,216.1,134.6,220.5,129.1,220.5z M129.1,202.2c-4.6,0-8.4,3.8-8.4,8.4c0,4.6,3.8,8.4,8.4,8.4c4.6,0,8.4-3.8,8.4-8.4
			C137.5,206,133.7,202.2,129.1,202.2z"/>
	</g>
	<g>
		<g>
			<path class="sd89savfa1" d="M128,272.8c0-0.7,0.1-1.2,0.2-1.6c0.2-0.4,0.5-0.8,0.9-1.2c0.4-0.4,0.7-0.7,0.9-1c0.1-0.2,0.2-0.5,0.2-0.8
				c0-0.8-0.4-1.2-1.1-1.2c-0.4,0-0.6,0.1-0.9,0.3s-0.3,0.5-0.3,0.9h-2.1c0-0.9,0.3-1.7,0.9-2.2c0.6-0.5,1.4-0.8,2.4-0.8
				c1,0,1.8,0.2,2.4,0.7c0.6,0.5,0.9,1.2,0.9,2.1c0,0.4-0.1,0.8-0.3,1.2c-0.2,0.4-0.5,0.8-1,1.2l-0.6,0.6c-0.4,0.4-0.6,0.8-0.6,1.2
				l0,0.4H128z M127.8,275.1c0-0.3,0.1-0.6,0.3-0.8c0.2-0.2,0.5-0.3,0.8-0.3c0.3,0,0.6,0.1,0.8,0.3c0.2,0.2,0.3,0.5,0.3,0.8
				c0,0.3-0.1,0.6-0.3,0.8c-0.2,0.2-0.5,0.3-0.9,0.3c-0.4,0-0.6-0.1-0.9-0.3C127.9,275.7,127.8,275.4,127.8,275.1z"/>
		</g>
		<path class="sd89savfa1" d="M129.1,280.7c-5.5,0-9.9-4.5-9.9-9.9c0-5.5,4.5-9.9,9.9-9.9s9.9,4.5,9.9,9.9
			C139,276.2,134.6,280.7,129.1,280.7z M129.1,262.4c-4.6,0-8.4,3.8-8.4,8.4s3.8,8.4,8.4,8.4c4.6,0,8.4-3.8,8.4-8.4
			S133.7,262.4,129.1,262.4z"/>
	</g>
	<text transform="matrix(1 0 0 1 156.3317 326.2281)"><tspan x="0" y="0" class="sd89savfa1 sd89savfa2 sd89savfa3">Lichenification</tspan><tspan x="0" y="21.3" class="sd89savfa1 sd89savfa4 sd89savfa5">Severe (2)</tspan></text>
	<g>
		<g>
			<path class="sd89savfa1" d="M128,332.7c0-0.7,0.1-1.2,0.2-1.6c0.2-0.4,0.5-0.8,0.9-1.2c0.4-0.4,0.7-0.7,0.9-1c0.1-0.2,0.2-0.5,0.2-0.8
				c0-0.8-0.4-1.2-1.1-1.2c-0.4,0-0.6,0.1-0.9,0.3s-0.3,0.5-0.3,0.9h-2.1c0-0.9,0.3-1.7,0.9-2.2c0.6-0.5,1.4-0.8,2.4-0.8
				c1,0,1.8,0.2,2.4,0.7c0.6,0.5,0.9,1.2,0.9,2.1c0,0.4-0.1,0.8-0.3,1.2c-0.2,0.4-0.5,0.8-1,1.2l-0.6,0.6c-0.4,0.4-0.6,0.8-0.6,1.2
				l0,0.4H128z M127.8,334.9c0-0.3,0.1-0.6,0.3-0.8c0.2-0.2,0.5-0.3,0.8-0.3c0.3,0,0.6,0.1,0.8,0.3c0.2,0.2,0.3,0.5,0.3,0.8
				c0,0.3-0.1,0.6-0.3,0.8c-0.2,0.2-0.5,0.3-0.9,0.3c-0.4,0-0.6-0.1-0.9-0.3C127.9,335.5,127.8,335.3,127.8,334.9z"/>
		</g>
		<path class="sd89savfa1" d="M129.1,340.6c-5.5,0-9.9-4.5-9.9-9.9c0-5.5,4.5-9.9,9.9-9.9s9.9,4.5,9.9,9.9
			C139,336.1,134.6,340.6,129.1,340.6z M129.1,322.3c-4.6,0-8.4,3.8-8.4,8.4c0,4.6,3.8,8.4,8.4,8.4c4.6,0,8.4-3.8,8.4-8.4
			C137.5,326,133.7,322.3,129.1,322.3z"/>
	</g>
	<path class="sd89savfa10" d="M129.6,39.1c3.5,0,6.9,0,10.4,0c2.3,0,3.4,1.1,3.4,3.4c0,6.7,0,13.4,0,20.2c0,2.3-1.1,3.4-3.4,3.4
		c-7,0-14,0-20.9,0c-2.3,0-3.4-1.1-3.4-3.4c0-6.7,0-13.4,0-20.2c0-2.3,1.1-3.4,3.4-3.4C122.5,39.1,126.1,39.1,129.6,39.1z
		 M124.1,43.5c-1.1,0-2.1,0-3.2,0c-0.5,0-0.8,0.2-0.8,0.8c0,2.1,0,4.1,0,6.2c0,0.5,0.2,0.8,0.7,0.8c2.1,0,4.2,0,6.3,0
		c0.5,0,0.8-0.2,0.8-0.8c0-2.1,0-4.1,0-6.2c0-0.6-0.3-0.8-0.8-0.8C126.2,43.5,125.1,43.5,124.1,43.5z M128,58c0-1.1,0-2.1,0-3.2
		c0-0.5-0.2-0.7-0.7-0.7c-2.1,0-4.3,0-6.4,0c-0.5,0-0.7,0.2-0.7,0.7c0,2.1,0,4.2,0,6.2c0,0.5,0.2,0.7,0.7,0.7c2.1,0,4.3,0,6.4,0
		c0.5,0,0.7-0.2,0.7-0.7C128,60,128,59,128,58z M134.9,48.9C134.9,48.9,134.9,48.9,134.9,48.9c1.1,0,2.1,0,3.2,0
		c0.5,0,0.7-0.2,0.7-0.7c0-0.6,0-1.1,0-1.7c0-0.5-0.2-0.8-0.7-0.8c-2.1,0-4.2,0-6.3,0c-0.5,0-0.8,0.2-0.8,0.8c0,0.5,0,1,0,1.5
		c0,0.7,0.2,0.9,0.9,0.9C132.9,48.9,133.9,48.9,134.9,48.9z M134.9,56.4c-1.1,0-2.1,0-3.2,0c-0.5,0-0.8,0.2-0.7,0.8
		c0,0.6,0,1.1,0,1.7c0,0.5,0.2,0.7,0.7,0.7c2.1,0,4.3,0,6.4,0c0.5,0,0.7-0.2,0.7-0.7c0-0.6,0-1.1,0-1.7c0-0.5-0.2-0.8-0.7-0.8
		C137,56.4,136,56.4,134.9,56.4z"/>
	<g>
		<path class="sd89savfa1" d="M129,110.1c-2.5,0-4.9,0-7.4,0c-1.5,0-2.5-0.7-3.2-2c-2.1-4.4-1.2-9.8,2.2-13.3c3.6-3.8,9.5-4.7,14.1-2.2
			c0.8,0.4,0.8,0.6,0.1,1.2c-0.9,0.8-1.8,0.9-3,0.5c-5.3-1.9-11.8,2.1-11.9,8.6c0,1.4,0.3,2.7,0.8,4c0.2,0.5,0.5,0.7,1,0.7
			c4.9,0,9.9,0,14.8,0c0.6,0,0.9-0.2,1.1-0.7c1-2.3,1-4.7,0.2-7.1c-0.1-0.4-0.5-0.7-0.2-1.1c0.4-0.6,0.8-1.2,1.2-1.8
			c0.2-0.3,0.4,0,0.5,0.2c1.3,2.3,1.9,4.8,1.5,7.5c-0.2,1.3-0.6,2.6-1.2,3.8c-0.7,1.4-1.8,1.9-3.2,1.9
			C133.9,110.1,131.4,110.1,129,110.1z"/>
		<path class="sd89savfa1" d="M137.1,94.7c0.1,0.3-0.1,0.4-0.2,0.6c-1.9,2.9-3.9,5.8-5.8,8.7c-1.1,1.7-2.8,1.8-4,0.4
			c-0.8-0.9-0.7-2.3,0.1-3.1c0.2-0.2,0.5-0.4,0.7-0.6c2.8-1.9,5.6-3.7,8.4-5.6C136.6,95,136.8,94.7,137.1,94.7z"/>
	</g>
	
		<linearGradient id="SVGID_1_" gradientUnits="userSpaceOnUse" x1="1661.7869" y1="-99.0316" x2="1677.4786" y2="-99.0316" gradientTransform="matrix(-1 0 0 -1 2023.7656 130.9235)">
		<stop  offset="0" style="sd89savfaop-color:#F2F2F2"/>
		<stop  offset="1" style="sd89savfaop-color:#FFFFFF;stop-opacity:0"/>
	</linearGradient>
	<linearGradient id="SVGID_2_" gradientUnits="userSpaceOnUse" x1="101.2115" y1="233.002" x2="116.9033" y2="233.002">
		<stop  offset="0" style="sd89savfaop-color:#F2F2F2"/>
		<stop  offset="1" style="sd89savfaop-color:#FFFFFF;stop-opacity:0"/>
	</linearGradient>
</g>
<g id="robot-floating" >
	<path id="ely4locf54nom" class="sd89savfa6" d="M203.1,131.6l13.2,5.9c0,0-20.7,29.4-24.9,34.1s-45.9,10.7-45.9,10.7l-2-17.4l35.5-6
		L203.1,131.6z"/>
	<g id="el588pd3exmj9">
		<g class="sd89savfa13">
			<path id="elupxqp86ok4" class="sd89savfa10" d="M177,160.6c0.1,0.6-5.3,2-12,3.1s-12.2,1.5-12.3,0.9c-0.1-0.6,5.3-2,12-3.1
				S176.9,160,177,160.6z"/>
		</g>
	</g>
	<path id="elgaxkj77mxj9" class="sd89savfa14" d="M139.9,162.3c3.7-1.2,7.7,0,10.2,3c2.4,3,3.1,7,2,10.7c-1,3.6-5.9,8.6-9.2,9.9"/>
	<path id="el31v6muokefu" class="sd89savfa6" d="M219.9,133.5c1.1-1.5,2.1-3.1,2.9-4.7c0.8-1.7,1.1-3.6,0.8-5.4c-0.3-1.9-1.6-3.4-3.3-4.2
		c-1.8-0.7-3.8,0-4.8,1.6l3.5-6.9c0.4-0.9,0.9-1.9,0.3-2.7c-0.6-0.7-1.7-0.8-2.4-0.2c-0.7,0.5-1.3,1.3-1.6,2.1l-5.2,9.7l-4.6-7.2
		c-0.5-0.7-1.1-1.5-2-1.4c-0.7,0.2-1.2,0.8-1.1,1.5c0,0.7,0.2,1.4,0.6,2c1.3,2.8,3.8,9.3,3.8,9.3L219.9,133.5z"/>
	<path id="elw0plbm49qf" class="sd89savfa14" d="M203.1,131.6c3.6,2.3,7.3,4.3,11.2,6.1c1.5,0.7,3.4,1.4,4.8,0.4c1-0.8,1.4-2.1,1.1-3.3
		c-0.3-1.2-1-2.3-1.8-3.2c-2.5-2.8-5.8-4.9-9.5-5.9c-1.3-0.4-2.7-0.5-4-0.3c-1.4,0.2-2.5,1.2-2.9,2.5
		C201.5,129.2,202,130.7,203.1,131.6"/>
	<path id="el21950b8903o" class="sd89savfa6" d="M102.3,104.2c0,0-28.4,5.3-28,30.7s24.4,21.2,31.4,20.3c3.2-0.4,9.5-1.3,15.4-2.2
		c12.6-1.8,22.1-8,22.8-20.7c0.1-1.5,0-3-0.2-4.5C142,114.3,129.5,98.2,102.3,104.2z"/>
	<path id="elbjw5vkej9ua" class="sd89savfa14" d="M133,129.7l-36.3,7.7c-3.8,0.8-7.5-1.6-8.3-5.4l0,0c-0.8-3.8,1.6-7.5,5.4-8.3l36.3-7.7
		c3.8-0.8,7.5,1.6,8.3,5.4l0,0C139.2,125.2,136.8,128.9,133,129.7C133,129.7,133,129.7,133,129.7z"/>
	<circle id="elr9a8p01o6s" class="sd89savfa10" cx="101.6" cy="129.8" r="2.3"/>
	<circle id="eldk81u9fcghs" class="sd89savfa10" cx="127" cy="124.4" r="2.3"/>
	<g id="el843y83mjcup">
		<g class="sd89savfa13">
			<path id="el2ssubjy2ef3" d="M140.7,142.9c-3.3-2-7.1-3.2-11.1-3.4c-3.9-0.1-7.8,0.1-11.6,0.8c-8.9,1.3-18,3.4-25.2,8.8
				c-2.1,1.4-3.8,3.4-4.9,5.7c0,0,3.8,1.6,11.5,1.1s23.4-3.2,23.4-3.2s8-1.4,12.6-4.8C139.9,144.6,140.7,142.9,140.7,142.9z"/>
		</g>
	</g>
	<g id="el0mhm8h0yxnes">
		<g class="sd89savfa13">
			<path id="eloa97c5fann" class="sd89savfa10" d="M110,104.6c0.1,0.3-2.5,1.1-6.5,2.4s-9.6,3.2-14.7,6.9c-2.4,1.7-4.5,3.8-6.3,6.2
				c-1.4,1.9-2.6,4.1-3.4,6.3c-1.4,3.9-1.2,6.6-1.6,6.6c-0.1,0-0.3-0.6-0.4-1.9c-0.1-1.7,0.1-3.5,0.6-5.2c0.7-2.5,1.8-4.9,3.3-7
				c1.8-2.6,4.1-4.9,6.7-6.8c2.6-1.8,5.4-3.3,8.3-4.4c2.4-0.9,4.8-1.6,7.3-2.2C107.3,104.5,110,104.3,110,104.6z"/>
		</g>
	</g>
	<g id="elk5fbem1jyy">
		<g class="sd89savfa13">
			<path id="eldr2ubm6scim" class="sd89savfa10" d="M82.6,145.5c-0.4,0.5-2-0.2-3.2-1.9c-1.2-1.7-1.3-3.4-0.7-3.7s1.5,1,2.6,2.4
				C82.2,143.7,82.9,145,82.6,145.5z"/>
		</g>
	</g>
	<path id="elocpsko8y8hm" class="sd89savfa6" d="M141.5,159.3c1.7,0.5,1.6,25.4,1.2,38.1c-0.2,6.8-0.7,13.9-4.2,19.8
		c-3.9,6.5-11.3,10.7-18.8,11.2c-9.1,0.6-18.1-3.8-24.4-10.5c-6.2-6.7-9.9-15.4-11.9-24.3c-2-8.9-2.4-18.1-2.8-27.3
		C80.6,166.4,110.2,150.5,141.5,159.3z"/>
	<g id="elzf84h5mg0u">
		<g class="sd89savfa15">
			<path id="eln1dtbpj422" class="sd89savfa14" d="M82,178.4c-0.2,8,1.2,17.3,3.8,24c2.8,7.3,6.8,13.8,13.6,19.3c1.9,1.4,3.9,2.7,6,3.8
				c1.8,0.9,3.7,1.6,5.6,2.1c3.2,0.9,5.1-3.1,5.7-6.3c0.6-3.3-0.6-6.7-2.6-9.4c-2.1-2.6-4.7-4.8-7.6-6.5c-2.9-1.7-5.7-3.5-8.3-5.5
				c-4.4-3.8-7.9-8.4-10.2-13.7c-2.3-5.3-4.2-10.7-5.8-16.2"/>
		</g>
	</g>
	<g id="eldc5tqpktznb">
		<g class="sd89savfa13">
			<path id="el7y10eauwd4j" class="sd89savfa10" d="M134.6,165.9c0.1,0.3-2.6,1.5-7.1,2.7c-2.7,0.7-5.4,1.3-8.1,1.7
				c-6.7,1-13.5,1.3-20.3,0.7c-2.8-0.2-5.5-0.6-8.2-1.2c-4.6-0.9-7.4-1.9-7.3-2.2c0.1-0.7,11.5,1.9,25.6,1.4
				C123.3,168.5,134.4,165.3,134.6,165.9z"/>
		</g>
	</g>
	<g id="elw9mpow6aaf7">
		<g class="sd89savfa15">
			<path id="elhvhtbbjj54k" d="M80.6,166.4c0,0,29.6-16.1,60.8-7.1C141.5,159.3,128.1,172,80.6,166.4z"/>
		</g>
	</g>
	<path id="el1rn0g3kqw16" class="sd89savfa6" d="M44.3,158.1c0,0-2.1-8.5-3.2-8.9c-1.1-0.4-14.4,1.5-14.4,1.5s-4.3-6-5-6.8
		c-0.7-0.8-2.1,1.2-1.6,2.1c0.5,0.9,3.6,9.7,5.6,10c2.3,0.1,4.6,0.1,6.9-0.1l1.6,5.5L44.3,158.1z"/>
	<path id="el6h50j254bb5" class="sd89savfa6" d="M81.9,191c-8.4,3.1-27.8,10.4-32.2,11.5c-2.9,0.8-6.3,1-9.1-0.2c-2.4-1.1-4.2-3.2-5.8-5.3
		c-2.5-7.9-1.3-21.5,0.5-33.4l10.1-1.9l3.3,24.6l28.2-10.4l5.5,13.5c0.4,0.4,0.4,1,0,1.4C82.2,190.9,82.1,190.9,81.9,191z"/>
	<path id="elmp6f71ydex" class="sd89savfa14" d="M82.3,169.7c-6.2,1.9-9.7,8.5-7.8,14.7c0.7,2.2,2,4.2,3.8,5.7c1.4,1.1,3.3,2,4.9,0.3
		c0.5-0.6,0.9-1.2,1.1-1.9C86,182.1,85.3,175.4,82.3,169.7z"/>
	<path id="elxweoqzrf48b" class="sd89savfa14" d="M35,163.7c3.5-0.2,6.9-0.7,10.3-1.5c1.4-0.3,2.9-0.8,3.3-2.1c0.3-1-0.1-2-0.9-2.7
		c-0.8-0.6-1.7-1-2.7-1.2c-3-0.6-6.2-0.4-9,0.7c-1,0.3-2,0.9-2.7,1.7c-0.8,0.8-1,2-0.7,3C32.9,162.9,33.9,163.7,35,163.7"/>
	<path id="elf1oc1z7y6ft" class="sd89savfa10" d="M119.5,126.2c0.2,0.6,0.2,1.3,0,1.9c-0.2,0.7-0.5,1.3-1,1.8c-1.7,1.8-4.5,1.9-6.3,0.2
		c-0.1-0.1-0.2-0.2-0.3-0.3c-0.5-0.5-0.8-1.1-0.9-1.7c0.3,0.5,0.7,1,1.1,1.5c0.5,0.5,1,0.8,1.6,1c0.8,0.3,1.6,0.3,2.4,0.1
		c0.8-0.2,1.5-0.6,2.1-1.1c0.5-0.5,0.8-1,1-1.7C119.3,127.4,119.4,126.8,119.5,126.2z"/>
	<g>
		<path class="sd89savfa10" d="M105.8,185.2c0.2-0.1,0.4-0.2,0.7-0.2l0.1,0l-0.1,0.1c-0.2,0.3-0.4,0.5-0.5,0.7c-0.1,0.1-0.2,0.2-0.2,0.3
			c0,0.1-0.1,0.1-0.2,0.1c-0.2,0.2-0.3,0.3-0.2,0.4c0.1,0.2,0.3,0.2,0.6,0.1c0.1,0,0.1,0,0.2,0c0.1,0,0.2,0,0.3-0.1l0,0
			c0.8-0.2,1.5-0.6,2.2-1.3c0.2-0.2,0.4-0.4,0.7-0.6c0.1-0.1,0.2-0.2,0.3-0.3l0.2-0.2l-0.2,0.3c0,0.1-0.1,0.1-0.1,0.2
			c-0.3,0.6-0.6,1.1-1,1.6c0,0,0,0-0.1,0.1c-0.2,0.1-0.2,0.2-0.1,0.4c0.1,0.2,0.3,0.1,0.5,0.1l0,0c0.6-0.1,1.1-0.3,1.6-0.8
			c0.9-0.8,1.5-1.8,2-2.9l0,0c0.1-0.2,0.2-0.5,0.6-0.5c1.2-0.2,2.4-0.1,3.8,0.3l0.1,0l-0.1,0.1c-0.3,0.2-0.6,0.2-0.8,0.3l-0.1,0
			c-0.7,0.1-1.7,0.3-2.7,0.7c-0.8,0.3-1.3,0.8-1.5,1.4c0,0,0,0.1-0.1,0.1c-0.1,0.2-0.2,0.4,0,0.5c0.1,0.1,0.2,0.1,0.4,0
			c0.1,0,0.1-0.1,0.2-0.1c0.1,0,0.1,0,0.2-0.1c0.1,0,0.1,0,0.2-0.1c1.4-0.4,2.8-0.5,4.2-0.6c0.3,0,0.7,0,1-0.1c3-0.2,5.3-1,7.3-2.3
			c0.9-0.6,1.7-1.4,2.5-2.2l0,0c0.1-0.1,0.2-0.2,0.1-0.3c-0.1-0.1-0.2-0.1-0.4,0l0,0c-0.1,0.1-0.3,0.2-0.4,0.3
			c-0.1,0.1-0.2,0.1-0.3,0.2c-1.9,1.2-3.7,1.6-5.7,1.3c-0.9-0.1-1.9-0.4-2.8-0.7c-0.1,0-0.3-0.1-0.4-0.1c-1.5-0.4-2.7-0.6-3.9-0.6
			c-0.6,0-0.9,0.2-1.1,0.7c-0.5,1.6-1.2,2.9-2.1,3.9c-0.4,0.4-0.8,0.8-1.5,1l-0.1,0l0.1-0.1c0-0.1,0.1-0.1,0.1-0.1
			c0-0.1,0-0.1,0.1-0.1c1.4-1.9,2.2-4,2.7-5.6c0.3-1,0.9-1.4,1.9-1.6c5.1-0.8,10.1-0.5,15,0.9c0.1,0,0.1,0,0.2,0.1
			c0.1,0.1,0.3,0.1,0.4,0.1c0,0,0.1-0.1,0.1-0.2c0-0.1,0-0.1,0-0.2c-0.1-0.1-0.2-0.1-0.4-0.2c-0.1,0-0.1,0-0.2,0
			c-2.6-0.8-5.3-1.2-8-1.3c-3.3-0.1-6.1,0.1-8.6,0.7c-0.8,0.2-1.7,0.4-2.3,1.2c-0.5,0.7-1.1,1.2-1.7,1.7l0,0
			c-1.5,1.3-3.1,2.4-4.7,3.2c0,0,0,0-0.1,0c-0.2,0.1-0.3,0.1-0.3,0.3c0,0.2,0.2,0.2,0.3,0.3l0,0c0.5,0.2,0.9,0.1,1.3,0.1
			C105.2,185.4,105.5,185.3,105.8,185.2z M113.1,181.9c0-0.4,0.2-0.7,0.5-0.7c0.4-0.1,0.8,0,1.3,0c1.3,0.1,2.5,0.4,3.7,0.8
			c0.3,0.1,0.5,0.1,0.8,0.2c2.2,0.6,4.1,0.5,5.8-0.2c0.1,0,0.1,0,0.2,0c0,0,0.1,0,0.1,0l0.2,0l-0.1,0.1c-1.1,1-2.4,1.7-4,2.1
			c-0.7,0.2-1.4,0.3-2.1,0.4c-1.1,0.2-2.2,0.2-3.3,0.3l-0.3,0c-1.2,0.1-2.2,0.2-3.3,0.6l-0.1,0l0.1-0.1c0.3-0.6,0.9-0.9,1.3-1.1
			c0.7-0.3,1.3-0.4,2-0.5c0.3-0.1,0.6-0.1,0.8-0.2c0.1,0,0.3-0.1,0.4-0.1c0.2,0,0.5-0.1,0.7-0.2c0.3-0.1,0.6-0.1,1,0
			c0.6,0.2,1.3,0.3,2.2,0.5l0,0c0.1,0,0.3,0.1,0.4,0c0,0,0.1-0.1,0.1-0.1c0-0.1,0-0.1,0-0.2c0-0.1-0.2-0.1-0.3-0.1c0,0-0.1,0-0.1,0
			c-1-0.2-1.9-0.4-2.9-0.7c-0.5-0.1-1.1-0.3-1.7-0.4c-0.8-0.2-1.7-0.3-2.6-0.2c0,0-0.1,0-0.1,0c-0.1,0-0.3,0.1-0.4,0
			C113.1,182,113.1,182,113.1,181.9z M111.8,179.1l0,0.2c-0.5,2.7-3.4,6.4-5.5,6.8l-0.2,0l0.1-0.1c2.2-2.3,4-4.6,5.4-6.8
			L111.8,179.1z M104.2,185l-0.2,0L104.2,185c2.5-1.7,4.4-3.1,5.9-4.7l0.3-0.3l-0.2,0.3c-1.1,2.1-3.4,4.3-5.5,4.6
			C104.6,185,104.4,185,104.2,185z"/>
		<path class="sd89savfa10" d="M130.9,188.1L130.9,188.1c-0.5-0.2-0.9-0.1-1.3-0.1c-0.3,0-0.6,0.2-0.9,0.3c-0.2,0.1-0.4,0.2-0.7,0.2l-0.1,0
			l0.1-0.1c0.2-0.3,0.4-0.5,0.5-0.7c0.1-0.1,0.2-0.2,0.2-0.3c0-0.1,0.1-0.1,0.2-0.1c0.2-0.2,0.3-0.3,0.2-0.4
			c-0.1-0.2-0.3-0.2-0.6-0.1c-0.1,0-0.1,0-0.2,0c-0.1,0-0.2,0-0.3,0.1l0,0c-0.8,0.2-1.5,0.6-2.2,1.3c-0.2,0.2-0.4,0.4-0.7,0.6
			c-0.1,0.1-0.2,0.2-0.3,0.3l-0.2,0.2l0.2-0.3c0-0.1,0.1-0.1,0.1-0.2c0.3-0.6,0.6-1.1,1-1.6c0,0,0,0,0.1-0.1
			c0.2-0.1,0.2-0.2,0.1-0.4c-0.1-0.2-0.3-0.1-0.5-0.1l0,0c-0.6,0.1-1.1,0.3-1.6,0.8c-0.9,0.8-1.5,1.8-2,2.9l0,0
			c-0.1,0.2-0.2,0.5-0.6,0.5c-1.2,0.2-2.4,0.1-3.8-0.3l-0.1,0l0.1-0.1c0.3-0.2,0.6-0.2,0.8-0.3l0.1,0c0.7-0.1,1.7-0.3,2.7-0.7
			c0.8-0.3,1.3-0.8,1.5-1.4c0,0,0-0.1,0.1-0.1c0.1-0.2,0.2-0.4,0-0.5c-0.1-0.1-0.2-0.1-0.4,0c-0.1,0-0.1,0.1-0.2,0.1
			c-0.1,0-0.1,0-0.2,0.1c-0.1,0-0.1,0-0.2,0.1c-1.4,0.4-2.8,0.5-4.2,0.6c-0.3,0-0.7,0-1,0.1c-3,0.2-5.3,1-7.3,2.3
			c-0.9,0.6-1.7,1.4-2.5,2.2l0,0c-0.1,0.1-0.2,0.2-0.1,0.3c0.1,0.1,0.2,0.1,0.4,0l0,0c0.1-0.1,0.3-0.2,0.4-0.3
			c0.1-0.1,0.2-0.1,0.3-0.2c1.9-1.2,3.7-1.6,5.7-1.3c0.9,0.1,1.9,0.4,2.8,0.7c0.1,0,0.3,0.1,0.4,0.1c1.5,0.4,2.7,0.6,3.9,0.6
			c0.6,0,0.9-0.2,1.1-0.7c0.5-1.6,1.2-2.9,2.1-3.9c0.4-0.4,0.8-0.8,1.5-1l0.1,0l-0.1,0.1c0,0.1-0.1,0.1-0.1,0.1c0,0.1,0,0.1-0.1,0.1
			c-1.4,1.9-2.2,4-2.7,5.6c-0.3,1-0.9,1.4-1.9,1.6c-5.1,0.8-10.1,0.5-15-0.9c-0.1,0-0.1,0-0.2-0.1c-0.1-0.1-0.3-0.1-0.4-0.1
			c0,0-0.1,0.1-0.1,0.2c0,0.1,0,0.1,0,0.2c0.1,0.1,0.2,0.1,0.4,0.2c0.1,0,0.1,0,0.2,0c2.6,0.8,5.3,1.2,8,1.3
			c3.3,0.1,6.1-0.1,8.6-0.7c0.8-0.2,1.7-0.4,2.3-1.2c0.5-0.7,1.1-1.2,1.7-1.7l0,0c1.5-1.3,3.1-2.4,4.7-3.2c0,0,0,0,0.1,0
			c0.2-0.1,0.3-0.1,0.3-0.3C131.3,188.2,131.1,188.1,130.9,188.1z M121.5,191.6c0,0.4-0.2,0.7-0.5,0.7c-0.4,0.1-0.8,0-1.3,0
			c-1.3-0.1-2.5-0.4-3.7-0.8c-0.3-0.1-0.5-0.1-0.8-0.2c-2.2-0.6-4.1-0.5-5.8,0.2c-0.1,0-0.1,0-0.2,0c0,0-0.1,0-0.1,0l-0.2,0l0.1-0.1
			c1.1-1,2.4-1.7,4-2.1c0.7-0.2,1.4-0.3,2.1-0.4c1.1-0.2,2.2-0.2,3.3-0.3l0.3,0c1.2-0.1,2.2-0.2,3.3-0.6l0.1,0l-0.1,0.1
			c-0.3,0.6-0.9,0.9-1.3,1.1c-0.7,0.3-1.3,0.4-2,0.5c-0.3,0.1-0.6,0.1-0.8,0.2c-0.1,0-0.3,0.1-0.4,0.1c-0.2,0-0.5,0.1-0.7,0.2
			c-0.3,0.1-0.6,0.1-1,0c-0.6-0.2-1.3-0.3-2.2-0.5l0,0c-0.1,0-0.3-0.1-0.4,0c0,0-0.1,0.1-0.1,0.1c0,0.1,0,0.1,0,0.2
			c0,0.1,0.2,0.1,0.3,0.1c0,0,0.1,0,0.1,0c1,0.2,1.9,0.4,2.9,0.7c0.5,0.1,1.1,0.3,1.7,0.4c0.8,0.2,1.7,0.3,2.6,0.2c0,0,0.1,0,0.1,0
			c0.1,0,0.3-0.1,0.4,0C121.4,191.4,121.5,191.5,121.5,191.6z M122.8,194.4l0-0.2c0.5-2.7,3.4-6.4,5.5-6.8l0.2,0l-0.1,0.1
			c-2.2,2.3-4,4.6-5.4,6.8L122.8,194.4z M130.3,188.5c-2.6,1.6-4.4,3-6,4.6l-0.3,0.3l0.2-0.3c1.1-2.1,3.4-4.3,5.5-4.6
			C129.9,188.4,130.1,188.4,130.3,188.5l0.2-0.1L130.3,188.5z"/>
	</g>
</g>
<g>
	<g id="doctor-head-confirming">
		<path id="elcj9qs63c4i" class="sd89savfa16" d="M357.1,10.4c-1.8,0.7-2.9,2.4-3,4.2c0,2.6,2,4.7,4.6,4.7c-2.3,0.6-3.2,3.7-2,5.8
			s3.8,3,6.1,2.7c2.3-0.4,4.5-1.4,6.3-3c1.8-1.5,3.5-3.1,5.5-4.4c1.9-1.4,4.3-2.1,6.6-1.9c3.2,0.4,5.7,3,6.9,5.9s1.3,6.2,1.3,9.4
			c0,3.2-0.2,6.4,0.5,9.5c0.1,0.4,0.2,0.8,0.6,0.9c0.5,0.2,1-0.3,1.3-0.8c3.3-5.2,5.5-10.9,6.5-17c0.6-3.5,0.7-6.8-1-9.9
			s-6.4-6.1-8.9-4.4c-0.6-3.2-2.6-4.6-5.6-5.9c-3.2-1.2-6.8-0.8-9.7,1.1c-1.8,1.2-3.3,3-5.4,3.6C364.2,11.9,360.5,9.1,357.1,10.4
			L357.1,10.4z"/>
		<path id="elw477m87x2z" class="sd89savfa17" d="M379.4,10.2h-0.9c-8.8,0.3-15.8,7.3-16.2,16.1c-0.3,8.2-0.6,17.2-0.4,21.5
			c0.5,9,9.5,10,9.5,10c0,0.3,0,2.5-0.1,5.2c-0.1,5.7,3.4,13.9,9.1,14.3c0,0,12-7.7,12.2-13.8l0.8-35.7
			C393.9,18.5,388.8,10.4,379.4,10.2z"/>
		<path id="eloi4ugfjoi1q" class="sd89savfa18" d="M371.5,60.1c9,0.5,11.6-6.1,11.6-6.1c-3.4,2.4-7.5,3.7-11.6,3.8L371.5,60.1z"/>
		<path id="eliq7fgvebpy" class="sd89savfa16" d="M365.1,33c0-0.7,0.6-1.2,1.3-1.2c0.7,0,1.3,0.6,1.3,1.3c0,0,0,0,0,0
			c0,0.7-0.6,1.2-1.3,1.2C365.7,34.3,365.2,33.7,365.1,33C365.1,33,365.1,33,365.1,33z"/>
		<path id="eln6iqcrahczg" class="sd89savfa16" d="M365,29.9c0.6-0.4,1.3-0.7,2-0.7c0.7,0,1.5,0.2,2.1,0.5c0.4,0.3,0.7,0.5,0.6,0.7
			c-0.1,0.2-1.2-0.5-2.6-0.4c-1.4,0-2.3,0.8-2.5,0.6C364.4,30.6,364.5,30.2,365,29.9z"/>
		<path id="elosqeg3zt3u" class="sd89savfa16" d="M378.4,33c0-0.7,0.6-1.2,1.3-1.2c0.7,0,1.3,0.6,1.3,1.3c0,0,0,0,0,0
			c0,0.7-0.6,1.2-1.3,1.2C379,34.3,378.4,33.7,378.4,33C378.4,33,378.4,33,378.4,33z"/>
		<path id="elfn85dpcfo1j" class="sd89savfa16" d="M378.6,29.6c0.6-0.4,1.3-0.7,2-0.7c0.7,0,1.4,0.2,2.1,0.6c0.5,0.3,0.7,0.5,0.6,0.7
			s-1.2-0.5-2.6-0.4c-1.4,0.1-2.3,0.8-2.5,0.6C378,30.3,378.2,30,378.6,29.6z"/>
		<path id="elc1f997xv8oh" class="sd89savfa16" d="M371.1,40.9c-0.2,0-0.4,0-0.6-0.1c-0.3-0.1-0.5-0.2-0.6-0.5c-0.1-0.5-0.1-1,0.1-1.4
			c0.3-0.9,0.6-1.8,0.9-2.7c1.3-3.9,2.5-7,2.7-7c0.2,0.1-0.8,3.3-2.1,7.1l-0.9,2.7c-0.2,0.3-0.2,0.7-0.2,1.1
			c0.1,0.2,0.4,0.3,0.8,0.3c0.8,0,1.5,0.1,2.3,0.3C372.7,41,371.9,41,371.1,40.9z"/>
		<path id="elw4pe5v9m31" class="sd89savfa16" d="M377.8,42.7c-0.1,0.8-0.5,1.6-1.1,2.2c-0.7,0.6-1.5,0.9-2.4,0.9c-0.7,0-1.1-0.1-1.1-0.3
			c0-0.2,1.6-0.1,2.9-1.2s1.2-2.6,1.4-2.6C377.7,41.6,377.9,42,377.8,42.7z"/>
		<path id="el3v14k4t7hx" class="sd89savfa16" d="M378.4,24.2c1.6-0.6,3.4-0.5,4.8,0.3c0.5,0.3,0.8,0.7,0.7,0.9c-0.2,0.3-1.6,0-3.2-0.2
			c-1.6-0.1-3,0.1-3.2-0.3C377.5,24.7,377.8,24.5,378.4,24.2z"/>
		<path id="elfbmmuhpy447" class="sd89savfa16" d="M365.2,25.7c1.1-0.8,2.6-0.9,3.8-0.3c0.4,0.3,0.6,0.6,0.5,0.8c-0.2,0.3-1.2,0.1-2.3,0.2
			c-1.1,0.1-2.1,0.4-2.3,0.1C364.7,26.4,364.9,26.1,365.2,25.7z"/>
		<path id="elfu4frr5bkgv" class="sd89savfa17" d="M393,43.4c0,0.2,6.2,1.4,6.2-4.8s-6-4.2-6.2-4.1C393,34.6,393,43.3,393,43.4z"/>
		<path id="eldp6psw0gc3q" class="sd89savfa18" d="M395,41.3c0.3,0.2,0.6,0.3,1,0.2c1-0.5,1.6-1.5,1.6-2.7c0-0.6-0.1-1.2-0.4-1.7
			c-0.2-0.5-0.6-0.8-1.1-0.9c-0.2,0-0.4,0-0.6,0.2c-0.1,0.1-0.2,0.2-0.2,0.4c0,0.3,0,0.4,0.1,0.4s0-0.1,0.1-0.3
			c0.1-0.2,0.4-0.4,0.6-0.3c0.4,0.1,0.7,0.4,0.8,0.8c0.2,0.5,0.3,1,0.3,1.5c0.1,1-0.4,1.9-1.2,2.4C395.7,41.3,395.4,41.3,395,41.3
			c-0.1-0.2-0.2-0.3-0.2-0.3C394.8,41.1,394.8,41.2,395,41.3z"/>
		<path id="eld8lr4mc9m1d" class="sd89savfa16" d="M361.9,17.8c0.8-1.8,2.1-3.3,3.7-4.5c3.3-2.7,7.3-4.3,11.5-4.6c4.2-0.3,8.4,1.1,11.6,3.9
			c2.5,2.3,4.2,5.3,5.1,8.5c0.8,3.3,1,6.7,0.4,10c-0.1,1.5-0.6,2.9-1.5,4.1c-0.6,0.7-1.7,1.2-2.4,0.6c-0.4-0.4-0.7-0.9-0.8-1.4
			c-1.4-4.7-2.7-9.8-1.2-14.4c-1.2-1.5-2.7-2.8-4.4-3.8c-1.7-0.9-3.8-1.1-5.6-0.6c-2.7,0.9-4.3,3.7-6.4,5.6c-3.1,2.8-7.4,3.9-11.5,3
			"/>
		<path id="elun9zo79beh" class="sd89savfa10" d="M354.7,13.2c0.2,0.5,0.5,0.9,0.9,1.2c0.7,0.4,1.5,0.6,2.3,0.6c0.5,0,1-0.1,1.5-0.2
			c0.5-0.1,1-0.4,1.4-0.8c0.4-0.4,0.7-1,0.6-1.6c-0.1-0.6-0.6-1.1-1.2-1.3c-0.6-0.2-1.4-0.1-1.9,0.4c-0.5,0.5-0.8,1.2-0.7,2
			c0,0.8,0.4,1.5,1,2c0.6,0.6,1.3,0.9,2.1,1.1c1.7,0.3,3.5,0.1,5-0.7c1.6-0.8,3.1-1.8,4.4-2.9c1.3-1,2.7-2,4.1-2.8
			c1.3-0.7,2.8-1.2,4.3-1.2c1.3,0,2.6,0.3,3.8,0.9c1.7,0.8,3.2,2.1,4.2,3.7c0.3,0.4,0.6,0.9,0.8,1.3c0.1,0.2,0.1,0.3,0.2,0.4
			c0,0.1,0,0.1,0,0.1c-0.1-0.1-0.2-0.3-0.3-0.5c-0.3-0.4-0.5-0.9-0.8-1.3c-1.1-1.5-2.5-2.8-4.2-3.6c-1.2-0.5-2.4-0.8-3.7-0.8
			c-1.5,0.1-2.9,0.5-4.2,1.2c-1.4,0.8-2.8,1.8-4,2.8c-1.4,1.1-2.9,2.1-4.5,2.9c-1.6,0.8-3.5,1.1-5.3,0.8c-0.9-0.2-1.6-0.6-2.3-1.2
			c-0.6-0.6-1-1.4-1.1-2.2c-0.1-0.8,0.3-1.6,0.8-2.2c0.3-0.3,0.6-0.5,1-0.5c0.4-0.1,0.8,0,1.1,0.1c0.7,0.2,1.2,0.8,1.4,1.5
			c0,0.7-0.2,1.3-0.7,1.8c-0.4,0.4-1,0.7-1.6,0.8c-0.5,0.1-1,0.2-1.5,0.2c-0.8,0-1.7-0.2-2.3-0.7C355.2,14.2,354.8,13.7,354.7,13.2
			c-0.1-0.2-0.2-0.3-0.1-0.5C354.6,12.9,354.7,13,354.7,13.2z"/>
		<path id="elf9kqpqi1u0h" class="sd89savfa10" d="M398.2,22.2c-0.4,0.2-0.9,0.4-1.4,0.5c-0.7,0.1-1.5,0.1-2.2-0.1c-0.9-0.2-1.7-0.6-2.4-1
			c-1.4-0.9-2.4-2.2-2.9-3.8c-0.2-0.5-0.3-0.9-0.3-1.4c0-0.2,0-0.4,0-0.5c0.1,0.6,0.3,1.3,0.5,1.9c0.5,1.5,1.6,2.7,2.9,3.6
			c0.7,0.5,1.5,0.8,2.3,1c0.7,0.2,1.4,0.2,2.1,0.1c0.6-0.1,1.2-0.3,1.8-0.6C398.5,22,398.4,22.1,398.2,22.2z"/>
		<path id="els0xthg0zp9" class="sd89savfa10" d="M398,26.5c-0.5,0.1-0.9,0.2-1.4,0.2c-1.6,0-3.1-0.4-4.5-1.2c-1.3-0.8-2.4-2-3.1-3.4
			c-0.2-0.4-0.4-0.9-0.5-1.3c-0.1-0.2-0.1-0.3-0.1-0.5c0.1,0,0.2,0.7,0.8,1.7c0.7,1.3,1.8,2.5,3.1,3.3c1.3,0.8,2.8,1.2,4.3,1.2
			c1.2,0,1.9-0.2,1.9-0.1C398.4,26.4,398.2,26.5,398,26.5z"/>
		<path id="elfsmx8vraqxc" class="sd89savfa18" d="M379.1,37.2C379.1,37.2,379.1,37.2,379.1,37.2c0-0.1,0.1-0.2,0.2-0.2
			c0.1,0,3.4-0.4,3.4-0.3c0,0.1-3.3,0.6-3.4,0.6C379.2,37.3,379.1,37.2,379.1,37.2z"/>
		<path id="elv5g4962bfzt" class="sd89savfa18" d="M368.1,36.3c-0.1,0-3.7-0.2-3.7-0.3c0-0.1,3.7,0,3.7,0c0,0,0,0,0.1,0
			c0.1,0,0.1,0.1,0.1,0.2C368.3,36.3,368.2,36.3,368.1,36.3C368.2,36.3,368.2,36.3,368.1,36.3z"/>
	</g>
	<path class="sd89savfa19" d="M378.4,319.8l0.5,27l33.6-0.4c-0.2-3.2-17.7-9.4-17.7-9.4l0.4-17.3L378.4,319.8z"/>
	<g>
		<path class="sd89savfa16" d="M412.5,346.5c0.2-1.1-1.3-1.7-1.3-1.7l-32.2-0.6l-0.1,2.7L412.5,346.5z"/>
	</g>
	<path class="sd89savfa16" d="M393.2,332.3c-1.1,0.1-1.7,0.7-1.7,0.8s0.8-0.2,1.7-0.2c0.9-0.1,1.7,0.2,1.7,0
		C395.1,332.7,394.3,332.2,393.2,332.3z"/>
	<path class="sd89savfa16" d="M393.4,329c-0.6-0.1-1.1-0.3-1.6-0.6c-0.3-0.1-0.6-0.3-0.9-0.5c-0.1-0.1-0.3-0.2-0.4-0.3c0-0.1-0.1,0,0-0.2
		c0.1-0.2,0.4-0.2,0.8-0.1c0.3,0.1,0.7,0.2,1,0.3c0.5,0.2,1,0.5,1.5,0.8c0.8,0.6,1.2,1.1,1.3,1c0.1,0-0.2-0.6-1-1.4
		c-0.5-0.4-1-0.7-1.6-1c-0.3-0.1-0.7-0.3-1-0.3c-0.2-0.1-0.4-0.1-0.6-0.1c-0.3,0-0.6,0.2-0.7,0.4c-0.2,0.3-0.1,0.6,0.1,0.8
		c0.2,0.2,0.3,0.3,0.5,0.4c0.3,0.2,0.6,0.4,1,0.5c0.6,0.2,1.2,0.4,1.8,0.5c0.6,0.2,1.1,0.2,1.7,0C394.5,329.2,394,329.1,393.4,329z"
		/>
	<path class="sd89savfa16" d="M394.8,328c0-0.6,0.1-1.1,0.3-1.7c0.1-0.3,0.2-0.6,0.4-0.9c0.1-0.3,0.4-0.5,0.6-0.6c0.1,0,0.3,0.2,0.3,0.6
		c0,0.3,0,0.6,0,1c-0.1,0.6-0.2,1.1-0.5,1.6c-0.5,0.8-1,1.2-1,1.3s0.7-0.2,1.3-1c0.4-0.5,0.6-1.1,0.7-1.7c0.1-0.4,0.1-0.8,0-1.1
		c0-0.2-0.1-0.4-0.2-0.6c-0.1-0.3-0.4-0.5-0.7-0.5c-0.5,0.1-0.9,0.4-1.1,0.8c-0.2,0.3-0.3,0.7-0.4,1c-0.2,0.6-0.2,1.2-0.2,1.8
		c0,0.6,0.1,1.1,0.5,1.6C394.9,329.6,394.7,329,394.8,328z"/>
	<path class="sd89savfa19" d="M350.9,320.3l-0.1,27l-33.6,0.1c0.2-3.2,17.6-9.7,17.6-9.7l-0.7-17.3L350.9,320.3z"/>
	<g>
		<path class="sd89savfa16" d="M317.2,347.3c-0.2-1,1.3-1.7,1.3-1.7l32.2-1.1l0.1,2.7L317.2,347.3z"/>
	</g>
	<path class="sd89savfa16" d="M336.2,333c1.1,0.1,1.7,0.7,1.7,0.8c0,0.1-0.8-0.1-1.7-0.2c-0.9-0.1-1.7,0.1-1.7,0
		C334.4,333.4,335.1,332.9,336.2,333z"/>
	<path class="sd89savfa16" d="M336.1,329.7c0.6-0.2,1.1-0.4,1.6-0.6c0.3-0.2,0.6-0.3,0.8-0.5c0.1-0.1,0.3-0.2,0.4-0.3c0-0.1,0.1,0,0-0.2
		c-0.1-0.2-0.4-0.2-0.7-0.1c-0.3,0.1-0.7,0.2-1,0.3c-0.5,0.2-1,0.5-1.5,0.8c-0.8,0.6-1.2,1.1-1.2,1.1s0.2-0.7,1-1.4
		c0.5-0.4,1-0.8,1.5-1c0.3-0.2,0.7-0.3,1-0.4c0.2-0.1,0.4-0.1,0.6-0.1c0.3,0,0.6,0.1,0.7,0.4c0.2,0.3,0.1,0.6-0.1,0.8
		c-0.1,0.2-0.3,0.3-0.5,0.4c-0.3,0.2-0.6,0.4-1,0.5c-0.6,0.3-1.1,0.4-1.8,0.6c-0.6,0.2-1.1,0.2-1.7,0
		C335,329.9,335.5,329.8,336.1,329.7z"/>
	<path class="sd89savfa16" d="M334.6,328.7c0-0.6-0.1-1.1-0.3-1.7c-0.1-0.3-0.2-0.6-0.4-0.9c-0.1-0.3-0.5-0.5-0.6-0.6
		c-0.1,0-0.3,0.3-0.3,0.6c0,0.3,0,0.7,0,1c0.1,0.6,0.2,1.1,0.5,1.6c0.5,0.8,1,1.2,1,1.2c0,0.1-0.7-0.2-1.4-1
		c-0.4-0.5-0.6-1.1-0.7-1.7c-0.1-0.4-0.1-0.8,0-1.1c0-0.2,0.1-0.4,0.2-0.6c0.1-0.3,0.4-0.5,0.7-0.5c0.5,0.1,0.9,0.4,1.1,0.8
		c0.2,0.3,0.3,0.7,0.4,1c0.2,0.6,0.3,1.2,0.2,1.8c0,0.6-0.1,1.1-0.4,1.6C334.5,330.2,334.7,329.6,334.6,328.7z"/>
	<polygon class="sd89savfa16" points="411,152.2 401.5,334.4 374.5,336 380.5,182.4 353.2,335.3 328.5,335.8 353.9,153.3 	"/>
	<path class="sd89savfa6" d="M394.5,71.4l-9.3,37.1l-8.5-1.1l-6.6-27.1V63.7l0.4-4.1c0,0,5.6,16.4,10.4,16.4c5,0,12.2-17.4,12.2-17.4
		l-0.3,10.2L394.5,71.4z"/>
	<path class="sd89savfa19" d="M415.6,207.4l-4.8-65c0,0,3.1-38.6,2.9-37.1c-0.2,1.5-12.3-40.3-12.3-40.3l-8.3-6.3l-0.4,8.5
		c-0.1,1.4-0.4,2.8-0.9,4.1l-13.6,33.2l-0.2,57.2l0.2,43.8L415.6,207.4z"/>
	<path class="sd89savfa19" d="M347.6,74.1l-0.3,23.6l4.5,42.9l-12.5,62.1l36,2.9l2.9-45.1l1.2-57l-5.6-18.7c-1.4-4.7-2.4-9.6-2.8-14.5
		l-0.5-6.4v-3.2l0.1-1.5c0,0-1.3-0.4-3.7,3.8L347.6,74.1z"/>
	<path class="sd89savfa16" d="M389.8,160.2c4.4,4.3,10.5,6.2,16.6,5.2c2.3-0.4,3.7-0.9,3.7-0.8c-0.3,0.2-0.6,0.3-0.9,0.4
		c-0.9,0.3-1.8,0.6-2.7,0.7c-6.2,1.1-12.5-0.9-16.8-5.4c-0.7-0.7-1.2-1.4-1.8-2.1c-0.2-0.3-0.4-0.5-0.5-0.8
		C387.3,157.4,388.1,158.6,389.8,160.2z"/>
	<path class="sd89savfa16" d="M395.7,190.5c1.3,0.8,2.7,1.3,4.2,1.6c1.8,0.3,3.7,0.1,5.4-0.7c1.7-0.8,3-2.3,3.6-4c0.6-1.4,0.9-2.9,1-4.4
		c0.1-2.6,0-4.2,0.1-4.2c0.1,0.4,0.1,0.8,0.1,1.1c0.1,1,0.1,2.1,0.1,3.1c0,1.6-0.4,3.1-0.9,4.6c-0.7,1.8-2.1,3.3-3.8,4.2
		c-1.8,0.8-3.8,1.1-5.7,0.7c-1.5-0.3-3-0.9-4.4-1.7c-0.9-0.6-1.7-1.2-2.5-1.9c-0.3-0.3-0.6-0.5-0.8-0.8
		C393.3,188.9,394.5,189.7,395.7,190.5z"/>
	<path class="sd89savfa16" d="M353.9,158.9c3.7,1.4,7.9,1.5,11.7,0.2c1.5-0.5,2.3-0.9,2.3-0.8c0,0-0.2,0.2-0.6,0.4
		c-0.5,0.3-1.1,0.6-1.7,0.8c-3.8,1.5-8.1,1.4-11.9-0.2c-0.6-0.2-1.1-0.5-1.6-0.8c-0.4-0.2-0.5-0.4-0.5-0.4
		C351.7,157.9,352.5,158.4,353.9,158.9z"/>
	<path class="sd89savfa16" d="M378.1,163.6c0-0.4,0-1,0-1.8c-0.1-1.5-0.1-3.8-0.1-6.6c0-5.6,0.1-13.3,0.2-21.8c0.1-8.5,0.3-16.2,0.5-21.8
		c0.1-2.8,0.2-5,0.2-6.6c0-0.7,0.1-1.3,0.1-1.8c0-0.2,0-0.4,0.1-0.6c0,0.2,0,0.4,0,0.6v1.8c0,1.6-0.1,3.9-0.1,6.6
		c-0.1,5.6-0.2,13.3-0.4,21.8c-0.1,8.5-0.3,16.2-0.3,21.8c0,2.8-0.1,5-0.1,6.6c0,0.7,0,1.3,0,1.8c0,0.2,0,0.4-0.1,0.6
		C378.1,164,378.1,163.8,378.1,163.6z"/>
	<polygon class="sd89savfa20" points="397.4,71.9 399,78.1 380.9,101.9 400.8,81 399.6,73.2 401.3,71.9 	"/>
	<path class="sd89savfa19" d="M359,134.2c7.1,4.5,18.6,7.5,30.2,8.1c16.4,0.8,32.8-2.7,36.7-8c2.3-3.2,2.2-9.9,1.9-19.9
		c-0.3-11.2-3.6-26.6-5-33C421.4,75,401.3,65,401.3,65l8.4,30.6l-1,23.3l-30.6,9"/>
	<path class="sd89savfa16" d="M380.5,102.3l0.3-0.4l1-1.4l3.7-5l12.4-16.4l0.9-1.2v0.1c-0.5-2.1-1-4.2-1.5-6.2v-0.1h4l-0.1,0.1
		c0-2.5,0-4.8,0-6.9v0.1l-6-4.6l-1.6-1.3l-0.4-0.3l-0.1-0.1l0.2,0.1l0.4,0.3l1.7,1.2l6,4.6l0,0v0c0,2,0,4.3,0,6.9V72h-4l0.1-0.1
		c0.5,1.9,1,4,1.5,6.2v0.1v0l-0.9,1.2l-12.5,16.3l-3.8,4.9l-1,1.4L380.5,102.3c-0.1,0.1-0.1,0.1-0.1,0.1L380.5,102.3z"/>
	<path class="sd89savfa19" d="M355.5,84.1l0.7,28.9l34.7-2.1l1.9,12.4c0,0-29.2,9.9-37.1,12.5c-13.2,4.3-18.3-10.9-17.9-17.4
		c0.2-4.1,1.4-23.4,1.9-30.4c0.6-8.6,7.9-14,7.9-14L355.5,84.1z"/>
	<path class="sd89savfa17" d="M392.8,123.4l15.8-4.4l0.1-3.9c0,0-3-2.7-5.3-3.2c-2.3-0.5-12.1,0.5-12.1,0.5L392.8,123.4z"/>
	<path class="sd89savfa16" d="M378.9,103l-0.2-0.4l-0.6-1.4c-0.6-1.3-1.3-3.1-2.3-5.4l-3.3-7.9c-0.3-0.8-0.6-1.5-1-2.3
		c-0.4-0.8-0.8-1.5-1.3-2.3c-1-1.5-2-3-3.1-4.5c-0.5-0.7-1.1-1.4-1.7-2.1l0-0.1v-0.1c0.4-1.1,0.8-2.1,1.2-3.1l0.1,0.1l-5.1-1.8h-0.1
		l0.1-0.1l5.8-9.7c0.3-0.5,0.6-1,1-1.5c0.3-0.4,0.6-0.7,1-1c0.2-0.1,0.5-0.2,0.8-0.3h0.3l-0.3,0.1c-0.3,0.1-0.5,0.2-0.8,0.3
		c-0.8,0.7-1.5,1.6-1.9,2.5l-5.8,9.7l-0.1-0.1l5.1,1.7h0.1v0.1l-1.2,3.1v-0.1c0.6,0.7,1.1,1.4,1.7,2.1c1.1,1.4,2.2,2.9,3.1,4.5
		c0.4,0.8,0.9,1.5,1.3,2.3s0.7,1.5,1,2.3c1.2,3,2.4,5.7,3.3,8c0.9,2.3,1.7,4.1,2.2,5.4c0.2,0.6,0.4,1.1,0.6,1.5
		C378.8,102.8,378.9,103,378.9,103l0.1,0.2C379,103.2,378.9,103.1,378.9,103z"/>
	<path class="sd89savfa16" d="M343.7,133.6l0.4,0.3c0.5,0.4,1,0.8,1.6,1.2c0.9,0.5,1.9,0.9,2.9,1.2c1.4,0.3,2.8,0.4,4.1,0.2
		c0.8-0.1,1.6-0.3,2.4-0.5c0.8-0.2,1.6-0.5,2.5-0.8c1.7-0.6,3.6-1.3,5.5-2c3.9-1.4,8.1-2.8,12.6-4.3c9-2.9,17.2-5.5,23.2-7.2
		c3-0.9,5.4-1.5,7.1-2l1.9-0.5l0.5-0.1h0.2l-0.2,0.1l-0.5,0.2l-1.9,0.6l-7,2.1c-5.9,1.8-14.2,4.3-23.1,7.2
		c-4.5,1.5-8.8,2.9-12.6,4.3c-1.9,0.7-3.8,1.3-5.5,1.9c-0.9,0.3-1.7,0.6-2.5,0.8c-0.8,0.2-1.6,0.4-2.4,0.5c-1.4,0.2-2.8,0.1-4.2-0.3
		c-1-0.3-2-0.7-2.9-1.2c-0.6-0.4-1.1-0.8-1.6-1.2L343.7,133.6l-0.1-0.1C343.6,133.5,343.6,133.5,343.7,133.6z"/>
	<path class="sd89savfa16" d="M409,119c0.3-0.1,0.7-0.1,1.1-0.1c0.5,0,1.1,0.1,1.6,0.2c0.6,0.2,1.2,0.4,1.8,0.8c1,0.6,1.8,1.5,2.4,2.5
		c0.2,0.3,0.3,0.6,0.5,1c0.1,0.2,0.2,0.4,0.1,0.4c0,0-0.2-0.5-0.7-1.3c-0.6-1-1.4-1.8-2.4-2.4c-0.5-0.3-1.1-0.6-1.7-0.8
		c-0.5-0.1-1-0.2-1.5-0.2c-0.9-0.1-1.4,0-1.4,0C408.8,119,408.9,119,409,119z"/>
	<path class="sd89savfa16" d="M418.1,115.7c-0.3-0.3-0.7-0.4-1.1-0.4c-0.6-0.1-1.2-0.1-1.7,0.1c-0.7,0.1-1.4,0.3-2.1,0.5
		c-1.2,0.4-2.4,1.1-3.4,2c-0.7,0.7-1.1,1.2-1.1,1.2c0.1-0.1,0.1-0.3,0.2-0.4c0.2-0.3,0.5-0.6,0.8-0.9c1-0.9,2.1-1.6,3.4-2.1
		c0.7-0.3,1.4-0.4,2.1-0.5c0.6-0.1,1.2-0.1,1.8,0C417.4,115.2,417.8,115.3,418.1,115.7c0.1,0,0.2,0.1,0.2,0.2c0,0.1,0,0.1,0,0.1
		C418.3,116,418.2,115.9,418.1,115.7z"/>
	<path class="sd89savfa16" d="M406.9,88.7c0.1-0.2,0.1-0.4,0.2-0.7c0.1-0.3,0.3-0.6,0.4-0.9c0.4-0.8,1-1.5,1.5-2.1c0.7-0.8,1.5-1.5,2.4-2.1
		c1.6-1.2,3.4-2,5.3-2.4c0.6-0.1,1.2-0.2,1.8-0.2c0.2,0,0.4,0,0.7,0c-0.2,0-0.4,0.1-0.7,0.1c-0.6,0-1.2,0.1-1.7,0.2
		c-1.9,0.4-3.7,1.3-5.2,2.4c-0.9,0.6-1.7,1.3-2.4,2.1c-0.6,0.6-1.1,1.3-1.6,2.1c-0.2,0.3-0.4,0.6-0.5,0.9
		C407.1,88.2,407,88.5,406.9,88.7c0.1,0.2,0,0.4-0.1,0.6C406.8,89.1,406.9,88.9,406.9,88.7z"/>
	<path class="sd89savfa16" d="M348.6,124.7v-0.4c0-0.4,0-1,0-1.7c0.1-2.1,0.5-4.1,1.2-6.1c0.2-0.7,0.5-1.3,0.8-1.9c0.4-0.6,1-1.1,1.7-1.4
		c0.7-0.3,1.5-0.5,2.3-0.5c0.8-0.1,1.7-0.1,2.5-0.1l11.2-0.5l22.6-0.9h0.1v0.1c0.3,1.9,0.5,3.4,0.7,4.5c0.1,0.5,0.2,0.9,0.2,1.2v0.3
		c0,0.1,0,0.1,0,0.1v-0.1c-0.1-0.1-0.1-0.2-0.1-0.3c0-0.3-0.1-0.7-0.2-1.2c-0.2-1.1-0.4-2.5-0.7-4.4l0.1,0.1
		c-5.2,0.3-13.4,0.6-22.6,1l-11.2,0.5c-1.7,0.1-3.4,0-4.8,0.6c-0.7,0.3-1.2,0.8-1.6,1.4c-0.4,0.6-0.6,1.2-0.8,1.8
		c-0.7,1.9-1.1,4-1.2,6c-0.1,0.7-0.1,1.3-0.1,1.7L348.6,124.7c0,0.1,0,0.2,0,0.2C348.6,124.8,348.6,124.8,348.6,124.7z"/>
	<path class="sd89savfa16" d="M355.4,105.2c0,4.1-0.1,7.5-0.1,7.5s-0.1-3.4-0.1-7.5s0.1-7.5,0.1-7.5C355.3,97.7,355.4,101.1,355.4,105.2z"
		/>
	<path class="sd89savfa16" d="M422.6,80.8c0.1,0.2,0.2,0.5,0.3,0.8c0.2,0.7,0.5,1.8,0.8,3.2c0.6,2.8,1.3,6.9,2.2,12
		c0.4,2.5,0.8,5.4,1.3,8.5c0.2,1.5,0.3,3.1,0.5,4.8c0.1,1.6,0.2,3.3,0.3,5.1c0.1,3.5,0.2,7.2,0.1,11.1c0,1-0.1,1.9-0.1,2.9
		c0,0.5-0.1,1-0.2,1.5c-0.1,0.5-0.2,1-0.4,1.5c-0.3,1-0.8,1.9-1.4,2.7c-0.6,0.8-1.5,1.5-2.5,1.9l0,0c-2,1-4.1,1.8-6.2,2.4
		c-2.2,0.7-4.4,1.2-6.7,1.6c-4.9,1-9.9,1.6-14.9,1.8c-2.4,0.1-4.8,0-7.1-0.2c-2.3-0.2-4.6-0.4-6.8-0.7c-4.1-0.6-8.2-1.5-12.2-2.9
		c-3.4-1.1-6.7-2.5-9.8-4.2l-0.2-0.1l0.2-0.1l13.5-4.7l3.6-1.3l0.9-0.4l0.3-0.1l-0.3,0.1l-0.9,0.3l-3.6,1.3l-13.5,4.8v-0.1
		c3.1,1.7,6.4,3.1,9.8,4.2c4,1.3,8,2.3,12.2,2.9c2.2,0.3,4.5,0.6,6.8,0.7c2.4,0.2,4.7,0.2,7.1,0.2c5-0.2,10-0.8,14.9-1.8
		c2.3-0.5,4.5-1,6.6-1.6c2.1-0.6,4.2-1.4,6.2-2.4l0,0c0.9-0.4,1.7-1,2.4-1.8c0.6-0.8,1.1-1.7,1.4-2.6c0.1-0.5,0.3-1,0.4-1.4
		c0.1-0.5,0.2-1,0.2-1.5c0.1-1,0.2-2,0.2-2.9c0.1-3.9,0-7.6-0.1-11.1c-0.1-1.7-0.2-3.4-0.3-5.1c-0.1-1.7-0.2-3.2-0.5-4.8
		c-0.4-3.1-0.8-5.9-1.2-8.5c-0.8-5.1-1.5-9.2-2.1-12c-0.3-1.4-0.6-2.5-0.8-3.2C422.7,81.3,422.7,81.1,422.6,80.8
		c-0.1-0.1-0.1-0.2-0.1-0.2L422.6,80.8z"/>
	<path class="sd89savfa20" d="M408.6,115.4c-0.7-7.5-1.6-14.4-1.9-22.2c-2.9,7.2-3.2,17.2,2,22.9"/>
	<path class="sd89savfa16" d="M406.7,95c0,0.2,0.1,0.4,0.1,0.7c0.1,0.6,0.2,1.5,0.3,2.6c0.2,2.2,0.5,5.2,0.8,8.6c0.3,3.4,0.5,6.4,0.6,8.6
		c0.1,1.1,0.1,2,0.1,2.6c0,0.3,0,0.5,0,0.7c0,0.1,0,0.2,0,0.2c0,0,0.1-0.1,0-0.2c-0.1-0.2-0.1-0.4-0.1-0.7c-0.1-0.6-0.1-1.5-0.2-2.6
		c-0.2-2.2-0.4-5.2-0.7-8.6c-0.3-3.3-0.5-6.4-0.7-8.6c-0.1-1.1-0.2-2-0.2-2.6C406.7,95.4,406.7,95.1,406.7,95c0-0.1,0-0.2,0-0.2
		C406.7,94.8,406.7,94.9,406.7,95z"/>
	<path class="sd89savfa16" d="M394.2,88.9c0,2.4-0.1,4.4-0.1,4.4c-0.1,0-0.1-2-0.1-4.4c0-2.4,0.1-4.4,0.1-4.4
		C394.1,84.5,394.2,86.4,394.2,88.9z"/>
	<path class="sd89savfa20" d="M397.3,94.6c-0.4-1.6-1.8-2.6-3.4-2.6c-1.4,0.2-2.6,1.2-3.1,2.5c-0.7,2.2-0.6,4.5,0.4,6.6
		c0.7,1,1.8,1.6,3,1.5c0.9-0.1,1.7-0.5,2.2-1.2c0.5-0.7,0.9-1.5,0.9-2.3"/>
	<path class="sd89savfa16" d="M396.8,93.7c-0.2-0.3-0.4-0.6-0.7-0.8c-0.6-0.5-1.3-0.8-2.1-0.8c-0.3,0-0.6,0-0.9,0.1
		c-0.6,0.2-1.2,0.6-1.6,1.2c-0.9,1.3-1.3,2.9-1.1,4.4c0,1.2,0.4,2.4,1,3.5c0.7,0.8,1.7,1.3,2.8,1.3l0,0c0.4,0,0.7-0.1,1-0.2
		c0.3-0.1,0.6-0.3,0.8-0.5c0.4-0.4,0.7-0.8,0.9-1.3c0.2-0.4,0.3-0.9,0.4-1.3v0.1c0,0.1,0,0.2,0,0.3c-0.1,0.3-0.1,0.7-0.3,1
		c-0.2,0.5-0.5,1-0.9,1.4c-0.3,0.2-0.5,0.4-0.8,0.6c-0.3,0.2-0.7,0.3-1.1,0.3l0,0c-0.5,0-1.1-0.1-1.6-0.3c-0.6-0.2-1-0.6-1.4-1
		c-0.7-1.1-1-2.3-1.1-3.6c-0.1-0.8,0-1.7,0.2-2.5c0.2-0.8,0.5-1.5,1-2.1c0.4-0.6,1-1,1.7-1.2c0.3-0.1,0.6-0.1,0.9-0.1
		c0.3,0,0.6,0.1,0.8,0.1c0.5,0.1,0.9,0.4,1.3,0.8C396.5,93.1,396.7,93.4,396.8,93.7c0.2,0.2,0.4,0.5,0.4,0.8
		C397.1,94.3,397,94,396.8,93.7z"/>
	<path class="sd89savfa20" d="M398.2,94.7c-0.4-1.6-1.8-2.6-3.4-2.6c-1.4,0.2-2.6,1.2-3.1,2.5c-0.7,2.2-0.6,4.5,0.4,6.6
		c0.7,1,1.8,1.6,3,1.5c0.9-0.1,1.7-0.5,2.2-1.2c0.5-0.7,0.9-1.5,0.9-2.3"/>
	<path class="sd89savfa16" d="M397.8,93.8c-0.2-0.3-0.4-0.6-0.7-0.8c-0.4-0.3-0.8-0.6-1.3-0.7c-0.3-0.1-0.6-0.1-0.8-0.1
		c-0.3,0-0.6,0-0.8,0.1c-0.6,0.2-1.2,0.6-1.6,1.2c-0.9,1.3-1.3,2.9-1.1,4.4c0,1.2,0.4,2.4,1,3.5c0.7,0.8,1.7,1.3,2.8,1.3l0,0
		c0.4,0,0.7-0.1,1-0.2c0.3-0.1,0.6-0.3,0.8-0.6c0.4-0.4,0.7-0.8,0.9-1.3c0.2-0.4,0.3-0.9,0.4-1.3c0,0,0,0.1,0,0.1c0,0.1,0,0.2,0,0.3
		c-0.1,0.3-0.1,0.7-0.3,1c-0.2,0.5-0.5,1-0.9,1.4c-0.3,0.2-0.5,0.4-0.8,0.6c-0.3,0.2-0.7,0.3-1.1,0.3l0,0c-0.5,0-1.1-0.1-1.6-0.3
		c-0.5-0.2-1-0.6-1.4-1c-0.7-1.1-1-2.3-1.1-3.6c-0.1-0.8,0-1.7,0.2-2.5c0.2-0.8,0.5-1.5,1-2.1c0.4-0.6,1-1,1.7-1.2
		c0.3-0.1,0.6-0.1,1-0.1c0.3,0,0.6,0.1,0.8,0.1c0.5,0.2,0.9,0.4,1.3,0.8C397.5,93.1,397.7,93.4,397.8,93.8c0.2,0.2,0.4,0.5,0.4,0.8
		C398.1,94.4,398,94.1,397.8,93.8z"/>
	<path class="sd89savfa20" d="M396.1,94.3c-0.7,0-1.3,0.8-1.5,1.5c-0.3,1.1-0.1,2.3,0.6,3.2c0.4,0.6,1,1,1.7,1c0.5,0,0.9-0.3,1.2-0.6
		c0.3-0.4,0.6-0.8,0.7-1.2c0.3-0.9,0.3-1.8,0-2.7c-0.4-0.9-1.3-1.4-2.2-1.3"/>
	<path class="sd89savfa16" d="M395.5,94.5c-0.5,0.3-0.8,0.8-0.8,1.4c-0.2,0.8-0.1,1.7,0.3,2.4c0.2,0.4,0.5,0.8,0.8,1.1
		c0.4,0.3,0.9,0.5,1.4,0.3c0.5-0.2,0.9-0.5,1.2-0.9c0.2-0.4,0.4-0.9,0.5-1.4c0.2-0.8,0.1-1.7-0.3-2.4c-0.3-0.5-0.8-0.8-1.3-0.9
		c-0.2,0-0.4,0-0.6,0c0,0,0.1-0.1,0.2-0.1c0.2,0,0.3,0,0.5,0c0.6,0.1,1.1,0.4,1.5,0.9c0.5,0.8,0.6,1.7,0.4,2.5
		c-0.1,0.5-0.3,1-0.5,1.4c-0.3,0.5-0.7,0.9-1.3,1c-0.6,0.1-1.2,0-1.6-0.4c-0.4-0.3-0.7-0.7-0.9-1.2c-0.4-0.8-0.5-1.7-0.3-2.5
		C394.6,95.3,395,94.8,395.5,94.5c0.1-0.1,0.2-0.1,0.4-0.2h0.2C395.9,94.4,395.7,94.4,395.5,94.5z"/>
	<path class="sd89savfa16" d="M394.6,100.7c0.2-0.3,0.5-0.5,0.8-0.6c0.3-0.1,0.6-0.1,0.9-0.1c0.2,0,0.4,0,0.4,0.1s-0.1,0.1-0.4,0.1
		c-0.3,0-0.6,0.1-0.8,0.1c-0.3,0.1-0.5,0.2-0.7,0.5c-0.1,0.2-0.2,0.3-0.2,0.3C394.5,101.1,394.5,100.9,394.6,100.7z"/>
	<path class="sd89savfa16" d="M394.2,93.6c0.7,0.5,1.6,0.6,2.4,0.4c0,0-0.1,0.1-0.3,0.2c-0.3,0.1-0.6,0.1-1,0.1c-0.3-0.1-0.6-0.2-0.8-0.4
		C394.3,93.8,394.2,93.6,394.2,93.6L394.2,93.6z"/>
	<path class="sd89savfa16" d="M363.9,65.1c-1.2,1.1-2.1,2.6-2.5,4.2c-0.5,1.6-0.8,3.2-1.1,4.9c-0.1,0.6-0.1,1.1-0.2,1.5
		c0,0.2,0,0.4-0.1,0.6c0-0.2,0-0.4,0-0.6c0-0.4,0.1-0.9,0.1-1.5c0.2-1.7,0.5-3.3,1-4.9c0.5-1.6,1.4-3.1,2.7-4.2
		c0.4-0.3,0.8-0.6,1.2-0.9c0.1-0.1,0.2-0.1,0.4-0.2c0.1-0.1,0.1-0.1,0.1-0.1C365,64.2,364.4,64.6,363.9,65.1z"/>
	<path class="sd89savfa16" d="M370.9,109.9c-1.2,0.3-2,1.8-3.3,1.9c-0.1,0-0.3,0-0.5,0c-0.9,0-1.7-0.8-1.6-1.8c0-0.9,0.8-1.7,1.8-1.6
		c1.2-0.1,2.2,1.1,3.4,1.2"/>
	<path class="sd89savfa16" d="M357.6,109.8c-1.3-1-2.2-2.7-2.5-5.1v-0.1c-0.1-1-0.3-19.4-0.3-22.2c-0.1-3.1,2.1-5.9,5.2-6.4
		c0,0,4.7-0.8,7.1,5.3s6.1,17.7,6.3,19.1l0.1,0.6c0.4,1.8,1.3,5.6-1.4,7.9c-2.9,2.5-5.3,1.5-5.4,1.5l0.2-0.4c0.1,0,2.2,0.9,4.9-1.4
		c2.4-2.1,1.6-5.7,1.2-7.5c-0.1-0.2-0.1-0.4-0.1-0.6c-0.3-1.4-4-13-6.3-19c-2.2-5.8-6.4-5-6.6-5c-2.9,0.5-5,3.1-4.8,6
		c0,3.4,0.2,21.2,0.3,22.1v0.1c0.3,2.3,1.1,3.9,2.4,4.8c1.1,0.7,2.4,1,3.7,0.7l0.1,0.4c-0.4,0.1-0.7,0.1-1.1,0.1
		C359.5,110.7,358.5,110.4,357.6,109.8z"/>
	<path class="sd89savfa16" d="M355,85.7c0-0.1,0-0.3,0.1-0.4c0.1-0.5,0.3-1.1,0.6-1.6c0.4-0.7,1-1.3,1.7-1.9c0.8-0.6,1.7-1.1,2.8-1.3
		c1-0.2,2-0.2,3-0.1c0.8,0.1,1.6,0.4,2.3,0.8c0.5,0.3,0.9,0.6,1.4,1c0.2,0.1,0.2,0.2,0.3,0.3c0.1,0.1,0.1,0.1,0.1,0.1
		c-0.6-0.5-1.2-0.9-1.8-1.3c-1.6-0.8-3.5-1.1-5.3-0.7c-1,0.2-1.9,0.7-2.7,1.3c-0.7,0.5-1.2,1.1-1.7,1.8c-0.4,0.6-0.7,1.3-0.8,2.1
		C355,85.9,355,85.8,355,85.7z"/>
	<path class="sd89savfa16" d="M344.4,118.6c0.1-0.5,0.2-0.9,0.4-1.3c0.6-1.4,1.6-2.7,2.9-3.5c0.7-0.4,1.5-0.7,2.4-0.8
		c0.7-0.1,1.4-0.2,2-0.2h1.4c0.2,0,0.3,0,0.5,0c-0.2,0-0.3,0.1-0.5,0.1l-1.4,0.1c-0.6,0-1.3,0.1-2,0.2c-0.8,0.1-1.6,0.4-2.3,0.8
		c-1.2,0.8-2.2,2-2.8,3.4c-0.2,0.6-0.4,1.2-0.6,1.8C344.4,119,344.4,118.8,344.4,118.6z"/>
	<path class="sd89savfa17" d="M353.5,112.8l-2,0.1c-0.5-1.2-6.8-5.3-7.8-6.1c-0.7-0.5-1.2-1.3-1.2-2.2c0-0.6,2.1-0.3,2.1-0.3
		c-0.4-0.6-0.4-1.5,0-2.1c0.4-0.5,4.2,0.8,4.2,0.8s-0.6-1.4,0.4-2.1c1-0.6,10,3.4,11,4.2c1,0.8,5.1,7,5.1,7L353.5,112.8z"/>
	<path class="sd89savfa21" d="M352.6,109.1c-0.9-0.9-1.9-1.8-3-2.4c-1.1-0.6-2.3-1.2-3.5-1.7l-1.1-0.5c-0.1-0.1-0.3-0.1-0.4-0.2
		c0.1,0,0.3,0.1,0.4,0.1l1.1,0.4c1.2,0.5,2.4,1,3.5,1.7c1.1,0.7,2.1,1.5,3,2.5c0.2,0.3,0.5,0.6,0.7,1c0.1,0.1,0.1,0.2,0.2,0.4
		C353.5,110.4,353.3,109.9,352.6,109.1z"/>
	<path class="sd89savfa21" d="M358.6,109.9l-0.7-1.2c-0.3-0.6-0.7-1.1-1.2-1.6c-0.2-0.3-0.5-0.6-0.8-0.8c-0.3-0.2-0.7-0.4-1.1-0.7
		c-1.3-0.8-2.6-1.5-4-2.1c-1-0.5-1.7-0.7-1.7-0.7c0.2,0,0.3,0,0.5,0.1c0.4,0.1,0.9,0.3,1.3,0.4c1.4,0.6,2.7,1.2,4,2
		c0.4,0.2,0.7,0.4,1.1,0.7c0.3,0.3,0.6,0.5,0.8,0.8c0.4,0.5,0.8,1.1,1.1,1.7C358.2,109.2,358.4,109.6,358.6,109.9
		c0.1,0.1,0.2,0.3,0.2,0.4C358.7,110.2,358.6,110.1,358.6,109.9z"/>
</g>
</svg>
