<?xml version="1.0" encoding="utf-8"?>
<!-- Generator: Adobe Illustrator 24.0.3, SVG Export Plug-In . SVG Version: 6.00 Build 0)  -->
<svg version="1.1" id="Layer_1" xmlns="http://www.w3.org/2000/svg" xmlns:xlink="http://www.w3.org/1999/xlink" x="0px" y="0px"
	 viewBox="0 0 750 500" style="enable-background:new 0 0 750 500;" xml:space="preserve">
<style type="text/css">
	.st0{fill:#EAE8F7;}
	.st1{fill:#E0E0E0;}
	.st2{fill:#F7F7F7;}
	.st3{fill:#FFFFFF;}
	.st4{fill:#FAFAFA;}
	.st5{fill:#04AF65;}
	.st6{opacity:0.3;}
	.st7{fill:#263238;}
	.st8{fill:#FFBE9D;}
	.st9{fill:#455A64;}
	.st10{fill:#EB996E;}
	.st11{fill:#B78876;}
	.st12{fill:#AA6550;}
</style>
<g id="freepik--background-complete--inject-2">
	<path class="st0" d="M620.6,448.3c-24.1-14.8-31.2-44.5-31.9-71.5c-0.1-4.5-0.9-9.2,1-13.3s6.7-7.1,10.9-5.4
		c3.4,1.4,5.1,5.2,7.2,8.3c2.8,4.1,6.6,7.4,11.2,9.5c3,1.3,6.6,2,9.3,0.3c3.8-2.4,3.9-7.8,3.6-12.2c-0.5-8.3-1.1-16.7-1.7-25
		c-0.3-4.5-0.6-9,0.5-13.4s4-8.5,8.2-9.9s9.6,0.7,10.8,5c0.5,1.8,0.2,3.7,0.5,5.6s1.2,3.9,3,4.3s3.5-1,4.8-2.4
		c4.3-4.8,7.1-10.8,9.7-16.8s5.1-12.1,9-17.3s9.5-9.4,15.9-10.2s13.5,2.8,15.5,9s-1.3,12.9-5,18.2c-5.5,7.9-12.1,15-19.6,21.1
		c-1.4,1.1-2.8,2.3-3.3,4c-0.8,3,2.2,5.8,5.2,6.6c3.4,0.9,7,0.4,10.5,0.5s7.4,1.5,8.9,4.7c2.1,4.5-1.4,9.5-5,12.9
		c-7.2,6.7-15.4,12.2-24.5,16.1c-3.2,1.4-6.6,2.7-9.1,5.1s-3.9,6.6-2.1,9.7s6,3.8,9.4,3s6.4-2.9,9.6-4.4c6-2.7,14-2.8,18.2,2.3
		c2.8,3.3,3.3,8.2,2.3,12.5s-3.5,8-6.1,11.5c-9.2,12.2-21.2,22.2-35.2,28.1S635.1,452.8,620.6,448.3"/>
	<path class="st1" d="M626.5,431c3.6-15,8-29.7,13.3-44.2c1.4-3.8,2.7-7.6,4.1-11.4c1.3-3.7,2.7-7.4,4.2-11c3-6.8,6.3-13.4,10-19.9
		c3.5-6.2,7-11.9,10.3-17.2s6.6-10.2,9.7-14.6c4.9-6.9,10.3-13.4,16.2-19.4c2.1-2.1,3.8-3.7,4.9-4.8l1.3-1.2
		c0.1-0.1,0.3-0.3,0.5-0.4c0,0-0.1,0.2-0.4,0.5l-1.3,1.3c-1.1,1.1-2.8,2.7-4.8,4.9c-5.8,6.1-11.2,12.6-16,19.5
		c-3.1,4.4-6.3,9.3-9.6,14.6s-6.8,11.1-10.3,17.2c-3.7,6.4-7,13-9.9,19.8c-1.5,3.5-2.8,7.2-4.2,11s-2.7,7.5-4.1,11.4
		c-5.3,14.4-9.7,29.1-13.4,44.1"/>
	<path class="st1" d="M648.4,364.4c-0.2-0.6-0.4-1.2-0.5-1.9c-0.3-1.2-0.7-3-1.2-5.2c-0.9-4.4-1.9-10.6-3.1-17.4s-2.2-12.9-3.2-17.3
		c-0.5-2.2-0.9-4-1.2-5.2c-0.2-0.6-0.3-1.3-0.4-1.9c0.3,0.6,0.5,1.2,0.7,1.8c0.4,1.2,0.9,3,1.4,5.1c1.1,4.4,2.3,10.5,3.5,17.3
		s2.1,12.8,2.8,17.4c0.3,2.1,0.7,3.9,0.9,5.3C648.3,363.1,648.4,363.7,648.4,364.4z"/>
	<path class="st1" d="M705.3,350.1c-0.8,0.2-1.5,0.3-2.3,0.4c-1.5,0.2-3.6,0.5-6.2,1c-5.2,0.9-12.4,2.4-20.3,4.4s-14.9,4.1-20,5.8
		c-2.5,0.8-4.6,1.5-6,2c-0.7,0.3-1.5,0.5-2.2,0.7c0.7-0.4,1.4-0.7,2.1-1c1.4-0.6,3.4-1.4,5.9-2.3c5-1.8,12.1-4,20-6
		c6.7-1.7,13.6-3.1,20.4-4.1c2.6-0.4,4.8-0.6,6.3-0.7C703.8,350.2,704.5,350.1,705.3,350.1z"/>
	<path class="st1" d="M627.2,429.9c-0.2-0.2-0.3-0.4-0.4-0.7c-0.3-0.5-0.7-1.2-1.1-2c-1-1.8-2.3-4.4-3.9-7.6
		c-3.2-6.4-7.3-15.5-11.7-25.5s-8.4-19.1-11.5-25.6l-3.6-7.7l-1-2.1c-0.1-0.2-0.2-0.5-0.3-0.8c0.2,0.2,0.3,0.4,0.4,0.7l1.1,2
		c1,1.8,2.3,4.4,3.9,7.6c3.2,6.4,7.3,15.5,11.7,25.5s8.4,19.1,11.5,25.5l3.6,7.7l1,2.1C627,429.4,627.1,429.6,627.2,429.9z"/>
	<path class="st1" d="M702.2,400.6c-0.2,0.2-0.5,0.3-0.7,0.4l-2.2,0.9l-8,3.1c-6.8,2.7-16.1,6.5-26.4,10.6s-19.7,7.9-26.5,10.4
		c-3.4,1.3-6.2,2.2-8.1,2.9l-2.2,0.7c-0.3,0.1-0.5,0.2-0.8,0.2c0.2-0.1,0.5-0.3,0.7-0.4l2.2-0.9l8-3.1c6.8-2.7,16.1-6.5,26.4-10.6
		s19.7-7.9,26.5-10.4c3.4-1.3,6.2-2.3,8.1-2.9l2.2-0.7C701.6,400.7,701.9,400.6,702.2,400.6z"/>
	<path class="st0" d="M632.5,141.3c-4.1,10.3-10.7,26.9-13.7,34.6c-0.9,2.3,0.2,4.8,2.5,5.7l28.1,11.2c2.3,0.9,4.8-0.2,5.7-2.4
		c0,0,0,0,0,0l13.7-34.3c2-5-0.4-10.7-5.4-12.7c0,0,0,0,0,0l0,0l2-5l-18.4-7.3l-1.9,4.7h-0.1C640,133.9,634.5,136.4,632.5,141.3z"/>
	<polygon class="st1" points="646.7,131.6 645.7,133.9 663.9,141.9 665.1,138.9 	"/>
	<path class="st2" d="M650.3,124.2l17.2,6.8c1.5,0.6,2.3,2.4,1.7,3.9l-1.8,4.6c-0.4,1-1.5,1.5-2.5,1.1l-19.2-7.6
		c-1-0.4-1.5-1.5-1.1-2.5l1.8-4.6C647.1,124.4,648.8,123.6,650.3,124.2L650.3,124.2z"/>
	<path class="st1" d="M646.8,133.4c0.4-1.6,0.9-3.2,1.6-4.6c0.5-1.6,1.2-3,2.1-4.5c-0.4,1.6-0.9,3.2-1.6,4.7
		C648.4,130.5,647.7,132,646.8,133.4z"/>
	<path class="st1" d="M649.3,134.4c0.4-1.6,0.9-3.2,1.6-4.6c0.5-1.6,1.2-3,2.1-4.4c-0.4,1.6-0.9,3.2-1.6,4.6
		C650.8,131.5,650.1,133,649.3,134.4z"/>
	<path class="st1" d="M651.7,135.4c0.4-1.6,0.9-3.2,1.6-4.6c0.5-1.6,1.2-3.1,2.1-4.5c-0.4,1.6-0.9,3.2-1.6,4.7
		C653.2,132.5,652.5,134,651.7,135.4z"/>
	<path class="st1" d="M654.1,136.3c0.4-1.6,0.9-3.2,1.6-4.6c0.5-1.6,1.2-3.1,2.1-4.5c-0.4,1.6-0.9,3.2-1.6,4.7
		C655.7,133.4,655,134.9,654.1,136.3z"/>
	<path class="st1" d="M656.6,137.3c0.4-1.6,0.9-3.2,1.6-4.6c0.5-1.5,1.2-3,2-4.4c-0.4,1.6-0.9,3.2-1.6,4.6
		C658.1,134.4,657.4,135.9,656.6,137.3z"/>
	<path class="st1" d="M659,138.3c0.4-1.6,0.9-3.2,1.6-4.6c0.5-1.6,1.2-3,2-4.5c-0.4,1.6-0.9,3.2-1.6,4.6
		C660.5,135.4,659.8,136.9,659,138.3z"/>
	<path class="st1" d="M661.4,139.2c0.4-1.6,0.9-3.2,1.6-4.6c0.5-1.6,1.2-3,2.1-4.5c-0.4,1.6-0.9,3.2-1.6,4.6
		C662.9,136.3,662.3,137.8,661.4,139.2z"/>
	<path class="st1" d="M663.8,140.2c0.4-1.6,0.9-3.2,1.6-4.6c0.5-1.6,1.2-3.1,2.1-4.5c-0.4,1.6-0.9,3.2-1.6,4.6
		C665.4,137.3,664.7,138.8,663.8,140.2z"/>
	<path class="st2" d="M637.1,148.9l23.7,9.4c0.8,0.3,1.1,1.2,0.8,1.9l-5.9,14.7c-0.3,0.8-1.2,1.1-1.9,0.8l-23.7-9.4
		c-0.8-0.3-1.1-1.2-0.8-1.9l5.9-14.7C635.4,148.9,636.3,148.6,637.1,148.9z"/>
	<path class="st1" d="M653.9,174.4c0-0.1,0.1-0.2,0.1-0.3l0.3-0.8l1.2-3.1c1-2.7,2.5-6.4,4.3-11l0.1,0.3l-23.2-9.2
		c-0.1,0,0.6-0.3,0.3-0.1l0,0l0,0l0,0v0.1l0,0.1l-0.1,0.2l-0.2,0.5l-0.4,1c-0.3,0.7-0.5,1.3-0.8,2c-0.5,1.3-1,2.6-1.5,3.9l-2.9,7.3
		l-0.1-0.3l16.6,6.7l4.8,2l1.3,0.5C653.6,174.2,653.8,174.3,653.9,174.4l-0.4-0.1l-1.2-0.5l-4.8-1.8l-16.8-6.6l-0.2-0.1l0.1-0.2
		c0.9-2.3,1.9-4.8,2.9-7.3c0.5-1.3,1-2.6,1.5-3.9c0.3-0.7,0.5-1.3,0.8-2l0.4-1l0.2-0.5l0.1-0.2l0-0.1v-0.1l0,0l0,0l0.3-0.1L660,159
		l0.2,0.1l-0.1,0.2c-1.9,4.6-3.4,8.4-4.5,11.1l-1.3,3l-0.3,0.8C653.9,174.3,653.9,174.4,653.9,174.4z"/>
	<path class="st1" d="M654.4,162.7c-2.7-0.8-5.4-1.8-8-2.9c-2.7-1-5.3-2.1-7.8-3.4c2.7,0.8,5.4,1.8,8,2.9
		C649.2,160.3,651.8,161.4,654.4,162.7z"/>
	<path class="st1" d="M653.3,165.4c-2.7-0.8-5.4-1.8-8-2.9c-2.7-1-5.2-2.1-7.8-3.4c2.7,0.8,5.4,1.8,8,2.9
		C648.2,162.9,650.8,164.1,653.3,165.4z"/>
	<path class="st1" d="M652.3,167.9c-2.7-0.8-5.4-1.8-8-2.9c-2.7-1-5.3-2.1-7.8-3.4c2.7,0.8,5.4,1.8,8,2.9
		C647.2,165.5,649.8,166.6,652.3,167.9z"/>
	<path class="st1" d="M662.3,142.8c-2.9-0.9-5.8-1.9-8.7-3.2c-2.9-1.1-5.7-2.3-8.5-3.7c3,0.9,5.9,1.9,8.7,3.2
		C656.7,140.2,659.6,141.4,662.3,142.8z"/>
	<path class="st3" d="M621.1,174.5c0.1-0.6,0.3-1.1,0.6-1.7c0.4-1.1,1-2.6,1.7-4.4c1.5-3.8,3.5-8.9,5.8-14.6c1.2-2.8,2.2-5.6,3.2-8
		c0.8-2.3,2-4.3,3.7-6.1c1.1-1.2,2.6-1.9,4.2-2.2c0.4-0.1,0.9-0.1,1.3,0c0.2,0,0.3,0.1,0.4,0.1c-0.6,0-1.1,0-1.7,0.1
		c-1.5,0.3-2.9,1.1-4,2.2c-1.6,1.7-2.7,3.8-3.5,6c-1,2.5-2.1,5.2-3.2,8c-2.3,5.7-4.4,10.8-5.9,14.6l-1.8,4.4
		C621.7,173.5,621.4,174,621.1,174.5z"/>
	<path class="st3" d="M652.7,192.6c-0.4-0.3-0.8-0.6-1.1-0.9c-0.3-0.3-0.8-0.7-1.3-1.1s-1.1-0.9-1.7-1.4c-1.5-1.1-3.1-2.2-4.8-3.2
		c-2-1.1-4.1-2.1-6.3-3c-2.2-0.9-4.4-1.6-6.7-2.1c-1.9-0.4-3.7-0.8-5.6-1c-0.8-0.1-1.5-0.1-2.2-0.2s-1.2-0.1-1.7-0.1
		c-0.5,0-1,0-1.4-0.1c0.5-0.1,0.9-0.1,1.4-0.1c0.5,0,1,0,1.7,0s1.4,0,2.2,0.1c1.9,0.2,3.8,0.5,5.7,0.9c2.3,0.5,4.6,1.2,6.8,2.1
		c2.2,0.9,4.3,1.9,6.3,3.1c1.7,1,3.2,2.1,4.8,3.3c0.7,0.5,1.2,1,1.7,1.4c0.4,0.4,0.8,0.7,1.2,1.1
		C652.1,191.9,652.4,192.2,652.7,192.6z"/>
	<path class="st0" d="M48.8,222.2l77.4-37.3c1.2-0.6,2.6-0.1,3.2,1.1l52,108c0.6,1.2,0.1,2.6-1.1,3.2l-77.4,37.3
		c-1.2,0.6-2.6,0.1-3.2-1.1l-52-108C47.1,224.3,47.6,222.8,48.8,222.2z"/>
	
		<rect x="73.5" y="200.3" transform="matrix(0.9011 -0.4337 0.4337 0.9011 -100.7426 74.9249)" class="st4" width="80.6" height="116"/>
	<path class="st2" d="M104.2,200.5c-3-2.3-7-2.7-10.3-1.1l-2.2-4.4c-1.6-3.4-5.6-4.8-9-3.2l0,0c-3.4,1.6-4.8,5.7-3.2,9c0,0,0,0,0,0
		l2.2,4.6l-1.6,0.8c-3.3,1.7-5.4,5-5.4,8.7v2.3l31.6-15.2L104.2,200.5z M87.4,201.2c-1.8,0.9-4,0.1-4.9-1.7c-0.9-1.8-0.1-4,1.7-4.9
		c1.8-0.9,4-0.1,4.9,1.7C89.9,198.1,89.2,200.3,87.4,201.2C87.4,201.2,87.4,201.2,87.4,201.2z"/>
	<path class="st1" d="M86.4,225.3c0.1,0.1-4.3,2.4-9.7,5s-9.9,4.6-10,4.5s4.3-2.4,9.7-5S86.4,225.2,86.4,225.3z"/>
	<path class="st1" d="M77.8,233.6c-1.5,1-3,1.8-4.6,2.5c-1.5,0.8-3.2,1.5-4.9,2c1.5-1,3-1.8,4.7-2.5
		C74.5,234.8,76.2,234.1,77.8,233.6z"/>
	<path class="st1" d="M128.6,220.6c0.1,0.1-12.2,6.1-27.3,13.4s-27.5,13.1-27.5,13s12.2-6.2,27.3-13.5S128.5,220.4,128.6,220.6z"/>
	<path class="st1" d="M131.1,225.8c0.1,0.1-12.2,6.1-27.3,13.4s-27.5,13.1-27.5,13s12.2-6.1,27.3-13.4S131,225.6,131.1,225.8z"/>
	<path class="st1" d="M133.6,231c0.1,0.1-12.2,6.1-27.3,13.4s-27.5,13.1-27.5,13s12.2-6.1,27.3-13.4S133.5,230.9,133.6,231z"/>
	<path class="st1" d="M136.1,236.2c0.1,0.1-12.2,6.1-27.3,13.4s-27.5,13.1-27.5,13s12.2-6.1,27.3-13.4S136.1,236.1,136.1,236.2z"/>
	<path class="st1" d="M138.6,241.4c0.1,0.1-12.2,6.1-27.3,13.4c-15.1,7.3-27.5,13.1-27.5,13s12.2-6.2,27.3-13.5
		S138.6,241.3,138.6,241.4z"/>
	<path class="st1" d="M141.1,246.7c0.1,0.1-12.2,6.1-27.3,13.4c-15.1,7.3-27.5,13.1-27.5,13s12.2-6.1,27.3-13.4
		S141.1,246.6,141.1,246.7z"/>
	<path class="st1" d="M116,264.6c-0.3,0.2-0.6,0.4-1,0.6l-2.9,1.5c-2.5,1.2-5.9,2.9-9.7,4.7s-7.2,3.5-9.7,4.6l-3,1.3
		c-0.4,0.2-0.7,0.3-1.1,0.4c0.3-0.2,0.6-0.4,1-0.6l2.9-1.5c2.5-1.2,5.9-2.9,9.7-4.7s7.2-3.4,9.7-4.6l3-1.3
		C115.2,264.8,115.6,264.7,116,264.6z"/>
	<path class="st1" d="M124.7,206.4c-1.3,0.9-2.8,1.7-4.3,2.4c-1.4,0.8-2.9,1.4-4.5,1.9c1.3-0.9,2.8-1.7,4.3-2.4
		C121.6,207.4,123.1,206.8,124.7,206.4z"/>
	<path class="st1" d="M109,282c-2.2,1.4-4.6,2.6-7,3.7c-2.3,1.2-4.8,2.3-7.2,3.2c2.2-1.4,4.6-2.6,7-3.7
		C104.1,284,106.5,282.9,109,282z"/>
	<path class="st1" d="M111.8,286.5c-2.3,1.4-4.7,2.6-7.1,3.7c-2.4,1.2-4.8,2.3-7.3,3.2c2.3-1.4,4.7-2.6,7.1-3.7
		C106.8,288.5,109.3,287.4,111.8,286.5z"/>
	<path class="st1" d="M150,261.4c-1,0.8-2.1,1.4-3.3,1.9c-1.1,0.6-2.3,1.1-3.6,1.4c1-0.8,2.1-1.4,3.3-1.9
		C147.6,262.2,148.8,261.7,150,261.4z"/>
	<path class="st1" d="M152.3,265.5c-1,0.8-2.1,1.4-3.3,1.9c-1.1,0.6-2.3,1.1-3.6,1.4c1-0.8,2.1-1.4,3.3-1.9
		C149.8,266.3,151,265.9,152.3,265.5z"/>
	<path class="st1" d="M107.5,294.7c-1,0.8-2.1,1.4-3.2,1.8c-1.1,0.6-2.2,1.1-3.4,1.4c1-0.8,2.1-1.4,3.2-1.9
		C105.2,295.4,106.3,295,107.5,294.7z"/>
	<path class="st1" d="M154.9,270.4c-0.7,0.6-1.5,1.1-2.4,1.4c-0.8,0.5-1.7,0.8-2.6,1c0.7-0.6,1.5-1.1,2.4-1.4
		C153.1,270.9,154,270.6,154.9,270.4z"/>
	<path class="st1" d="M105.9,309.3c0.1-0.1,0.2-0.1,0.3-0.2l0.8-0.6l3.2-2.1l11.6-7.3l0.2-0.1l0.1,0.2c0.5,1.4,0.6,3,0.1,4.4
		c-0.5,1.6-1.7,2.9-3.2,3.5c-1.7,0.7-3.5,0.5-5-0.5c-1.5-1.1-2.1-3.1-1.7-4.9c0.2-0.7,0.5-1.3,1-1.8c0.1-0.1,0.2-0.3,0.4-0.4
		c0.1-0.1,0.3-0.2,0.4-0.3c0.2-0.1,0.5-0.1,0.7,0c0.2,0.1,0.3,0.3,0.4,0.5c0.6,1.1,0.9,2.4,1,3.7c0.1,1.2-0.1,2.5-0.6,3.6
		c-0.4,1.2-1.1,2.2-2.2,2.9c-1,0.6-2.4,0.6-3.4-0.1c-0.9-0.6-1.6-1.5-2-2.5c-0.5-1.9-0.5-3.8,0-5.6l0.1-0.4l0.3,0.3
		c1.1,1.2,1.7,2.7,1.9,4.3c0.1,1.2,0,2.4-0.3,3.5c-0.2,0.7-0.6,1.4-1,2c-0.2,0.2-0.3,0.4-0.4,0.5s-0.1,0.1-0.1,0.1
		c0.6-0.8,1-1.7,1.3-2.7c0.3-1.1,0.4-2.3,0.2-3.5c-0.2-1.5-0.9-3-1.9-4.1l0.3-0.1c-0.4,1.8-0.4,3.7,0,5.4c0.3,0.9,1,1.7,1.8,2.3
		c0.9,0.6,2,0.6,2.9,0c0.9-0.6,1.6-1.6,1.9-2.6c0.4-1.1,0.6-2.3,0.5-3.5c-0.1-1.2-0.4-2.4-1-3.5c0-0.1-0.1-0.2-0.2-0.3
		c-0.1,0-0.2,0-0.2,0c-0.2,0.1-0.5,0.3-0.7,0.5c-0.4,0.5-0.7,1-0.8,1.6c-0.4,1.6,0.1,3.3,1.5,4.3c1.3,0.9,3,1.1,4.5,0.5
		c1.4-0.5,2.5-1.7,2.9-3.1c0.4-1.3,0.4-2.8-0.1-4.1l0.3,0.1l-11.7,7.1l-3.3,2l-0.9,0.5C106,309.2,106,309.3,105.9,309.3z"/>
	<path class="st1" d="M157.8,284.1c0,0.3-0.1,0.6-0.2,0.9c-0.1,0.4-0.3,0.7-0.5,1.1c-0.3,0.5-0.7,0.8-1.2,1c-0.3,0.1-0.7,0.1-1,0
		c-0.3-0.1-0.6-0.4-0.8-0.6c-0.4-0.6-0.8-1.2-1.1-1.9l-2.4-4.6l0.4-0.1c-0.1,2.3-0.2,4.8-0.3,7.4c0,0.6,0,1.2-0.1,1.9v1l-0.4-0.9
		c-1.4-2.8-2.6-5.4-3.8-7.7h0.4c-0.6,2.3-1,4.6-1,7c0,1.7,0.1,2.7,0.1,2.7c-0.1-0.2-0.1-0.5-0.1-0.7c-0.1-0.7-0.1-1.3-0.2-2
		c-0.1-2.4,0.2-4.8,0.8-7.1l0.1-0.6l0.3,0.5l3.8,7.7l-0.5,0.1c0-0.6,0-1.2,0.1-1.9c0.1-2.6,0.2-5.1,0.3-7.4V279l0.4,0.8
		c0.9,1.6,1.7,3.2,2.4,4.6c0.3,0.6,0.7,1.3,1.1,1.9c0.3,0.5,0.9,0.7,1.4,0.6c0.8-0.3,1.4-1,1.6-1.8
		C157.5,284.8,157.6,284.4,157.8,284.1z"/>
	<path class="st1" d="M157.7,280.4c0.1,0.1-4.1,3.1-9.2,6.6s-9.4,6.3-9.5,6.1s4-3.1,9.2-6.6S157.6,280.3,157.7,280.4z"/>
	<path class="st1" d="M162.8,281.3c-2.1,2.2-4.4,4.2-6.8,6.1c-2.3,2.1-4.6,4-7.1,5.8c2.1-2.2,4.4-4.2,6.8-6.1
		C157.9,285,160.3,283,162.8,281.3z"/>
	<path class="st0" d="M199.3,65.8h-4.2L186,53v-8.4c0,0-6.5-0.4-5.7,10.6s-0.1,8.2-0.1,8.2s-13.8,0.1-15,1.3
		c-0.8,0.9-1.2,14.6-1.4,22c-0.2,3.7,2.2,7,5.7,8.1c0.5,0.1,1,0.2,1.4,0.2c3.4,0,21-2.8,21-2.8h7.3L199.3,65.8z"/>
	<polygon class="st0" points="211.4,63.5 208.8,92.3 201.6,92.3 201.6,64.1 	"/>
</g>
<g id="heart-beating">
	<g>
		<path class="st5" d="M524,68.4c-1.1-8.8-8.5-16.9-17.3-16.9c-5.2,0-10.2,2.7-13.7,6.5c-1.3,1.3-2.4,2.7-3.5,4.1
			c-0.7-1.6-1.6-3.2-2.6-4.7c-2.7-4.4-7.1-8.1-12.2-9.1c-8.6-1.7-17.5,4.8-20.3,13.2s-0.5,17.8,4.1,25.3s12.5,17.4,27,22.3
			c10-1.3,23.5-10.2,29.4-16.7S525,77.1,524,68.4z"/>
		<path class="st4" d="M520.8,84.1c-0.1,0-0.2,0-0.3,0l-0.8-0.1l-3.3-0.3l-12-1.1l0.2-0.1c-1.5,3.8-3.1,8.2-5,13l-0.3,0.8l-0.2-0.8
			c-1.5-6.3-3.2-13.4-5-20.9c-0.5-2.3-1.1-4.6-1.6-6.8l0.5,0.1l-9.2,12.6l-0.1,0.1h-0.1l-21.1-2.2l-6-0.7l-1.6-0.2
			c-0.2,0-0.4,0-0.5-0.1c0.2,0,0.4,0,0.5,0l1.6,0.1l6,0.5l21.1,2l-0.2,0.1l9.1-12.6l0.4-0.5l0.1,0.6c0.5,2.2,1.1,4.5,1.6,6.8l5,20.9
			h-0.5c1.9-4.8,3.6-9.2,5.1-13l0-0.2h0.2l12,1.3l3.2,0.4l0.8,0.1C520.6,84,520.7,84.1,520.8,84.1z"/>
	</g>
	<rect x="300.2" y="123.1" class="st5" width="6.6" height="29.6"/>
	<rect x="288.7" y="134.5" class="st5" width="29.6" height="6.6"/>
	<path class="st5" d="M328.1,137.9c0-0.1,0-0.3,0-0.4c0-0.3,0-0.7-0.1-1.2c0-0.3,0-0.6-0.1-0.9s-0.1-0.7-0.2-1
		c-0.1-0.9-0.3-1.7-0.5-2.5c-0.6-2.3-1.5-4.5-2.7-6.5c-6-10.1-18.3-14.5-29.4-10.4c-1.1,0.4-2.2,0.9-3.2,1.4c-1,0.6-2,1.2-3,1.9
		c-1,0.7-1.9,1.5-2.8,2.3c-0.9,0.9-1.7,1.8-2.4,2.8c-1.5,2-2.7,4.3-3.5,6.7c-1.7,5-1.7,10.4,0,15.4c0.8,2.4,2,4.7,3.5,6.7
		c0.7,1,1.5,1.9,2.4,2.8c0.9,0.8,1.8,1.6,2.8,2.4c1,0.7,2,1.4,3,1.9c1,0.5,2.1,1,3.2,1.4c11,4,23.3-0.4,29.4-10.4
		c1.2-2,2.2-4.2,2.7-6.5c0.2-0.8,0.4-1.7,0.5-2.5c0.1-0.4,0.1-0.7,0.2-1s0-0.6,0.1-0.9c0-0.5,0.1-0.9,0.1-1.2
		C328.1,138.2,328.1,138.1,328.1,137.9c0,0.2,0,0.3,0,0.4c0,0.3,0,0.7,0,1.2v0.9c0,0.3-0.1,0.7-0.1,1c-0.1,0.9-0.3,1.7-0.5,2.6
		c-0.6,2.3-1.5,4.6-2.7,6.6c-3.6,6.2-9.8,10.4-16.8,11.8c-4.3,0.8-8.8,0.4-13-1.1c-1.1-0.4-2.2-0.9-3.2-1.4
		c-2.1-1.2-4.1-2.7-5.9-4.4c-0.9-0.9-1.7-1.9-2.4-2.9c-1.6-2.1-2.8-4.4-3.6-6.9c-0.8-2.5-1.3-5.2-1.3-7.9c0-2.7,0.5-5.3,1.3-7.9
		c0.8-2.5,2-4.8,3.6-6.9c0.7-1,1.6-2,2.4-2.9c0.9-0.9,1.8-1.7,2.8-2.4c5.5-4.1,12.5-5.7,19.3-4.4c7,1.3,13.1,5.6,16.7,11.8
		c1.2,2.1,2.1,4.3,2.7,6.6c0.2,0.8,0.4,1.7,0.5,2.6c0,0.4,0.1,0.7,0.1,1v0.9c0,0.5,0,0.9,0,1.2C328.1,137.6,328.1,137.8,328.1,137.9
		z"/>
</g>
<g id="freepik--character-3--inject-2">
	<path class="st5" d="M632.7,341.7c0,0,29.3-7,30.2-8.2l-24.1-62c-4.7-12.9-15.1-23-28.1-27.4c-9.1-3.2-18.8-4.7-28.4-4.4l-40.6-2.1
		c-11.2,0.7-22.1,3.7-32.1,8.9c-13.7,7.1-24.3,18.9-30.1,33.2l-18.2,45.5l46,9.6l1.8,48.9l-6.9,67.5H629l-0.9-106.9l0,0L632.7,341.7
		z"/>
	<g class="st6">
		<path class="st3" d="M657.9,325.4c0,0.1-7.5,2.6-17,5.5s-17.1,5.2-17.1,5s7.5-2.6,17-5.5S657.8,325.3,657.9,325.4z"/>
	</g>
	<path class="st7" d="M525.1,281.8c-0.3-0.3-0.6-0.7-0.8-1.1c-0.5-0.7-1.2-1.7-2.1-2.9c-1.1-1.4-2.2-2.7-3.5-4
		c-1.5-1.6-3.1-3-4.8-4.4c-1.7-1.3-3.5-2.6-5.3-3.7c-1.5-0.9-3.1-1.8-4.7-2.5c-1.4-0.6-2.5-1.1-3.3-1.4c-0.4-0.1-0.8-0.3-1.2-0.5
		c0.4,0.1,0.9,0.2,1.3,0.4c1.1,0.4,2.3,0.8,3.4,1.3c1.6,0.7,3.2,1.5,4.8,2.4c1.9,1.1,3.7,2.4,5.4,3.7c1.7,1.4,3.3,2.9,4.8,4.5
		c1.2,1.3,2.3,2.7,3.4,4.1c0.7,1,1.4,2,2,3C524.8,281,524.9,281.4,525.1,281.8z"/>
	<path class="st7" d="M519.1,296.6c0.1,0-1.3,14.9-3.2,33.3s-3.5,33.3-3.7,33.3s1.3-14.9,3.2-33.3S519,296.6,519.1,296.6z"/>
	<path class="st7" d="M619,269c-0.3-1-0.5-2-0.7-3c-0.5-2.4-1.2-4.8-2-7.2c-0.8-2.3-1.8-4.6-3-6.8c-0.5-0.9-1-1.8-1.4-2.8
		c0,0,0.2,0.2,0.5,0.6s0.7,1.1,1.2,1.9c1.3,2.2,2.3,4.5,3.2,6.8c0.8,2.4,1.5,4.8,1.9,7.3c0.2,1,0.2,1.7,0.3,2.3
		C619,268.5,619,268.7,619,269z"/>
	<path class="st7" d="M621.6,321.1c-0.1-0.5-0.2-1-0.2-1.5c-0.1-0.9-0.3-2.3-0.5-4c-0.3-3.4-0.7-8.1-0.9-13.3s-0.2-10-0.1-13.4
		c0-1.7,0.1-3.1,0.2-4c0-0.5,0.1-1,0.2-1.5c0.1,0.5,0.1,1,0.1,1.5v4c0,3.4,0,8.1,0.2,13.3s0.5,9.9,0.7,13.3c0.1,1.6,0.2,3,0.3,4
		C621.6,320.2,621.6,320.7,621.6,321.1z"/>
	<path class="st3" d="M560.1,312.4c-10.7,0.6-21.4,0.4-32-0.6v4.2h32V312.4z"/>
	<g class="st6">
		<path class="st3" d="M592,243.3c0.1,0.2,0.1,0.4,0.1,0.6l0.3,1.8c0.2,1.6,0.5,4,0.7,7c0.5,6,0.9,14.5,1,24.6v0.4l-0.3-0.2
			c-6.4-3.1-13.5-6.5-21-10.2l-36.4-18.2l-11-5.6l-3-1.5l-0.8-0.4c-0.1,0-0.2-0.1-0.3-0.1c0.1,0,0.2,0.1,0.3,0.1l0.8,0.4l3,1.4
			l11.1,5.4l36.5,18.1c7.4,3.7,14.6,7.1,21,10.2l-0.3,0.2c-0.1-10.1-0.5-18.6-0.9-24.6c-0.2-3-0.4-5.4-0.6-7
			c-0.1-0.8-0.2-1.4-0.2-1.9C592,243.7,592,243.5,592,243.3z"/>
	</g>
	<g class="st6">
		<path class="st3" d="M515.5,329.7c-0.2,0-0.4,0-0.5-0.1l-1.5-0.4l-5.5-1.4c-4.6-1.2-11-2.8-18.1-4.5s-13.5-3.2-18.1-4.2l-5.5-1.3
			l-1.5-0.4c-0.2,0-0.3-0.1-0.5-0.2c0.2,0,0.4,0,0.5,0l1.5,0.3c1.3,0.2,3.2,0.6,5.5,1.1c4.7,1,11.1,2.4,18.2,4.1s13.4,3.4,18,4.7
			c2.3,0.6,4.2,1.2,5.4,1.5l1.5,0.5C515.2,329.5,515.4,329.6,515.5,329.7z"/>
	</g>
	<path class="st7" d="M586.4,235.7c0-0.1,2.8,1.3,5.4,5.2s5.1,10,6.4,17c0.6,3.3,1,6.6,1.2,10c0,1.5,0.1,3,0,4.4s-0.1,2.6-0.2,3.8
		s-0.2,2.2-0.3,3.1s-0.3,1.7-0.4,2.3c-0.1,0.7-0.2,1.4-0.5,2c-0.1-0.7,0-1.3,0.1-2l0.2-2.3c0.1-0.9,0.1-2,0.2-3.1s0-2.4,0.1-3.8
		s-0.1-2.8-0.1-4.3c-0.2-3.3-0.6-6.6-1.2-9.8c-1-5.9-3.1-11.6-6-16.8c-0.9-1.5-2.1-3-3.3-4.2C587.3,236.7,586.8,236.2,586.4,235.7z"
		/>
	<path class="st7" d="M540.9,236c-0.6,1.1-1.3,2.1-2.1,3c-1.9,2.7-3.5,5.7-4.7,8.8c-1.8,4.6-2.9,9.5-3.5,14.4
		c-0.7,5.5-1,11.7-1.5,18.2s-0.3,12.7-0.4,18.3s0,10.7,0,15s-0.1,7.7-0.2,10.1c0,1.2-0.1,2.5-0.4,3.7c-0.2-1.2-0.3-2.5-0.2-3.7
		c-0.1-2.4-0.2-5.9-0.3-10.1s-0.2-9.3-0.3-15s-0.1-11.9,0.2-18.4s0.8-12.7,1.6-18.3c0.7-5,2-9.9,3.9-14.6c1.3-3.1,3.1-6.1,5.2-8.7
		C539.1,237.6,539.9,236.8,540.9,236z"/>
	<path class="st7" d="M608.1,319.6c-0.2-1.1-0.2-2.2-0.2-3.3c-0.1-2.1-0.1-5.2-0.2-9c0-1.9,0-4-0.1-6.2s0-4.6-0.1-7.1
		c-0.1-2.5-1-5-2.5-7c-1.8-2-4.3-3.3-7-3.3c-2.7,0-5.4,1-7.4,2.9c-1.9,1.7-3.2,4-3.7,6.5c-0.6,2.4-0.9,4.8-1.2,7l-1,6.1
		c-0.6,3.8-1.1,6.8-1.5,8.9c-0.1,1.1-0.4,2.2-0.7,3.2c0-1.1,0.1-2.2,0.3-3.3c0.2-2.1,0.6-5.2,1.2-8.9c0.3-1.9,0.5-4,0.8-6.2
		s0.6-4.6,1.2-7.1c0.6-2.7,2-5.1,4-7c2.2-2,5-3.1,8-3.2c3,0.1,5.8,1.4,7.8,3.7c1.7,2.2,2.7,4.8,2.7,7.6c0.2,2.6,0,4.9,0,7.2
		s0,4.3-0.1,6.2c0,3.8-0.1,6.9-0.2,9C608.3,317.4,608.3,318.5,608.1,319.6z"/>
	<path class="st7" d="M598.5,273.9c-0.3,3.5-1.5,7.4-3.9,10c2.1-0.5,4.3-0.4,6.5,0.1c-1.5-3-1.8-6.7-1.7-10.1"/>
	<path class="st7" d="M608.2,296.6c-0.2,0-0.3-1.7-1.6-4c-0.7-1.3-1.7-2.5-2.9-3.5c-1.4-1.2-3.1-2-4.9-2.3c-1.8-0.3-3.7-0.1-5.4,0.5
		c-1.4,0.5-2.7,1.3-3.9,2.3c-1.9,1.8-2.6,3.4-2.8,3.3s0.3-1.8,2.2-3.8c1.1-1.2,2.5-2.1,4-2.7c1.9-0.8,3.9-1,5.9-0.7
		c2,0.4,3.8,1.3,5.4,2.6c1.2,1.1,2.2,2.4,2.9,3.9C608.4,294.8,608.3,296.6,608.2,296.6z"/>
	<path class="st8" d="M634.9,409.9c6,0,11.3-4.3,14.1-9.5s3.5-11.4,3.8-17.3c0.7-15.8-1.2-31.6-5.7-46.7l-26.1,4.6l7.1,70.3
		L634.9,409.9z"/>
	<polygon class="st7" points="529.4,418.6 614.3,415.6 635,316 545.5,321 	"/>
	<path class="st9" d="M573.1,319.2l1.3-2.5l6.8-0.5c0,0,1.7-4.5,11.4-4.9c8.7-0.4,9,4,9,4h4.7v2.1L573.1,319.2z"/>
	<path class="st8" d="M620.5,386.6l6.4-1.9c1.2-0.4,2.5-0.4,3.7-0.2l0,0c1.5,0.3,2.9,1,4,2.1c2.1,2.1,5.6,5.6,6.1,6.6
		c0.7,1.5,0.7,4.1,0,5.1s1.6,5.9,1.3,7.6c-0.2,1.4-0.6,2.8-1.3,4c-0.6,0.7,0,3-1.4,4.8c-0.8,1-1.7,2-2.7,2.9c0,0-17.7,0.8-19.4,0
		s-4.8-4-4.8-4s-1.6-2.9,0.9-3.2l-10.1-3.9c-1.2-0.4-1.9-1.8-1.5-3c0.1-0.4,0.5-0.8,0.9-1c0,0-4.5-1.4-5.6-1.9
		c-2.1-0.9-2.9-5.8,1.5-5.2c2.3,0.3,5.4,1,5.4,1s-1.7-2.7,0.7-4.3c1.4-1,7.7,0.2,7.7,0.2L620.5,386.6L620.5,386.6z"/>
	<path class="st10" d="M622.7,413.1c-1.8,0.1-3.5-0.2-5.2-0.8c-1.7-0.4-3.4-1.1-4.8-2.2c0.1-0.1,2.2,0.9,5,1.7
		S622.8,413,622.7,413.1z"/>
	<path class="st10" d="M618.9,406.8c-2.8-0.4-5.5-1.1-8.2-1.8c-2.7-0.6-5.4-1.4-8.1-2.3C608.1,403.7,613.5,405.1,618.9,406.8
		L618.9,406.8z"/>
	<path class="st10" d="M621,400.6c-5.9-1-11.8-2.4-17.6-4.1C609.4,397.5,615.2,398.9,621,400.6z"/>
	<path class="st10" d="M627.5,392.5c-0.7,0.3-1.5,0.6-2.3,0.7l-2.5,0.6l-1.5,0.4c-0.6,0.1-1.1,0.2-1.7,0.2c-0.6,0-1.1-0.1-1.7-0.3
		l-1.5-0.3l-2.5-0.6c-0.8-0.1-1.6-0.4-2.3-0.7c0.8,0,1.6,0.1,2.4,0.3l2.5,0.5c1,0.2,2,0.4,3.1,0.6c1,0,2-0.2,3-0.5l2.5-0.5
		C625.9,392.7,626.7,392.5,627.5,392.5z"/>
	<path class="st10" d="M628.7,395.9c0.1,0,0.3,0.2,0.5,0.7c0.3,0.6,0.3,1.3,0.1,2c-0.2,0.6-0.6,1.2-1.2,1.6
		c-0.4,0.3-0.8,0.3-0.8,0.3s1-0.7,1.5-2C628.9,397.6,628.9,396.7,628.7,395.9z"/>
	<path class="st10" d="M628.3,402.7c0.1-0.1,0.5,0.6,0.5,1.6s-0.5,1.6-0.6,1.6s0.1-0.7,0.1-1.6S628.2,402.8,628.3,402.7z"/>
	<path class="st10" d="M628.4,410.2c0.1,0,0.4,0.4,0.3,1.1s-0.5,1-0.7,0.9s0.1-0.5,0.2-1S628.3,410.2,628.4,410.2z"/>
	<path class="st10" d="M630.3,392.1c-0.6,0.1-1.1,0-1.7-0.1l-1.8-0.2c-0.7-0.1-1.4-0.2-2.2-0.1c-0.7,0.2-1.3,0.5-1.9,0.9
		c-0.6,0.4-1,0.8-1.5,1.1c-0.5,0.3-1,0.5-1.6,0.6c0-0.1,0.6-0.3,1.4-0.9c1-1,2.2-1.7,3.6-2.1c0.4,0,0.8,0,1.2,0
		c0.4,0,0.7,0.1,1.1,0.2l1.8,0.3C629.3,391.7,629.8,391.9,630.3,392.1z"/>
	<path class="st10" d="M640.5,410.2c0.1-0.4,0.3-0.8,0.5-1.2c0.8-1.9,0.9-4,0.3-6c-0.2-0.9-0.6-1.8-0.8-2.8
		c-0.1-1.1-0.1-2.2,0.2-3.3c0.1-1.1-0.1-2.2-0.6-3.2c-0.5-1-1.1-2-1.8-2.9c-0.7-0.9-1.4-1.7-2-2.5c-1.1-1.4-2.6-2.5-4.2-3.3
		c-1.1-0.5-2.3-0.7-3.5-0.5c-0.8,0.1-1.3,0.3-1.3,0.3s0.1-0.1,0.3-0.2c0.3-0.1,0.7-0.2,1-0.3c1.2-0.2,2.5-0.1,3.7,0.4
		c1.7,0.7,3.2,1.9,4.4,3.3c0.7,0.8,1.4,1.6,2.1,2.5c0.7,0.9,1.4,1.9,1.9,3c0.5,1.1,0.8,2.3,0.6,3.5c-0.3,1-0.3,2.1-0.2,3.1
		c0.2,1,0.6,1.9,0.8,2.8c0.2,0.8,0.3,1.7,0.3,2.6c0,1.2-0.4,2.5-0.9,3.6C641.1,409.5,640.8,409.9,640.5,410.2z"/>
	<path class="st8" d="M581.1,361l-69.8,11.1l3.1-36.4l-38.8-7.5l-4.7,53.9l-0.8,12.4c-0.5,8.4,3.3,16.4,10.1,21.3l0,0
		c6.2,4.4,14.2,5.6,21.4,3.3l15-4.9l73.1-26"/>
	<path class="st8" d="M623.3,353.5c0.2-1.1-0.6-2.1-1.6-2.3c-0.1,0-0.2,0-0.4,0c-3.9,0-14.5,0-18.3,1.1c-4.6,1.3-21.9,8.7-21.9,8.7
		l7.3,27l26.5,0.3c0,0,9.7-4.5,9.8-6.4c0-1.2-0.1-2.4-0.2-3.6l2.9-1.6c4.4-2.8,1.6-8.1,1.6-8.1s3-1.7,3.2-4.7
		c0.1-1.8-0.8-3.6-2.3-4.5c0,0,1.2-4.3-1-5.4s-6,0.3-6,0.3C623,354.1,623.2,353.8,623.3,353.5z"/>
	<path class="st10" d="M624.8,353.9c-0.3,0.1-0.5,0.2-0.8,0.3c-0.5,0.1-1.3,0.3-2.3,0.5c-2,0.4-4.7,0.6-7.7,1
		c-2.5,0.2-5.1,0.6-7.6,1.2c-1.9,0.4-3,1-3,1c0.2-0.2,0.5-0.4,0.7-0.5c0.7-0.4,1.4-0.6,2.2-0.9c2.5-0.6,5-1.1,7.6-1.3
		c3-0.3,5.7-0.5,7.7-0.8S624.8,353.8,624.8,353.9z"/>
	<path class="st10" d="M629.8,359.3c-0.6,0.4-1.2,0.7-1.9,1c-1.6,0.6-3.2,1.1-4.8,1.4c-1.9,0.4-3.7,0.7-5,0.8
		c-0.7,0.1-1.4,0.2-2.1,0.2c0-0.2,3.1-0.7,6.9-1.5c1.6-0.3,3.2-0.7,4.8-1.2C628.4,359.7,629.1,359.5,629.8,359.3z"/>
	<path class="st10" d="M629,368.7c-3.7,1.7-7.6,2.6-11.6,2.6c0-0.2,2.6-0.5,5.8-1.2S629,368.6,629,368.7z"/>
	<path class="st10" d="M627.4,376.8c-2.8,1.4-5.9,2.2-9,2.2C621.4,378.2,624.4,377.5,627.4,376.8z"/>
	<path class="st10" d="M613.6,372c0,0.1-0.3,0.2-0.8,0.3c-0.7,0.1-1.4-0.1-2-0.5c-0.6-0.4-1-1-1.2-1.7c-0.1-0.5-0.1-0.9,0-0.9
		s0.3,1.3,1.5,2.1C611.8,371.7,612.7,372,613.6,372z"/>
	<path class="st10" d="M613,380.3c0,0.1-1,0.2-2-0.6s-1-1.9-0.8-1.9s0.4,0.8,1.2,1.5S613,380.2,613,380.3z"/>
	<path class="st10" d="M610,363.3c0.1,0.1-0.7,0.4-1.3-0.1s-0.7-1.3-0.5-1.3s0.3,0.5,0.8,0.9S609.9,363.2,610,363.3z"/>
	<path class="st10" d="M581.1,361l0.2-0.1l0.6-0.3l2.5-1.1c2.2-0.9,5.3-2.3,9.3-3.9c2-0.8,4.2-1.7,6.6-2.6c1.2-0.5,2.5-0.9,3.8-1.2
		c1.4-0.2,2.8-0.4,4.2-0.5c2.9-0.2,6-0.3,9.2-0.4h2.4h1.2c0.5,0,0.9,0.1,1.3,0.3c0.9,0.4,1.4,1.4,1.1,2.4c-0.1,0.1-0.2,0.3-0.3,0.3
		l-0.3,0.2l-0.6,0.3c-0.4,0.2-0.8,0.3-1.3,0.4c-0.1,0-0.3,0-0.3-0.2c0-0.1,0-0.3,0.2-0.3c0,0,0,0,0,0c1.1-0.3,2.2-0.6,3.3-0.7
		c1.2-0.2,2.3-0.3,3.5-0.1c0.6,0.1,1.2,0.3,1.7,0.7c0.5,0.5,0.7,1.1,0.8,1.7c0.2,1.2,0.1,2.5-0.2,3.6l-0.1-0.3
		c0.6,0.3,1.1,0.8,1.5,1.3c1,1.4,1.3,3.1,0.8,4.7c-0.6,1.5-1.6,2.8-3,3.6l0.1-0.4c0.7,1.4,1,3,0.8,4.6c-0.2,1.6-1.1,3-2.5,3.8l0,0
		l-2.9,1.6l0.1-0.2c0.1,0.7,0.1,1.4,0.2,2.1c0,0.3,0,0.7,0,1c0,0.2,0,0.4,0,0.5c0,0.2-0.1,0.4-0.2,0.6c-0.4,0.6-0.9,1-1.5,1.4
		c-0.5,0.4-1.1,0.8-1.7,1.1c-2.1,1.3-4.3,2.4-6.6,3.5H615l-19.3-0.3l-5.3-0.1l-1.4,0c-0.2,0-0.3,0-0.5,0c0.2,0,0.3,0,0.5,0h1.4h5.3
		l19.3,0.1h-0.1c2.2-1,4.4-2.2,6.5-3.5c0.5-0.3,1.1-0.7,1.6-1.1c0.5-0.4,1-0.8,1.4-1.3c0.1-0.1,0.1-0.2,0.2-0.4v-0.5
		c0-0.3,0-0.7,0-1c0-0.7-0.1-1.4-0.2-2.1c0-0.1,0-0.2,0.1-0.2l2.9-1.6l0,0c1.2-0.7,2.1-2,2.3-3.4c0.1-1.5-0.1-3-0.8-4.3
		c-0.1-0.1,0-0.3,0.1-0.3c1.3-0.8,2.3-1.9,2.8-3.3c0.5-1.4,0.2-3-0.7-4.3c-0.3-0.5-0.8-0.9-1.3-1.1c-0.1-0.1-0.2-0.2-0.1-0.3
		c0.3-1.1,0.4-2.3,0.2-3.4c-0.1-1.1-1-1.9-2.1-2c-1.1-0.1-2.2-0.1-3.3,0.1c-1.1,0.2-2.2,0.4-3.2,0.7l-0.1-0.5
		c0.4-0.1,0.8-0.2,1.2-0.4c0.2-0.1,0.4-0.2,0.6-0.3s0.3-0.3,0.4-0.2c0-0.4,0-0.7-0.2-1c-0.2-0.3-0.4-0.6-0.8-0.8
		c-0.3-0.2-0.7-0.2-1.1-0.2h-3.7c-3.2,0-6.3,0.1-9.2,0.3c-1.4,0.1-2.8,0.3-4.2,0.5c-1.3,0.3-2.5,0.7-3.8,1.1
		c-2.4,0.9-4.6,1.7-6.6,2.5l-9.3,3.8l-2.5,1l-0.7,0.3L581.1,361z"/>
	<path class="st10" d="M511.6,372c-1.9,1.3-3.6,2.8-5.1,4.5c-1.4,1.8-2.5,3.8-3.4,5.9c0-0.7,0.2-1.4,0.5-2c1.2-3.1,3.4-5.7,6.2-7.5
		C510.3,372.5,510.9,372.2,511.6,372z"/>
	<path class="st8" d="M602.7,156.2c-1.4-18.3-16.7-32.4-35.1-32.5h-1.8c-19.7,1.1-29.7,18.4-28.1,38.1l3.4,78.8
		c0.1,1.3,0.8,2.5,2,3.1l44.2,20.7l-1.3-41.3c0,0,18.9-2.9,19.2-21.8C605.3,192.1,604,173.3,602.7,156.2z"/>
	<path class="st10" d="M586.1,223c-8.8,0-17.4-2.5-24.8-7.3c0,0,5.8,13.6,24.7,12L586.1,223z"/>
	<path class="st7" d="M596,168c0,1.5-1.1,2.7-2.6,2.7c-1.4,0.1-2.7-0.9-2.8-2.3c0,0,0-0.1,0-0.1c0-1.5,1.1-2.7,2.6-2.7
		C594.6,165.4,595.9,166.5,596,168C596,168,596,168,596,168z"/>
	<path class="st7" d="M598.6,165.5c-0.3,0.4-2.4-1.2-5.3-1.2s-5,1.5-5.3,1.1c-0.2-0.2,0.2-0.8,1.1-1.5c1.3-0.9,2.8-1.3,4.3-1.3
		c1.5,0,3,0.5,4.2,1.4C598.5,164.7,598.8,165.3,598.6,165.5z"/>
	<path class="st7" d="M567.4,168.9c0,1.5-1.1,2.7-2.6,2.7c-1.4,0.1-2.7-0.9-2.8-2.4c0,0,0,0,0-0.1c0-1.5,1.1-2.7,2.6-2.7
		C566,166.3,567.3,167.4,567.4,168.9C567.4,168.8,567.4,168.9,567.4,168.9z"/>
	<path class="st7" d="M570,166c-0.3,0.4-2.4-1.2-5.3-1.2s-5,1.4-5.4,1.1c-0.2-0.2,0.2-0.8,1.1-1.5c1.3-0.9,2.8-1.3,4.3-1.3
		c1.5,0,3,0.5,4.2,1.4C569.9,165.2,570.2,165.8,570,166z"/>
	<path class="st7" d="M580.5,187.6c0-0.2,1.8-0.5,4.7-0.8c0.7-0.1,1.5-0.2,1.6-0.7c0.1-0.8-0.1-1.5-0.5-2.2l-2.2-5.7
		c-3-8-5.2-14.7-4.9-14.8s3,6.3,6.1,14.4l2.1,5.7c0.5,0.9,0.6,1.9,0.4,2.9c-0.2,0.5-0.7,0.9-1.2,1.1c-0.4,0.1-0.8,0.2-1.3,0.2
		C582.4,187.7,580.5,187.7,580.5,187.6z"/>
	<path class="st7" d="M572,189.6c0.5,0,0.5,3.1,3.2,5.4s6,1.9,6.1,2.3c0,0.2-0.8,0.6-2.2,0.6c-1.9,0-3.6-0.6-5.1-1.8
		c-1.4-1.1-2.2-2.7-2.5-4.5C571.4,190.3,571.8,189.5,572,189.6z"/>
	<path class="st7" d="M570.8,154.6c-0.3,0.8-3.2,0.4-6.6,0.8s-6.2,1.3-6.6,0.6c-0.2-0.3,0.3-1.1,1.4-1.9c1.5-0.9,3.2-1.5,4.9-1.7
		c1.7-0.2,3.5,0,5.2,0.6C570.3,153.6,570.9,154.2,570.8,154.6z"/>
	<path class="st7" d="M597.5,157.1c-0.5,0.6-2.5,0-4.9-0.1s-4.4,0.4-4.9-0.3c-0.2-0.3,0.1-1,1-1.6c2.5-1.5,5.6-1.4,7.9,0.3
		C597.5,156.1,597.8,156.8,597.5,157.1z"/>
	<path class="st8" d="M540.5,175.9c-0.3-0.1-13-3.9-12.6,9.1s13.3,9.9,13.3,9.5S540.5,175.9,540.5,175.9z"/>
	<path class="st10" d="M538.3,189.6c-0.1,0-0.2,0.2-0.6,0.4c-0.5,0.2-1.1,0.3-1.7,0.1c-1.4-0.5-2.6-2.6-2.7-4.9
		c-0.1-1.1,0.1-2.2,0.5-3.2c0.2-0.8,0.8-1.5,1.7-1.8c0.5-0.2,1.1,0.1,1.3,0.6c0.2,0.4,0.1,0.6,0.2,0.6s0.3-0.2,0.2-0.8
		c-0.1-0.3-0.3-0.6-0.5-0.8c-0.4-0.3-0.8-0.4-1.2-0.3c-1.1,0.2-1.9,1-2.3,2.1c-0.5,1.1-0.7,2.4-0.7,3.6c0.2,2.6,1.6,5,3.5,5.5
		c0.7,0.2,1.4,0,2-0.4C538.3,190,538.3,189.7,538.3,189.6z"/>
	<path class="st7" d="M549,137.4l53.9,1.2c-1.8-3.7-4.6-6.8-7.9-9.2c-7-5.4-15.6-8.5-24.4-8.8c-8.8-0.2-26.7,10.6-33.1,16.6
		c-5.1,4.9-5.1,9.1-5.1,9.1c-0.8,7,3.1,14.9,4.7,21.8c0.8,3.5,2.3,14.2,2.3,14.2l0,0c3,0,4.1-2.4,3.6-5.3l-0.5-11.5
		c0,0,10.1-7.2,5.3-20.3C547.1,144.2,545.5,139.4,549,137.4z"/>
	<path class="st10" d="M560.3,178.3c-0.2,0-0.3-0.1-0.3-0.3c0,0,0,0,0,0c0-0.2,0.1-0.4,0.2-0.4c0.2,0,0.4,0.1,0.4,0.3
		C560.7,178.1,560.6,178.2,560.3,178.3C560.4,178.3,560.4,178.3,560.3,178.3z"/>
	<path class="st10" d="M565.9,177.1c-0.2,0-0.3-0.1-0.4-0.3c-0.1-0.2,0.1-0.4,0.2-0.5c0.2,0,0.4,0.1,0.4,0.3
		C566.2,176.8,566.1,177,565.9,177.1z"/>
	<path class="st10" d="M569.6,177c-0.2,0-0.3-0.2-0.4-0.5s0.1-0.5,0.3-0.6s0.3,0.2,0.4,0.5S569.8,177,569.6,177z"/>
	<path class="st10" d="M563.1,181.8c-0.2,0-0.3-0.1-0.3-0.2s0.2-0.2,0.3-0.2s0.3,0.1,0.3,0.2S563.2,181.8,563.1,181.8z"/>
	<path class="st10" d="M568.2,180.6c-0.2,0-0.4-0.1-0.4-0.3c0-0.2,0.1-0.4,0.3-0.4l0,0c0.2,0,0.3,0.1,0.3,0.3c0,0,0,0,0,0
		C568.5,180.4,568.3,180.6,568.2,180.6z"/>
	<path class="st10" d="M594.7,177.5c-0.2,0-0.3-0.1-0.4-0.3c0,0,0,0,0,0c0-0.2,0.1-0.4,0.2-0.4c0.2,0,0.4,0.1,0.4,0.3
		C595,177.3,594.9,177.5,594.7,177.5C594.7,177.5,594.7,177.5,594.7,177.5z"/>
	<path class="st10" d="M598.5,177.2c-0.2,0.1-0.4,0-0.5-0.3c-0.1-0.2,0-0.4,0.3-0.5c0.2-0.1,0.4,0,0.5,0.3c0,0,0,0.1,0,0.1
		C598.8,177,598.7,177.1,598.5,177.2z"/>
	<path class="st10" d="M591.3,177.6c-0.2,0-0.3-0.1-0.4-0.2c0-0.2,0.1-0.3,0.2-0.4s0.3,0.1,0.4,0.2
		C591.6,177.4,591.5,177.6,591.3,177.6z"/>
	<path class="st10" d="M594.1,181.4c-0.2,0.1-0.4,0.1-0.5-0.1c-0.1-0.2-0.1-0.4,0.1-0.5c0.2-0.1,0.4-0.1,0.5,0.1c0,0,0,0,0,0.1
		C594.4,181.1,594.3,181.3,594.1,181.4z"/>
	<path class="st10" d="M597.4,180.8c-0.2,0-0.3-0.2-0.2-0.3c0.1-0.2,0.3-0.2,0.4-0.1c0.1,0.1,0.2,0.2,0.2,0.3
		C597.7,180.7,597.5,180.8,597.4,180.8z"/>
	<path class="st7" d="M537.2,138c-2.1-8.5,3-17.2,11.6-19.3c1.4-0.4,2.9-0.5,4.4-0.5c2.5,0.1,5,0.8,7.5,0.5
		c4.7-0.5,8.3-4.2,12.6-6.1c7-2.7,15-0.3,19.4,5.8c1.6,2.4,2.7,5.5,5.2,7c2.2,1.3,4.9,1.2,7.3,2c4.9,1.5,8.3,6.7,8.1,11.9
		c-0.4,5.3-3.7,9.8-8.6,11.9c-4.9,1.9-10.3,1.6-14.9-1c-4.1-2.3-7.7-6.1-12.4-6c-4.8,0.1-9,4.7-13.8,3.7c-2.5-0.5-4.4-2.4-6.2-4.2
		s-3.9-3.6-6.4-3.7s-3.8,3.3-2.9,5.7L537.2,138"/>
	<path class="st9" d="M601.9,131.8c0,0.1-0.1,0.1-0.1,0.2c-0.1,0.2-0.2,0.4-0.3,0.5c-0.4,0.7-1,1.2-1.5,1.8c-0.9,0.8-2,1.5-3.2,1.9
		c-1.6,0.5-3.3,0.6-4.9,0.3c-2-0.4-3.8-1.4-5.2-2.9c-1.5-1.6-2.3-3.8-3.7-5.7c-0.7-1-1.6-1.8-2.6-2.4c-1.1-0.5-2.3-0.8-3.6-0.8
		c-1.3,0-2.5,0.4-3.7,1c-1.1,0.6-2.1,1.6-2.7,2.8c-0.7,1.2-1.1,2.5-1.9,3.6c-0.8,1.2-2,2-3.5,2.1c-1.3,0-2.6-0.4-3.8-1.1
		c-1.1-0.7-2-1.5-2.9-2.4c-1.7-1.7-3.3-3.4-5.3-3.8c-1.9-0.4-3.9,0.1-5.4,1.3c-1.3,0.9-2.3,2.2-3,3.7c-0.5,1.1-0.9,2.3-1.1,3.5
		c-0.2,1-0.3,1.8-0.3,2.3c0,0.3-0.1,0.5-0.1,0.8c0-0.1,0-0.1,0-0.2c0-0.1,0-0.3,0-0.6c0-0.8,0.1-1.6,0.3-2.3c0.2-1.2,0.5-2.4,1-3.6
		c0.6-1.5,1.7-2.9,3-3.9c1.6-1.3,3.7-1.8,5.7-1.4c2.2,0.5,3.9,2.2,5.6,3.9c0.8,0.9,1.8,1.6,2.8,2.3c1,0.7,2.2,1,3.5,1
		c1.3-0.1,2.4-0.8,3.1-1.9c0.7-1.1,1.2-2.4,1.9-3.6c0.7-1.3,1.7-2.3,2.9-3c1.2-0.7,2.5-1,3.9-1.1c1.3,0,2.6,0.3,3.8,0.9
		c1.1,0.6,2.1,1.5,2.8,2.5c1.4,2,2.2,4.1,3.7,5.7c1.3,1.4,3,2.4,4.9,2.9c1.6,0.4,3.2,0.3,4.7-0.2c1.2-0.4,2.2-1,3.2-1.7
		C600.5,133.4,601.3,132.6,601.9,131.8z"/>
	<path class="st9" d="M611.7,132c0.1,0.3,0.2,0.7,0.2,1c0.1,1,0,1.9-0.3,2.9c-0.4,1.4-1.1,2.7-2,3.8c-1.2,1.3-2.6,2.4-4.3,3.1
		c-3,1.2-6.2,1.6-9.4,1.1c-0.9-0.1-1.9-0.3-2.8-0.6c-0.3-0.1-0.7-0.2-1-0.3c0-0.1,1.5,0.3,3.9,0.5c3.1,0.4,6.3,0,9.2-1.2
		c1.6-0.7,3-1.7,4.1-2.9c0.9-1,1.6-2.3,2-3.6C611.6,134.6,611.7,133.3,611.7,132z"/>
	<path class="st1" d="M519.6,340.3c0.2,2,1,4,2.3,5.6c1.2,1.5,3.5,3,5.4,2.9c2.9,0.1,5.7-1.2,7.3-3.6c2.3-3.7,2.9-11.3,1-15.8
		c-1.3-3.1-4.1-6-7.5-6.1c-4.4-0.1-7.2,3.1-8.1,6.3"/>
	<path class="st7" d="M520,329.6c0.1-0.8,0.4-1.5,0.8-2.2c0.4-0.8,1-1.5,1.7-2.2c0.9-0.8,1.9-1.5,3.1-1.8c0.7-0.2,1.4-0.3,2.1-0.3
		c0.8,0,1.6,0.1,2.3,0.3c1.6,0.6,3,1.6,4.1,2.9c1.2,1.5,2,3.2,2.4,5c0.4,1.9,0.6,3.9,0.5,5.9c-0.2,3.1-0.8,6.2-2.6,8.6
		c-0.9,1.1-2,2-3.3,2.5c-1.2,0.5-2.5,0.7-3.8,0.6l0,0c-0.9,0-1.9-0.2-2.7-0.7c-0.7-0.4-1.4-0.9-2-1.4c-0.9-0.9-1.7-2.1-2.2-3.3
		c-0.3-0.8-0.6-1.6-0.7-2.4c0-0.2-0.1-0.4-0.1-0.7c0-0.1,0-0.2,0-0.2c0.2,1.1,0.5,2.2,1,3.2c0.5,1.2,1.3,2.2,2.2,3.1
		c0.6,0.5,1.3,1,2,1.3c0.8,0.4,1.6,0.6,2.5,0.6l0,0c2.6,0.1,5-1,6.7-3c1.6-2.2,2.2-5.3,2.4-8.4c0.2-4-0.5-7.9-2.7-10.6
		c-1-1.3-2.3-2.3-3.8-2.8c-0.7-0.2-1.4-0.3-2.2-0.3c-0.7,0-1.3,0.1-2,0.3c-1.1,0.3-2.1,0.9-3,1.7c-0.7,0.6-1.2,1.3-1.7,2
		C520.6,328.2,520.3,328.9,520,329.6z"/>
	<path class="st1" d="M517.3,340.5c0.2,2,1,4,2.3,5.6c1.2,1.5,3.5,3,5.4,2.9c2.9,0.1,5.7-1.2,7.3-3.6c2.3-3.7,2.9-11.3,1-15.8
		c-1.3-3.1-4.1-6-7.5-6.1c-3.8,0-7.2,2.6-8.1,6.3"/>
	<path class="st7" d="M517.7,329.8c0.1-0.8,0.4-1.5,0.8-2.1c0.4-0.8,1-1.5,1.7-2.2c1.4-1.4,3.3-2.1,5.2-2.2c0.8,0,1.6,0.1,2.3,0.3
		c1.6,0.6,3,1.6,4.1,2.9c1.2,1.5,2,3.2,2.4,5c0.4,1.9,0.6,3.9,0.4,5.9c-0.2,3.1-0.8,6.2-2.5,8.6c-0.9,1.1-2,2-3.3,2.5
		c-1.2,0.5-2.5,0.7-3.8,0.6l0,0c-0.9,0-1.9-0.2-2.7-0.7c-0.7-0.4-1.4-0.8-2-1.4c-1-0.9-1.7-2.1-2.2-3.3c-0.3-0.8-0.6-1.6-0.7-2.4
		c0-0.2-0.1-0.4-0.1-0.7c0-0.1,0-0.2,0-0.2c0.2,1.1,0.5,2.2,1,3.2c0.5,1.2,1.3,2.2,2.2,3.1c0.6,0.5,1.3,1,2,1.3
		c0.8,0.4,1.6,0.6,2.5,0.6l0,0c2.6,0.1,5-1,6.7-3c1.6-2.2,2.2-5.3,2.4-8.4c0.2-4-0.4-7.9-2.7-10.6c-1-1.3-2.3-2.3-3.8-2.8
		c-0.7-0.2-1.4-0.3-2.2-0.3c-0.7,0-1.3,0.1-2,0.3c-1.1,0.3-2.1,0.9-3,1.7c-0.7,0.6-1.2,1.3-1.7,2C518.3,328.4,518,329.1,517.7,329.8
		z"/>
	<path class="st1" d="M521.5,328.6c-2.3-0.3-4.5,1-5.4,3.1c-0.8,2.1-0.8,4.4,0,6.5c0.3,1.1,0.9,2.1,1.7,2.9c0.8,0.9,1.8,1.4,3,1.5
		c1.7-0.1,3.3-1,4.2-2.4c1.6-2.2,2.1-5,1.4-7.7c-0.5-1.7-1.7-3.5-3.5-3.6"/>
	<path class="st7" d="M522.8,329c0,0,0.1,0,0.4,0c0.4,0,0.8,0.2,1.1,0.4c1.2,0.8,2,2,2.3,3.4c0.5,2.1,0.3,4.2-0.6,6.1
		c-0.5,1.1-1.3,2.1-2.2,2.9c-1.1,0.9-2.5,1.3-3.9,0.9c-1.3-0.4-2.4-1.3-3.1-2.5c-0.6-1.1-1-2.2-1.3-3.5c-0.5-2.1-0.1-4.2,1-6
		c0.8-1.2,2.1-2,3.5-2.2c0.4-0.1,0.8-0.1,1.1,0c0.2,0,0.4,0.1,0.4,0.1c-0.5,0-1,0-1.5,0.1c-1.3,0.3-2.5,1.1-3.2,2.2
		c-1,1.7-1.3,3.8-0.8,5.7c0.2,1.2,0.7,2.3,1.2,3.3c0.6,1.1,1.6,1.9,2.8,2.3c1.2,0.3,2.5,0,3.4-0.8c0.9-0.7,1.6-1.7,2.1-2.7
		c0.9-1.8,1.1-3.9,0.7-5.8c-0.2-1.3-0.9-2.5-2-3.4C523.8,329.3,523.4,329.1,522.8,329z"/>
	<path class="st7" d="M526.6,345.1c-0.1,0-0.2-0.3-0.5-0.7c-0.5-0.5-1-0.9-1.7-1.1c-0.7-0.2-1.4-0.3-2.1-0.3c-0.6,0-0.9-0.1-0.9-0.2
		s0.3-0.1,0.9-0.2c0.8-0.1,1.5,0,2.3,0.2c0.8,0.2,1.4,0.7,1.8,1.4C526.7,344.7,526.6,345.1,526.6,345.1z"/>
	<path class="st7" d="M527.4,327.3c0,0-0.2,0.4-0.6,0.7c-0.6,0.5-1.3,0.8-2.1,0.9c-0.8,0.1-1.5,0.1-2.3-0.1
		c-0.6-0.2-0.9-0.4-0.8-0.5c1,0.2,2,0.2,3,0.1C525.5,328.1,526.5,327.8,527.4,327.3z"/>
</g>
<g id="freepik--character-1--inject-2">
	<path class="st7" d="M251.8,152.4c0.1-4.4-3.9-7.7-8-9.3s-8.6-2.2-12.2-4.6c-3.2-2.2-5.4-5.5-8.1-8.3
		c-10.4-10.5-27.4-10.7-37.9-0.3c-3.5,3.5-6,7.8-7.2,12.6c-1.6,6.2-0.5,13.5,4.4,17.7c5.7,4.8,14.1,3.7,21.4,2.2s15.5-3,21.6,1.3
		c3.7,2.6,5.8,6.8,8,10.6s5,7.8,9.3,9.3s10-1.1,10.1-5.5"/>
	<path class="st7" d="M251.6,154.8c-0.5,3.6,2.2,6.9,4.8,9.5c2.6,2.6,5.6,5.3,6.1,9c0.5,4.3-2.6,8.5-1.7,12.7
		c0.6,2.7,2.6,4.7,3.9,7.1c1.7,3.5,1.9,7.5,0.8,11.2c-1.1,3.7-2.8,11.9-5.4,14.8c-7.1,7.9-18.3,14.7-28.6,17.1s-21.1,2.4-31.6,1.7
		c-8.7-0.5-18.6-0.1-25.9-12.1c-3.7-6.2-5.6-14.4-7.6-21.3c-1.7-6-3.2-12.4-1.4-18.3c1-3.5,3.1-6.6,4.1-10c1.3-4.3,0.8-9,1.3-13.5
		c1.9-17,17.2-29.1,34.2-27.2c3.4,0.4,6.7,1.3,9.8,2.8"/>
	<path class="st8" d="M174.5,169.7c0.8-12.4,9.1-27.7,21.5-26.3l38.7,9.9c3.8,0.4,6.6,3.6,6.5,7.4l-4.4,93.3l0.3,0.1
		c0,0-8.8,26.3-34.4,18.3c-5.1-1.6-7.4-7.1-8.4-12.9h-0.3c0-0.7,0-1.3,0-2c-0.5-4.3-0.5-8.5-0.1-12.8l0,0
		c-0.1-7.5-0.1-10.6-0.1-10.5s-15.9-2.7-19.1-23.4C173.1,200.4,173.6,183.5,174.5,169.7z"/>
	<path class="st7" d="M180.8,182.2c0,1.4,1.1,2.6,2.6,2.7c1.4,0.1,2.6-0.9,2.7-2.3c0,0,0,0,0-0.1c0-1.4-1.1-2.6-2.6-2.7
		C182.1,179.7,180.9,180.7,180.8,182.2C180.8,182.2,180.8,182.2,180.8,182.2z"/>
	<path class="st7" d="M178.2,178.5c0.3,0.4,2.4-1.1,5.2-1.1s5,1.4,5.3,1.1c0.1-0.1-0.2-0.8-1.1-1.4c-1.2-0.9-2.7-1.3-4.2-1.3
		c-1.5,0-2.9,0.4-4.1,1.3C178.3,177.7,178,178.4,178.2,178.5z"/>
	<path class="st7" d="M208.9,182.2c0,1.4,1.1,2.6,2.6,2.7c1.4,0.1,2.6-0.9,2.7-2.3c0,0,0,0,0-0.1c0-1.4-1.1-2.6-2.6-2.7
		C210.2,179.7,209,180.7,208.9,182.2C208.9,182.2,208.9,182.2,208.9,182.2z"/>
	<path class="st7" d="M206.3,179.1c0.3,0.4,2.4-1.1,5.2-1.1s4.9,1.4,5.3,1.1c0.1-0.2-0.2-0.8-1.1-1.4c-1.2-0.9-2.7-1.3-4.2-1.3
		c-1.5,0-2.9,0.5-4.1,1.3C206.4,178.3,206.1,179,206.3,179.1z"/>
	<path class="st7" d="M195.9,200.3c0-0.2-1.8-0.5-4.6-0.9c-0.7-0.1-1.4-0.2-1.6-0.7c-0.1-0.8,0.1-1.5,0.5-2.2l2.2-5.6
		c3-7.9,5.2-14.4,4.9-14.5s-3,6.2-6,14.1c-0.7,1.9-1.4,3.8-2.1,5.6c-0.5,0.9-0.6,1.9-0.4,2.9c0.2,0.5,0.7,0.9,1.2,1.1
		c0.4,0.1,0.8,0.2,1.2,0.2C194.1,200.4,195.9,200.5,195.9,200.3z"/>
	<path class="st10" d="M193.8,234.1c9.8,0.2,19.4-2.4,27.8-7.4c0,0-7,14.3-27.8,12.4L193.8,234.1z"/>
	<path class="st10" d="M197.1,207.2c1.1-1.4,2.9-2.1,4.6-1.9c1.3,0.1,2.5,0.7,3.2,1.8c0.8,1,0.9,2.3,0.2,3.4
		c-0.9,1.1-2.4,1.4-3.8,0.9c-1.3-0.5-2.6-1.2-3.6-2.2c-0.3-0.2-0.6-0.5-0.8-0.8c-0.2-0.3-0.2-0.7,0-1.1"/>
	<path class="st7" d="M204.3,202.3c-0.5,0-0.5,3.1-3.1,5.3s-6,1.9-6,2.3c0,0.2,0.7,0.6,2.1,0.6c1.8,0,3.6-0.6,5-1.7
		c1.4-1.1,2.2-2.7,2.4-4.4C204.8,203.1,204.5,202.3,204.3,202.3z"/>
	<path class="st7" d="M205,174.1c0.3,0.8,3.1,0.4,6.5,0.8s6.1,1.3,6.5,0.6c0.2-0.3-0.3-1.1-1.4-1.8c-1.4-0.9-3.1-1.5-4.8-1.7
		c-1.7-0.2-3.5,0-5.1,0.6C205.5,173.1,204.9,173.7,205,174.1z"/>
	<path class="st7" d="M179.2,170.2c0.5,0.6,2.5,0,4.9,0s4.4,0.4,4.8-0.2c0.2-0.3-0.1-1-1-1.6c-2.4-1.5-5.5-1.4-7.8,0.2
		C179.3,169.3,179,169.9,179.2,170.2z"/>
	<path class="st7" d="M249.1,221.4c-10,2-19.7-4.4-21.7-14.4c-0.4-2-0.5-4-0.2-5.9c0.6-5.1,3.4-10.3,1.6-15.1
		c-2.3-6.4-11.3-8.3-13.6-14.7c-1.4-3.7-0.1-8-1.7-11.6c-1.5-3.4-5.1-5.4-8.5-6.6s-7.2-2.1-10.1-4.4s-4.8-6.6-2.9-9.8
		c15.5,1.9,30.7,5.5,45.3,11c3.4,1.3,6.9,2.8,8.9,5.8c2.1,3.2,2,7.3,1.8,11.1l-2.6,55.8"/>
	<path class="st9" d="M247.8,228.6c0,0,0.1-0.1,0.3-0.2l0.9-0.7c0.8-0.6,2-1.6,3.4-2.9c1.8-1.5,3.4-3.3,4.9-5.1
		c2-2.5,3.3-5.4,3.9-8.5c0.8-3.9-0.2-7.9-2.7-10.9c-1.5-1.5-3.1-2.9-4.8-4.1c-1.7-1.3-3-3.1-3.8-5.1c-1.5-4.2-0.9-9.1-1.4-14.1
		c-0.6-5.2-2.6-10.2-5.9-14.3c-1.7-2.1-3.8-3.8-6.1-5c-2.3-1.1-4.8-1.9-7.2-2.4c-2.3-0.6-4.5-1.7-6.4-3.1c-1.8-1.5-3.3-3.2-4.6-5.1
		c-2.6-3.7-4.5-7.6-7-10.9c-1.2-1.6-2.5-3.1-4.1-4.3c-1.4-1.2-3.1-2.1-4.8-2.6c-3-1.2-6.5-0.8-9.2,0.9c-1.9,1.5-3.1,3.8-3.3,6.2
		c-0.1,1.5,0.3,3,1.2,4.3c0.2,0.3,0.5,0.6,0.8,0.8c0.1,0.1,0.2,0.2,0.3,0.2c-0.1-0.1-0.2-0.2-0.3-0.3c-0.3-0.3-0.5-0.5-0.8-0.9
		c-0.8-1.2-1.2-2.7-1-4.1c0.2-2.3,1.4-4.4,3.2-5.8c2.6-1.6,5.8-1.9,8.7-0.7c1.7,0.6,3.2,1.4,4.6,2.6c1.5,1.2,2.8,2.7,3.9,4.2
		c2.4,3.2,4.3,7.2,6.9,11c1.3,2,2.9,3.8,4.8,5.3c1.9,1.5,4.2,2.6,6.6,3.2c2.4,0.6,4.8,1.4,7.1,2.4c2.3,1.2,4.3,2.8,5.9,4.8
		c3.2,4,5.1,8.8,5.7,13.8c0.6,4.8-0.1,9.8,1.5,14.3c0.8,2.2,2.2,4.1,4,5.5c1.7,1.2,3.3,2.6,4.8,4c2.4,2.9,3.3,6.7,2.6,10.3
		c-0.5,3-1.8,5.9-3.6,8.3c-1.4,1.9-3,3.6-4.7,5.2c-1.4,1.3-2.6,2.3-3.3,3C248.5,227.9,248.2,228.2,247.8,228.6z"/>
	<path class="st7" d="M251.6,231.1c4.3-4.1,11.5-0.5,15.1,4.2s6.1,10.8,11.5,13.2s12.5,0.3,17,4.1c6.3,5.2,2.8,17.3,9.5,21.8
		c2.7,1.8,6.2,1.7,9.1,3.2c6.8,3.5,6.7,13.1,5.7,20.6c-1.4,10.7-3,21.7-8.9,30.7s-17.3,15.3-27.4,11.8c-9.8-3.3-14.8-13.9-18.7-23.4
		c-5.5-13.2-11-26.3-16.5-39.5c-3.2-7.6-6.4-15.3-7.4-23.5s0.4-17,5.6-23.4"/>
	<path class="st5" d="M254.4,222.1c3.1-0.4,5.5,3.4,4.6,6.4s-3.7,5-6.6,6c-1.6,0.6-3.4,0.8-5.1,0.6c-1.8-0.3-3.2-1.5-3.9-3.1
		c-0.7-1.5,0-3.2,1.4-3.9c2-1.3,3.2-2.3,4.8-3.2C252,223.5,251.9,223.4,254.4,222.1"/>
	<polygon class="st5" points="183.1,255.4 195.1,246.3 240.4,243.4 242.3,249.5 227.5,341.4 239.2,451.2 175.9,451.2 	"/>
	<g class="st6">
		<path d="M231.6,412.2c-1.4-1.5-3.8-3.7-5.9-3.7c-15.1-0.3-30.6-1.8-45.7-2.2l-1.2,44.8c3.6-6.4,7.1-13,8-20.3c0.4-3.2,1-7,3.9-8.3
			c1.6-0.8,3.6-0.5,5.3-0.1c5.5,1.1,10.9,2.5,16.5,2.8s11.4-0.5,16.1-3.5c1.7-1,3-2.4,3.8-4.1C233.1,415.8,232.9,413.8,231.6,412.2z
			"/>
	</g>
	<path class="st5" d="M192.9,257.3l-1.4-13.1c-0.2-2.3,1.4-4.4,3.7-4.6c0,0,0,0,0.1,0l41.7-3.8c1.1-0.1,2.1,0.7,2.1,1.8
		c0,0,0,0,0,0.1l0.5,15.6l-12.1,20.5l-12.4,4h-15.2l-8.7-9.3L192.9,257.3z"/>
	<path class="st7" d="M233.4,248.3c-0.6,0-1.1-0.1-1.7-0.2c-1.5-0.1-3-0.2-4.5-0.1c-2.2,0.2-4.5,0.5-6.7,1c-2.5,0.5-5.2,1.2-8.1,1.9
		c-2.7,0.7-5.4,1.2-8.2,1.5c-2.3,0.2-4.6,0.1-6.8-0.5c-1.5-0.4-2.9-0.9-4.2-1.8c-0.3-0.2-0.7-0.5-1-0.7c-0.2-0.2-0.3-0.3-0.3-0.3
		s0.5,0.3,1.4,0.9c1.3,0.7,2.8,1.3,4.2,1.6c2.2,0.5,4.4,0.6,6.7,0.3c2.7-0.3,5.5-0.8,8.1-1.5c2.9-0.7,5.6-1.4,8.1-1.9
		c2.2-0.5,4.5-0.8,6.8-0.9c1.5-0.1,3.1,0,4.6,0.2c0.5,0.1,0.9,0.2,1.2,0.2C233.3,248.2,233.5,248.3,233.4,248.3z"/>
	<g class="st6">
		<path d="M193.9,250.4c-1.1,3.1-1.1,6.9,1.1,9.2c1.8,1.9,4.8,2.4,7.4,1.9c2.6-0.7,5-1.8,7.2-3.3c5.7-3.4,11.6-6.9,18.1-8.4
			c0.4-0.1,0.8-0.2,1.2-0.5c0.3-0.3,0.3-0.8,0-1.1c0,0,0,0,0,0c-0.2-0.1-0.4-0.1-0.5-0.1c-5.8-0.6-11.5,1-17.1,2.3
			s-11.7,2.2-17.1,0.2"/>
	</g>
	<path class="st7" d="M201.9,239.1c-0.6,0.3-1.1,0.8-1.4,1.4c-0.7,1.1-0.6,2.9-0.6,4.8c0.1,3.9,0.8,7,0.6,7c-0.3-0.6-0.5-1.3-0.6-2
		c-0.3-1.6-0.5-3.3-0.6-5c0-0.9,0-1.9,0.1-2.8c0.1-0.8,0.3-1.5,0.7-2.2c0.3-0.5,0.7-0.8,1.2-1.1
		C201.7,239.1,201.9,239.1,201.9,239.1z"/>
	<path class="st7" d="M212.9,250.5c0-2.1-0.1-4.2-0.3-6.4c-0.5-3.5-1.6-6.1-1.5-6.2c0.4,0.5,0.7,1.1,0.9,1.7
		c0.5,1.4,0.9,2.9,1.1,4.4c0.2,1.5,0.3,3.1,0.1,4.6C213.2,249.3,213.1,249.9,212.9,250.5z"/>
	<path class="st7" d="M226.3,236.9c0.4,0.5,0.6,1,0.8,1.6c0.5,1.3,0.6,2.8,0.6,4.2c-0.1,1.4-0.5,2.8-1.1,4.1c-0.2,0.5-0.6,1-1,1.4
		C227.4,244.6,227.7,240.5,226.3,236.9L226.3,236.9z"/>
	<path class="st2" d="M167.9,261.3c0,0-14.2,9.5-18,26.7c-2.9,13.5-11,84.9-11,84.9l-14.1,27.4l9.2,21.9l0,0
		c7.9,0.6,15.7-1.7,22.1-6.3l6.2-4.5l11.4-16.8L167.9,261.3z"/>
	<polygon class="st2" points="191.9,248.7 167.9,261.3 162.2,280 157.1,334.2 166.6,397.7 149.9,451 178.8,451.2 179.4,420 
		182.3,319 185.2,254.6 	"/>
	<path class="st7" d="M180.3,332.9c-0.2-0.2-0.3-0.5-0.4-0.8l-1.2-2.2c-0.5-1-1-2.2-1.6-3.6c-0.3-0.7-0.5-1.5-0.8-2.3
		s-0.6-1.7-0.9-2.6c-2.3-7.5-3.8-18.3-3.4-30.2c0-0.9,0.1-1.8,0.1-2.7v-0.2l0.1-0.1l4.2-1.8l-0.1,0.4l-4.2-3.4l-0.1-0.1v-0.1
		c0-4.1,0.6-8.2,1.9-12c1.1-3.5,2.2-6.6,3.2-9.1s1.9-4.5,2.5-5.8c0.3-0.7,0.6-1.2,0.7-1.5c0.1-0.2,0.2-0.3,0.3-0.5
		c0,0.2-0.1,0.4-0.2,0.5l-0.7,1.6c-0.6,1.3-1.4,3.3-2.4,5.8s-2.1,5.5-3.1,9.1c-1.3,3.8-1.9,7.9-1.8,11.9l-0.1-0.2l4.2,3.4l0.3,0.3
		l-0.4,0.2l-4.2,1.8l0.2-0.2c-0.1,0.9-0.1,1.8-0.1,2.7c-0.3,11.9,1.1,22.6,3.3,30.1c0.2,1,0.5,1.8,0.8,2.6s0.5,1.6,0.8,2.4
		c0.6,1.4,1,2.7,1.5,3.6l1.1,2.2C180.1,332.4,180.2,332.6,180.3,332.9z"/>
	<path class="st7" d="M161.4,370.9c-0.1-0.3-0.2-0.5-0.2-0.8c-0.1-0.6-0.3-1.3-0.6-2.3c-0.2-1-0.5-2.2-0.8-3.6s-0.6-3-0.9-4.8
		s-0.7-3.8-0.9-5.9s-0.5-4.4-0.8-6.8c-0.4-4.8-0.7-10.1-0.7-15.6s0.3-10.9,0.8-15.6c0.3-2.4,0.5-4.7,0.8-6.8s0.6-4.1,0.9-5.9
		s0.7-3.4,1-4.8s0.6-2.6,0.8-3.6s0.4-1.7,0.6-2.3c0.1-0.3,0.1-0.5,0.2-0.8c0,0.3-0.1,0.5-0.1,0.8l-0.5,2.3c-0.2,1-0.5,2.2-0.7,3.6
		s-0.6,3-0.9,4.8s-0.6,3.8-0.9,5.9s-0.5,4.4-0.8,6.8c-0.4,4.8-0.7,10.1-0.7,15.6s0.3,10.8,0.7,15.6c0.2,2.4,0.4,4.7,0.8,6.8
		s0.6,4.1,0.9,5.9s0.6,3.4,0.9,4.8s0.5,2.6,0.7,3.6s0.4,1.7,0.5,2.3C161.3,370.3,161.4,370.6,161.4,370.9z"/>
	<path class="st7" d="M167.9,419.6c-0.3,0.9-0.7,1.7-1.2,2.4c-1.1,1.9-2.3,3.7-3.7,5.4c-1.4,1.7-2.9,3.2-4.5,4.7
		c-0.6,0.6-1.4,1.2-2.1,1.6c0.6-0.7,1.2-1.3,1.9-1.9c1.5-1.5,3-3.1,4.4-4.7c1.4-1.7,2.6-3.4,3.8-5.2
		C166.8,421.1,167.3,420.3,167.9,419.6z"/>
	<path class="st2" d="M278.7,259.8c10.3,4,17.9,12.8,20.3,23.6c7.9,34.8,21.4,81,21.6,95.9c0.3,19-8,32-18.9,34.4
		c-8.6,1.9-86.3-2.4-86.3-2.4l-3.6-29l63-9.3l-8.6-48.1l8.5-66.7L278.7,259.8z"/>
	<path class="st2" d="M274.7,258.2l-17.4-7.1l-18.4-10.8l-0.1,3.1l0,0c2.3,3.8,3,8.4,2.2,12.8l-15.3,79.7l3.5,58.2l7.1,57h55.2
		l-25.4-59.6l9-80.4L274.7,258.2z"/>
	<path class="st7" d="M290.8,414.2l-0.4,0l-1.1,0.1c-1,0.1-2.4,0.1-4.3,0.1c-3.7,0-9.2-0.1-16-0.3c-13.5-0.5-32.4-1.4-53.6-2.6h-0.2
		v-0.2c-0.4-3.5-0.9-7.1-1.4-10.8c-0.8-6.2-1.6-12.4-2.3-18.2v-0.2h0.2l48.1-7l14.1-2l3.8-0.5l1-0.1h0.3l-0.3,0.1l-1,0.2l-3.8,0.6
		l-14.1,2.1l-48,7.2l0.2-0.3c0.7,5.8,1.5,11.9,2.3,18.2c0.5,3.7,0.9,7.3,1.4,10.8l-0.2-0.2c21.3,1.2,40.1,2.2,53.6,2.8
		c6.8,0.3,12.2,0.4,15.9,0.5c1.9,0,3.3,0,4.3-0.1l1.1-0.1L290.8,414.2z"/>
	<path class="st7" d="M265.6,320.1c0.1,0.2,0.1,0.4,0.1,0.5c0.1,0.4,0.2,0.9,0.3,1.5c0.3,1.4,0.6,3.3,1,5.7c0.9,4.9,2,11.5,3.3,18.8
		s2.3,13.9,3.1,18.8c0.4,2.4,0.7,4.3,0.9,5.7c0.1,0.6,0.2,1.1,0.2,1.6c0,0.2,0,0.4,0,0.5c-0.1-0.2-0.1-0.3-0.1-0.5
		c-0.1-0.4-0.2-0.9-0.3-1.5c-0.3-1.4-0.6-3.3-1.1-5.7c-0.9-4.8-2-11.5-3.3-18.8s-2.4-14-3.1-18.8c-0.4-2.4-0.7-4.3-0.9-5.7
		c-0.1-0.6-0.1-1.1-0.2-1.6C265.6,320.4,265.6,320.3,265.6,320.1z"/>
	<path class="st7" d="M246.9,246c0,0,0,0.1,0.1,0.2l0.2,0.6c0.1,0.5,0.4,1.3,0.6,2.3c0.6,2.8,1.1,5.7,1.3,8.6
		c0.4,4.3,0.5,8.7,0.3,13.1c-0.2,5-0.7,10.5-1.4,16.3v0.2h-0.2l-5.7,1.1l0.2-0.4c0.3,0.9,0.7,1.8,0.9,2.8c1.6,6.4,1.4,13.1-0.6,19.3
		c-1.6,5.1-3.8,9.9-6.7,14.4c-2.4,3.9-4.5,6.8-6,8.9l-1.7,2.3c-0.2,0.2-0.3,0.4-0.5,0.6c0,0.1-0.1,0.1-0.2,0.2c0,0,0-0.1,0.1-0.2
		l0.4-0.6c0.4-0.6,1-1.4,1.6-2.4c1.4-2.1,3.5-5.1,5.9-8.9c2.8-4.5,5-9.3,6.5-14.3c1.6-5.7,2.4-12.4,0.6-19c-0.3-0.9-0.6-1.8-0.9-2.7
		l-0.1-0.3l0.3-0.1l5.7-1l-0.2,0.2c0.8-5.8,1.3-11.3,1.5-16.2c0.2-4.3,0.1-8.7-0.2-13c-0.2-2.9-0.6-5.7-1.2-8.6
		c-0.2-1-0.4-1.8-0.5-2.3c-0.1-0.2-0.1-0.4-0.1-0.6C246.9,246.2,246.9,246.1,246.9,246z"/>
	<path class="st5" d="M246.9,327.7V315c0,0,0.2-3.1-2.5-2.5s-2.1,5.6-2.1,5.6s-0.5,19.3,0.7,19.1s1.6-1.6,1.6-1.6v-7.4L246.9,327.7z
		"/>
	<path class="st7" d="M257.9,328.5c-2.3,0.3-4.5,0.4-6.8,0.3c-2.3,0.1-4.6,0-6.8-0.3c2.3-0.3,4.5-0.3,6.8-0.3
		C253.4,328.1,255.6,328.2,257.9,328.5z"/>
	<path class="st7" d="M283,267.3c-0.5,0.2-0.9,0.4-1.4,0.5c-1.3,0.5-2.6,1-3.8,1.6c-4,2.1-7.5,5.1-10.2,8.7c-0.8,1-1.4,2.1-2,3.3
		c-0.5,1.1-0.9,2.2-1.2,3.4c-0.5,2-0.9,4-1,6c-0.1,1.7-0.2,3.1-0.2,4.1c0,0.5,0,1,0,1.5c-0.1-0.5-0.2-1-0.2-1.5
		c-0.1-1.4-0.1-2.8,0-4.1c0.1-2.1,0.4-4.1,0.9-6.1c0.3-1.2,0.7-2.3,1.2-3.5c0.6-1.2,1.3-2.3,2-3.4c2.7-3.7,6.3-6.7,10.5-8.7
		c1.2-0.6,2.5-1.1,3.9-1.5C282,267.5,282.5,267.4,283,267.3z"/>
	<polygon class="st7" points="58.9,373 149.9,406.7 226.6,418.4 135.4,374 	"/>
	<path class="st8" d="M97.9,409.3c-0.7-4.9-2.4-9.5-4.9-13.8c-0.5-0.8-1-1.7-1.2-2.6c-0.3-0.9-0.1-1.9,0.5-2.7
		c1.2-1.3,3.3-0.7,4.7,0.2c2.9,2.1,5.1,5.1,6.1,8.6c1,3.4,1.7,6.9,2,10.5"/>
	<path class="st8" d="M133.3,400.6h-4.5c-1.1-1.1-2.5-1.9-4-2.3c-1.1-0.2-2.3,0.3-3,1.2c2-3.3,4.2-7,4.6-8c0.8-2-1-3.4-3.9-3.4
		s-15.8,18.2-15.8,18.2s8-14.7,8.8-16.9c1.9-5.6-4.2-6-6.4-3.3c-2.8,3.4-13.9,20.2-13.9,20.2s-2.1,3.4-0.7,6.7s5.7,2,5.7,2
		c0.1,1.9,1.3,3.7,3,4.5c3.3,1.8,7.6-0.3,7.6-0.3l16.7,3.7l6-0.6c8.4-0.8,15.2-7.3,16.4-15.7l0,0L133.3,400.6z"/>
	<path class="st10" d="M122.1,399.3c0.2,0.1-2,3.6-4.9,7.8c-1.4,2.1-2.8,4-3.8,5.3c-0.5,0.8-1.1,1.5-1.7,2.1
		c0.4-0.8,0.8-1.6,1.4-2.3c0.9-1.4,2.2-3.3,3.6-5.4s2.8-4,3.7-5.3l1.2-1.6C121.8,399.6,121.9,399.5,122.1,399.3z"/>
	<path class="st10" d="M121.1,417.8c0.4-1,0.9-1.9,1.5-2.7c1-1.6,2.4-3.9,3.9-6.4c0.8-1.2,1.5-2.4,2.1-3.5c0.5-0.9,0.7-2.1,0.4-3.1
		c-0.3-1-0.8-1.9-1.4-2.6c0,0,0.3,0.1,0.6,0.5c0.5,0.6,0.9,1.3,1.1,2c0.4,1.1,0.3,2.4-0.3,3.4c-0.6,1.1-1.3,2.3-2.1,3.6
		c-1.6,2.5-3,4.7-4.1,6.3C122.4,416.2,121.8,417,121.1,417.8z"/>
	<path class="st10" d="M129.9,419.5c0.2-0.9,0.5-1.8,0.9-2.6l1.2-2.7c0.5-1.1,0.9-2.2,1.2-3.4c0.3-1.1,0.1-2.3-0.5-3.2
		c-0.3-0.4-0.7-0.7-1.2-0.9c-0.4-0.2-0.8-0.3-1.2-0.4c-0.6,0.1-1.2,0.3-1.8,0.6c-0.2,0.1-0.4,0.2-0.7,0.3c0,0,0.2-0.2,0.6-0.5
		c0.2-0.2,0.5-0.3,0.8-0.5c0.4-0.2,0.7-0.3,1.1-0.4c0.5,0,1,0.1,1.4,0.3c0.5,0.2,1,0.5,1.4,0.9c0.8,1.1,1,2.4,0.7,3.7
		c-0.3,1.2-0.8,2.3-1.3,3.4c-0.5,1-0.9,1.9-1.3,2.7C130.7,417.9,130.3,418.7,129.9,419.5z"/>
	<path class="st10" d="M132.9,403.8c0.2,0,0.5,0.1,0.7,0.2c0.6,0.3,1.2,0.6,1.7,1c3.8,2.8,4.9,7.9,2.7,12.1
		c-0.3,0.6-0.7,1.2-1.1,1.7c-0.3,0.4-0.5,0.5-0.6,0.5s0.7-0.8,1.4-2.3c1.9-4,0.8-8.8-2.6-11.6C134.4,404.7,133.7,404.2,132.9,403.8z
		"/>
	<path class="st10" d="M103.6,394.2c-1.1,2.1-2.4,4.1-3.8,6c-1.3,2-2.7,4-4.2,5.8c1.1-2.1,2.4-4.1,3.8-6
		C100.7,398,102.1,396,103.6,394.2z"/>
	<path class="st8" d="M211.5,383.5l-10.4-2.4l-10-9.4c-1.2-1.1-2.8-1.8-4.5-1.9l-18.2-1c-1.8-0.1-3.6,0.5-5,1.7l-13,11l56.7,27.6
		l7.8,0.7L211.5,383.5z"/>
	<path class="st10" d="M180.7,378.6c0,0.1-1.3-0.2-3.5-0.4s-5.2-0.5-8.2,0.9c-1.4,0.7-2.7,1.5-3.9,2.5c-1.1,0.9-2.2,1.7-3.1,2.3
		c-0.7,0.5-1.5,0.9-2.2,1.3c-0.3,0.2-0.6,0.3-0.9,0.3c0-0.1,1.2-0.6,2.9-1.9c0.9-0.6,1.9-1.5,3-2.4c1.2-1,2.6-1.8,4-2.5
		c1.5-0.6,3-1,4.6-1c1.3,0,2.6,0.1,3.9,0.3c1.1,0.2,2,0.4,2.5,0.5C180.1,378.4,180.4,378.5,180.7,378.6z"/>
	<path class="st10" d="M184.4,388.7c0,0.1-0.7-0.2-2-0.4c-1.6-0.1-3.2,0.1-4.7,0.6c-1.5,0.6-2.9,1.3-4.3,2.2c-0.6,0.4-1.1,0.7-1.8,1
		c0.5-0.5,1-0.9,1.6-1.3c1.3-1,2.8-1.8,4.3-2.4c1.6-0.6,3.2-0.8,4.9-0.5C183.2,388.1,183.9,388.3,184.4,388.7z"/>
	<path class="st10" d="M207.8,390.4c-0.1,0.1-1.6-2.1-3.5-4.7s-3.6-4.6-3.5-4.7c1.5,1.3,2.8,2.8,3.9,4.4
		C206,387,207,388.6,207.8,390.4z"/>
	<path class="st5" d="M179.2,369.8l23-21.5c0.9-0.8,0.9-2.2,0.1-3.1c-0.1-0.1-0.2-0.2-0.3-0.3l0,0c-0.8-0.6-2-0.6-2.8,0.1l-27,24.2"
		/>
	<g class="st6">
		<path d="M179.2,369.8l23-21.5c0.9-0.8,0.9-2.2,0.1-3.1c-0.1-0.1-0.2-0.2-0.3-0.3l0,0c-0.8-0.6-2-0.6-2.8,0.1l-27,24.2"/>
	</g>
</g>
<g id="freepik--character-2--inject-2">
	<path class="st11" d="M367.4,163.1c-0.4-0.1-14.3-3.8-13.5,10.3s14.8,10.4,14.8,9.9S367.4,163.1,367.4,163.1z"/>
	<path class="st12" d="M364.2,178.2c-0.1-0.1-0.2,0.2-0.6,0.4c-0.6,0.3-1.2,0.3-1.8,0.1c-1.5-0.4-2.9-2.7-3.1-5.3
		c-0.1-1.2,0-2.4,0.4-3.5c0.2-0.9,0.9-1.7,1.7-2c0.6-0.2,1.2,0.1,1.5,0.6c0.2,0.4,0.1,0.7,0.2,0.7s0.3-0.3,0.1-0.8
		c-0.1-0.3-0.3-0.6-0.6-0.9c-0.4-0.3-0.9-0.4-1.4-0.3c-1.2,0.3-2.1,1.2-2.4,2.3c-0.5,1.3-0.7,2.6-0.6,4c0.3,2.8,1.9,5.4,4,5.9
		c0.8,0.2,1.6,0,2.2-0.5C364.2,178.6,364.2,178.3,364.2,178.2z"/>
	<path class="st7" d="M402.7,112.7c7.2,0,14.5,0,23.4,4.7c5.7,3,9.2,7.6,12.1,13.3c2.4,4.6,3.5,9.7,3.3,14.9
		c-0.3,4.9-0.3,8.3-2.2,12.8"/>
	<path class="st11" d="M399.8,113.8c20.9-1.5,39.1,14.3,40.6,35.2c0,0.2,0,0.5,0,0.7c0.9,17.7,1.7,36.8,1.5,46.4
		c-0.4,20.7-21.1,23.7-21.1,23.7s0.5,6.1,1,13.7c1,15-10.4,28-25.4,29c-0.3,0-0.5,0-0.8,0l0,0c-15,0.6-27.6-11.1-28.2-26.1
		c0,0,0,0,0,0l-3.1-83.3C363.7,132.6,379.3,115.2,399.8,113.8L399.8,113.8z"/>
	<path class="st12" d="M420.9,219.9c0,0-12.7,0.7-26.5-8.2c0,0,6.2,15,26.9,13.3L420.9,219.9z"/>
	<path class="st7" d="M432.5,161.2c0,1.6-1.2,3-2.9,3c-1.5,0.1-2.9-1.1-3-2.6c0,0,0,0,0-0.1c0-1.6,1.3-2.9,2.9-3
		C431.1,158.4,432.4,159.6,432.5,161.2C432.5,161.2,432.5,161.2,432.5,161.2z"/>
	<path class="st7" d="M435.4,157.1c-0.4,0.4-2.6-1.3-5.8-1.3s-5.5,1.6-5.9,1.2c-0.2-0.2,0.2-0.9,1.2-1.6c1.4-0.9,3-1.4,4.7-1.4
		c1.7,0,3.3,0.5,4.6,1.5C435.2,156.2,435.6,156.9,435.4,157.1z"/>
	<path class="st7" d="M401.4,161.2c0,1.6-1.3,3-2.9,3c-1.6,0.1-2.9-1.1-3-2.6c0,0,0,0,0,0c0-1.6,1.3-2.9,2.9-3
		C400,158.5,401.3,159.6,401.4,161.2C401.4,161.2,401.4,161.2,401.4,161.2z"/>
	<path class="st7" d="M404.2,157.4c-0.4,0.4-2.6-1.3-5.8-1.3s-5.5,1.6-5.9,1.2c-0.2-0.2,0.2-0.9,1.2-1.6c1.4-0.9,3-1.4,4.7-1.4
		c1.6,0,3.3,0.5,4.6,1.5C404,156.5,404.4,157.2,404.2,157.4z"/>
	<path class="st7" d="M415.5,181c0-0.2,2-0.5,5.2-0.9c0.8-0.1,1.6-0.2,1.7-0.8c0.1-0.8-0.1-1.7-0.5-2.4c-0.7-2-1.5-4-2.4-6.2
		c-3.3-8.8-5.6-16.1-5.2-16.2s3.3,6.9,6.5,15.7c0.8,2.2,1.5,4.2,2.2,6.2c0.5,1,0.6,2.1,0.4,3.2c-0.2,0.6-0.7,1-1.4,1.2
		c-0.4,0.1-0.9,0.2-1.4,0.2C417.5,181.2,415.5,181.2,415.5,181z"/>
	<path class="st7" d="M406.1,183.1c0.5,0,0.5,3.4,3.4,5.9s6.6,2.1,6.6,2.6c0,0.2-0.8,0.7-2.4,0.7c-2,0-4-0.7-5.5-2
		c-1.5-1.2-2.4-3-2.6-4.9C405.5,184,405.9,183.1,406.1,183.1z"/>
	<path class="st7" d="M405.1,145c-0.3,0.9-3.5,0.4-7.2,0.9s-6.8,1.4-7.2,0.6c-0.2-0.4,0.3-1.2,1.5-2c3.3-2,7.4-2.5,11-1.1
		C404.5,143.9,405.2,144.6,405.1,145z"/>
	<path class="st7" d="M434.9,145.8c-0.6,0.7-2.7-0.1-5.4-0.1s-4.9,0.4-5.4-0.3c-0.2-0.4,0.1-1.1,1.1-1.8c2.7-1.7,6.1-1.5,8.7,0.3
		C434.9,144.7,435.2,145.4,434.9,145.8z"/>
	<path class="st7" d="M364.7,159.6c0,0,0.9,4.8,1.1,6.9c0.1,0.8,0,9.5,2.1,10c1.8,0.4,5.5-1.3,7.1-4.9s4.7-12.3,4.4-16.3
		c-0.5-5.4-0.7-10.9,0.4-16.2s3.6-10.5,7.9-13.8s10.4-4.5,15.2-2.1c3,1.5,5.2,4.2,8,6c2.5,1.8,5.5,2.5,8.5,2.2
		c3.1-0.4,5.6-2.5,6.6-5.4c0.9-3.2-0.7-6.6-3.3-8.7s-5.8-3.1-9-3.7c-8.9-1.9-18.2-1.3-26.8,1.9c-8.5,3.3-16,9.6-19.6,17.9
		C363.1,143.2,363.6,149.1,364.7,159.6"/>
	<path class="st7" d="M411.9,161.4c-0.1-1.1-0.3-2.3-0.5-3.4c-0.8-3-2.6-5.7-5.1-7.6c-1.7-1.3-3.7-2.2-5.8-2.6
		c-2.4-0.4-4.9-0.2-7.3,0.6c-1.3,0.4-2.4,1.1-3.5,1.9c-1.1,0.8-2.1,1.8-2.9,2.9c-3.6,4.8-3.6,11.4,0,16.3c0.8,1.1,1.8,2.1,2.9,2.9
		c1.1,0.8,2.2,1.4,3.5,1.9c2.3,0.8,4.8,1.1,7.3,0.6c2.1-0.4,4.1-1.3,5.8-2.6c2.5-1.9,4.3-4.6,5.1-7.6
		C411.6,163.6,411.8,162.5,411.9,161.4c0,0.1,0,0.2,0,0.2v0.7c0,0.4,0,0.7-0.1,1.1c0,0.5-0.1,1-0.3,1.5c-0.7,3.1-2.5,5.9-5.1,7.9
		c-3.8,3-8.9,3.7-13.5,2.1c-1.3-0.5-2.5-1.1-3.6-1.9c-1.2-0.8-2.2-1.8-3-3c-3.7-5-3.7-11.9,0-16.9c1.7-2.3,4-4,6.6-5
		c2.4-0.9,5-1.1,7.5-0.6c2.2,0.4,4.2,1.3,6,2.7c2.5,2,4.3,4.7,5.1,7.9c0.1,0.5,0.2,1,0.3,1.5c0.1,0.4,0.1,0.7,0.1,1.1v0.7
		C411.9,161.3,411.9,161.4,411.9,161.4z"/>
	<path class="st7" d="M448.3,161.4c-0.1-1.1-0.3-2.3-0.5-3.4c-0.8-3-2.6-5.7-5.1-7.6c-1.7-1.3-3.7-2.2-5.8-2.6
		c-2.4-0.4-4.9-0.2-7.2,0.6c-2.6,0.9-4.8,2.6-6.4,4.8c-3.6,4.8-3.6,11.4,0,16.3c0.8,1.1,1.8,2.1,2.9,2.9c1.1,0.8,2.2,1.4,3.5,1.9
		c2.3,0.8,4.8,1.1,7.2,0.6c2.1-0.4,4.1-1.3,5.8-2.6c2.5-1.9,4.3-4.6,5.1-7.6C448,163.6,448.2,162.5,448.3,161.4c0,0.1,0,0.2,0,0.2
		c0,0.2,0,0.4,0,0.7c0,0.4,0,0.7-0.1,1.1c-0.1,0.5-0.1,1-0.3,1.5c-0.7,3.1-2.5,5.9-5.1,7.9c-1.8,1.4-3.8,2.3-6,2.7
		c-2.5,0.5-5.1,0.3-7.5-0.6c-2.7-1-5-2.7-6.6-5c-3.7-5-3.7-11.9,0-16.9c0.8-1.2,1.8-2.2,3-3c1.1-0.8,2.3-1.5,3.6-1.9
		c2.4-0.9,5-1.1,7.5-0.6c2.2,0.4,4.2,1.3,6,2.7c2.6,2,4.4,4.7,5.1,7.9c0.1,0.5,0.2,1,0.3,1.5c0.1,0.4,0.1,0.7,0.1,1.1
		c0,0.3,0,0.5,0,0.7C448.3,161.2,448.3,161.3,448.3,161.4z"/>
	<path class="st7" d="M420.5,159.9c0,0.1-0.5-0.2-1.3-0.4c-1-0.3-2.1-0.5-3.2-0.4c-1.1,0.1-2.1,0.4-3.1,0.8
		c-0.8,0.4-1.2,0.7-1.2,0.6s0.3-0.5,1-0.9c2-1.2,4.5-1.4,6.6-0.4C420.1,159.4,420.5,159.8,420.5,159.9z"/>
	<path class="st7" d="M426.1,125c0.2-1.1-0.1-1.7,0.5-2.1s2,0.8,2.5,1.3c0.2,0.2,0.6-0.5,0.8-0.6c0.2-0.4,0.3-0.9,0.4-1.4
		c-0.1-0.8-1.3-1-1.8-1.5c-0.6-0.5-1.2-0.9-2-1.1c-0.6-0.3-1.3-0.3-1.9,0.1c-0.3,0.4-0.5,0.9-0.4,1.4c0,0.5,0.1,1,0.3,1.5
		c0.2,0.5,0.5,0.8,1,1.1"/>
	<path class="st2" d="M363.9,148.6c0,0,10.1,3.7,15.4,5.9l-0.3-5.2l-14.7-5.8C364.3,143.6,363.9,147.4,363.9,148.6z"/>
	<path class="st2" d="M364.9,140.6c2.4,0.8,4.8,1.7,7.2,2.8c2.4,0.9,4.7,2,7,3.2c-2.4-0.8-4.8-1.7-7.2-2.8
		C369.4,142.9,367.1,141.8,364.9,140.6z"/>
	<path class="st5" d="M367.9,249.7l-0.8-24.5c0,0,4.9,22.4,30.4,22.1c24.4-0.3,23.9-19.8,23.9-19.8l0.9,9.9v39.9l-15.9,65.1
		l-20.3,2.5l-22.4-89L367.9,249.7z"/>
	<path class="st7" d="M419.2,241.9c-0.1,0.2-0.2,0.4-0.3,0.5c-0.3,0.5-0.6,1-1,1.4c-1.3,1.7-2.8,3.2-4.5,4.4c-2.6,1.8-5.4,3.2-8.5,4
		c-3.7,1-7.6,1.3-11.5,0.8c-3.8-0.5-7.5-1.6-11-3.3c-2.8-1.3-5.5-3-8-4.8c-1.7-1.2-3.3-2.6-4.9-4c-0.5-0.5-1-0.9-1.2-1.2
		c-0.1-0.1-0.3-0.3-0.4-0.4c0.2,0.1,0.3,0.2,0.5,0.4l1.3,1.1c1.1,1,2.8,2.3,4.9,3.9c2.5,1.8,5.2,3.4,8,4.7c3.4,1.6,7.1,2.7,10.9,3.2
		c3.8,0.5,7.6,0.2,11.2-0.7c3-0.8,5.8-2.1,8.4-3.8c1.7-1.2,3.3-2.6,4.6-4.2C418.7,242.5,419.1,241.8,419.2,241.9z"/>
	<path class="st2" d="M401.5,451.1l-0.4-115.7L368.2,251l-1.1-25.4l-20,15.1c0,0-29.1,100.3-29.6,96.8s0,113.6,0,113.6L401.5,451.1z
		"/>
	<path class="st7" d="M400.7,450.8c-0.1,0-0.3-26.1-0.3-58.2s0.1-58.2,0.3-58.2s0.3,26.1,0.3,58.2S400.8,450.8,400.7,450.8z"/>
	<polygon class="st1" points="347.4,257.2 351.5,260.3 348.6,279 396.6,329.2 353,272 356.7,257.2 	"/>
	<path class="st2" d="M403.3,391.8l-73.6-21.6l-2.4-55.9l20.2-73.7c0,0-48.1,24-51.4,39.3s-11.2,52.4-12,79.3
		c-0.8,24-0.9,40,4.6,47.7c15.7,21.9,119.1,25.9,160.5,0"/>
	<path class="st7" d="M397.5,330.5c0,0-0.1-0.1-0.2-0.3s-0.4-0.5-0.7-0.8l-2.5-3.2c-2.2-2.8-5.3-6.9-9.1-11.8l-29.9-39.2l-2.2-3
		l-0.1-0.1v-0.1c1.3-5.1,2.5-10.1,3.7-14.8l0.2,0.3h-9.3h-0.2v-0.2c0-6,0-11.6,0-16.5v-0.1l0.1-0.1l14.5-11l4-3l1-0.8
		c0.1-0.1,0.2-0.2,0.4-0.2l-0.3,0.3l-1,0.8l-3.9,3.1l-14.4,11.1l0.1-0.2c0,4.9,0,10.5,0,16.5l-0.2-0.2h9.3h0.4l-0.1,0.3l-3.7,14.8
		l0-0.2l2.3,3l29.8,39.3l9,11.9c1,1.4,1.9,2.5,2.4,3.3c0.3,0.4,0.5,0.6,0.6,0.9L397.5,330.5z"/>
	<path class="st2" d="M430.3,236.3c-5.9-10.3-8.9-9.2-8.9-9.2l0.3,3.7v7.7l-2.8,33l-17.8,71.7l0.4,107.9h67.4l8.4-131.8l-0.8-56.8
		L430.3,236.3z"/>
	<path class="st2" d="M476.5,262.6c0,0,17.5,12.9,19,33.6c1.2,16.8,4,62.9,4.5,73c0.8,15.6-11.4,52.2-43,41.9
		c-19-6.2-89.2-30.1-89.2-30.1l4.7-29.8l83.3,5l1.7-69.5L476.5,262.6z"/>
	<path class="st11" d="M371.5,354.5c0,0-23.6-2.5-29-1.2c-5.2,1.3-12.7,7.7-12.7,7.7l0.1,9.3l37.9,10.6L371.5,354.5z"/>
	<path class="st7" d="M401.1,332.4c0-0.1,0.1-0.2,0.1-0.3c0.1-0.2,0.2-0.5,0.4-0.9c0.3-0.8,0.8-2,1.4-3.5l5.3-12.9l7.9-19.1
		c0.8-1.8,1.5-3.7,2.4-5.5s1.9-3.7,3-5.5c2.3-3.7,4.8-7.3,7.5-10.8c1.4-1.8,2.7-3.5,4.1-5.1v0.3l-2.9-7.5l-0.1-0.2l0.2-0.1l12.3-4.2
		l-0.1,0.3c-5.7-9.5-10.5-17.6-13.9-23.3c-1.7-2.8-3.1-5.1-4.6-6c-0.6-0.3-1.2-0.6-1.9-0.8c-0.2,0-0.5-0.1-0.7-0.2
		c0.2,0,0.5,0,0.7,0.1c0.7,0.1,1.3,0.4,1.9,0.7c0.9,0.6,1.7,1.4,2.4,2.3c0.9,1.2,1.7,2.4,2.5,3.7l14.1,23.2l0.1,0.2l-0.3,0.1
		l-12.3,4.2l0.1-0.3l3,7.5l0.1,0.1l-0.1,0.1c-1.4,1.6-2.8,3.3-4.1,5.1c-2.7,3.4-5.2,7-7.5,10.7c-1.1,1.8-2.1,3.6-3,5.4
		s-1.7,3.6-2.4,5.5c-3,7.2-5.7,13.6-8,19.1s-4.1,9.8-5.4,12.9c-0.6,1.5-1.1,2.7-1.5,3.5c-0.2,0.4-0.3,0.7-0.4,0.9
		C401.2,332.2,401.2,332.3,401.1,332.4z"/>
	<path class="st7" d="M486.1,405.2c-0.1,0.1-0.2,0.2-0.3,0.3l-0.9,0.9c-1.2,1.1-2.5,2.1-3.8,2.9c-2.2,1.3-4.5,2.3-7,2.9
		c-3.3,0.8-6.7,1-10,0.6c-2-0.2-3.9-0.6-5.8-1.2c-2-0.6-3.9-1.4-6-2.1c-4.1-1.5-8.5-3-13.2-4.7c-9.3-3.3-19.5-6.7-30.4-10.3
		c-21.6-7.1-41.3-13.1-55.6-17.3l-16.9-5l-4.6-1.4l-1.2-0.4c-0.1,0-0.3-0.1-0.4-0.1l0.4,0.1l1.2,0.3l4.6,1.3c4,1.1,9.8,2.8,17,4.9
		c14.3,4.2,34,10.1,55.6,17.2c10.8,3.5,21.1,7,30.4,10.3c4.6,1.6,9,3.2,13.2,4.7c2.1,0.7,4,1.5,6,2.1c1.8,0.6,3.7,1,5.7,1.2
		c3.3,0.4,6.7,0.2,9.9-0.5c2.5-0.6,4.8-1.6,7-2.8c1.4-0.8,2.7-1.8,3.9-2.8l0.9-0.8C485.9,405.4,486,405.3,486.1,405.2z"/>
	<path class="st7" d="M329.9,370.5c0,0.1-1.3-0.2-3.4-0.1c-1.2,0.1-2.5,0.3-3.6,0.6c-1.4,0.4-2.8,1.1-4.1,1.9
		c-2.3,1.5-4.3,3.5-5.7,5.9c-1.1,1.8-1.6,3-1.7,3c0.1-0.3,0.1-0.6,0.3-0.9c0.3-0.8,0.7-1.6,1.1-2.3c1.4-2.5,3.4-4.6,5.7-6.1
		c1.3-0.8,2.7-1.5,4.2-1.9c1.2-0.3,2.5-0.5,3.8-0.5c0.9,0,1.7,0.1,2.5,0.2C329.3,370.3,329.6,370.4,329.9,370.5z"/>
	<path class="st7" d="M306.7,363.2c0,0,0-0.1,0.1-0.3c0.1-0.2,0.3-0.5,0.5-0.6c0.7-0.7,1.6-1.2,2.6-1.3c1.4-0.2,2.9-0.2,4.3,0
		c1.8,0.2,3.5,0.6,5.1,1.2c3,1.1,5.8,2.8,8.1,5c0.7,0.7,1.3,1.4,1.9,2.2c0.2,0.3,0.4,0.6,0.5,0.9c-0.1,0.1-0.9-1.2-2.7-2.9
		c-2.3-2.1-5.1-3.7-8.1-4.8c-1.6-0.6-3.3-1-5-1.3c-1.4-0.2-2.8-0.3-4.2-0.1c-0.9,0.1-1.8,0.5-2.5,1.1
		C306.9,362.9,306.7,363.2,306.7,363.2z"/>
	<path class="st7" d="M334.1,299c-0.2-0.5-0.3-1-0.3-1.5c-0.1-0.5-0.4-1-0.6-1.7s-0.6-1.4-1.1-2.1c-1.1-1.8-2.3-3.5-3.8-5
		c-1.8-1.9-3.7-3.6-5.8-5.1c-3.8-2.7-8-4.7-12.6-5.8c-1.4-0.3-2.8-0.5-4.2-0.5c-0.5,0-1,0-1.5-0.1c0.5-0.1,1-0.1,1.6-0.1
		c1.4,0,2.8,0.1,4.2,0.4c4.6,1,9,2.9,12.8,5.7c2.1,1.5,4,3.2,5.8,5.1c1.4,1.6,2.7,3.3,3.7,5.1c0.5,0.8,0.7,1.6,1,2.2
		s0.4,1.3,0.5,1.8C334.1,297.9,334.1,298.5,334.1,299z"/>
	<path class="st7" d="M473.9,384.5c0-0.1,0-0.2,0-0.4v-1c0-0.9-0.1-2.3-0.2-4c-0.4-4.9-1.4-9.8-3-14.4c-0.5-1.5-1.2-3-2-4.4
		c-0.9-1.5-2.3-2.6-3.9-3.3c-3.4-1.4-7.4-1.2-11.5-1.5l-26.8-1.1c-22.2-1-41.9-1.8-54.3-2.5l0.2-0.1c-0.8,4.6-1.4,8.2-1.8,10.7
		c-0.2,1.2-0.4,2.1-0.5,2.8c0,0.3-0.1,0.5-0.1,0.7l-0.1,0.2c0-0.1,0-0.2,0-0.2l0.1-0.7c0.1-0.7,0.2-1.6,0.4-2.8
		c0.4-2.5,0.9-6.1,1.6-10.7v-0.1h0.1l54.3,2.3l26.8,1.2c2.1,0.1,4.1,0.1,6,0.3c1.9,0.1,3.8,0.5,5.6,1.3c1.7,0.7,3.1,1.9,4.1,3.4
		c0.8,1.4,1.5,2.9,2,4.5c1.6,4.7,2.6,9.6,2.8,14.5c0.1,1.7,0.1,3.1,0.1,4c0,0.4,0,0.8,0,1C473.9,384.3,473.9,384.5,473.9,384.5z"/>
	<path class="st7" d="M458,319.2c0.1,0,0.3,8.1,0.3,18s-0.1,18-0.3,18s-0.3-8.1-0.3-18S457.9,319.2,458,319.2z"/>
	<path class="st7" d="M296.6,278.2c0,0-0.1,0.2-0.2,0.7s-0.4,1.1-0.6,2c-0.5,1.7-1.1,4.3-1.8,7.7c-1.4,6.7-3.1,16.6-5,28.9
		c-1,6.2-2,13-3,20.3c-0.5,3.7-0.8,7.5-1.1,11.5s-0.5,8-0.6,12.2c-0.3,8.4-0.5,17.3-0.2,26.5c0.1,2.3,0.2,4.6,0.4,7
		c0.1,1.2,0.3,2.3,0.4,3.5c0.2,1.2,0.5,2.3,0.9,3.5c0.7,2.3,1.8,4.4,3.3,6.3c1.5,1.9,3.4,3.4,5.7,4.4l0,0c4.8,2.3,9.7,4.2,14.8,5.7
		c5.2,1.5,10.5,2.8,15.9,3.9c11.8,2.4,23.8,3.9,35.8,4.4c5.7,0.1,11.4,0,17.1-0.4c5.6-0.4,11-1,16.2-1.8c9.9-1.4,19.7-3.7,29.2-6.8
		c8.1-2.7,16-6.1,23.6-10.1v0.3L415,396.4l-8.7-3.1l-2.2-0.8c-0.5-0.2-0.8-0.3-0.8-0.3l0.8,0.2l2.3,0.8l8.7,3l32.4,11.3l0.4,0.1
		l-0.4,0.2c-7.6,4.1-15.5,7.5-23.6,10.2c-9.5,3.1-19.3,5.4-29.2,6.9c-5.3,0.8-10.7,1.4-16.3,1.8c-5.7,0.4-11.4,0.6-17.1,0.5
		c-12.1-0.5-24.1-1.9-35.9-4.4c-5.4-1.1-10.8-2.4-16-3.9c-5.1-1.4-10.1-3.4-14.9-5.7l0,0c-2.3-1-4.4-2.5-5.9-4.5
		c-1.5-1.9-2.7-4.1-3.4-6.5c-0.4-1.2-0.7-2.3-0.9-3.5c-0.1-1.2-0.3-2.4-0.4-3.6c-0.2-2.4-0.3-4.7-0.3-7c-0.2-9.3,0-18.2,0.3-26.6
		c0.2-4.2,0.4-8.3,0.6-12.2c0.3-4,0.6-7.8,1.1-11.5c1-7.4,2.1-14.1,3-20.3c2-12.3,3.7-22.2,5.2-28.9c0.7-3.4,1.4-6,1.9-7.7
		c0.2-0.9,0.5-1.5,0.6-1.9S296.6,278.2,296.6,278.2z"/>
	<path class="st1" d="M329.7,363.6c12.3-13.6,11.8-37.9,4.7-55c-0.6,18.6-2.9,35.1-4.5,53.2"/>
	<path class="st7" d="M334.5,312c0,0.2,0,0.4,0,0.6c0,0.5-0.1,1-0.1,1.7c-0.1,1.5-0.3,3.7-0.5,6.2c-0.4,5.3-1,12.6-1.7,20.6
		l-1.6,20.6c-0.2,2.6-0.4,4.7-0.5,6.2l-0.1,1.7c0,0.2,0,0.4-0.1,0.6c0-0.2,0-0.4,0-0.6c0-0.5,0-1,0-1.7c0-1.5,0.2-3.6,0.3-6.3
		c0.3-5.3,0.8-12.6,1.5-20.6s1.3-15.3,1.9-20.6c0.3-2.6,0.5-4.7,0.6-6.2c0.1-0.7,0.2-1.2,0.2-1.7C334.4,312.4,334.4,312.2,334.5,312
		z"/>
	<path class="st7" d="M364.8,287.4c0.3,3.5,0.4,7,0.3,10.6c0.1,3.5,0,7.1-0.3,10.6c-0.1,0-0.3-4.7-0.3-10.6S364.7,287.4,364.8,287.4
		z"/>
	<path class="st1" d="M356.8,322.5c0.2,2,1,4,2.3,5.6c1.2,1.5,3.5,3,5.4,2.9c2.9,0.1,5.7-1.2,7.3-3.6c2.3-3.7,2.9-11.3,1-15.8
		c-1.3-3.1-4.1-6-7.5-6.1c-4.4-0.1-7.2,3.1-8.1,6.3"/>
	<path class="st7" d="M357.2,311.7c0.1-0.8,0.4-1.5,0.8-2.2c0.4-0.8,1-1.5,1.6-2.2c0.9-0.8,2-1.5,3.1-1.8c0.7-0.2,1.4-0.3,2.1-0.3
		c0.8,0,1.6,0.1,2.3,0.3c1.6,0.6,3,1.6,4.1,2.9c1.2,1.5,2,3.2,2.4,5c0.4,1.9,0.6,3.9,0.4,5.9c-0.2,3.1-0.8,6.2-2.5,8.6
		c-0.9,1.1-2,2-3.3,2.5c-1.2,0.5-2.5,0.7-3.8,0.6l0,0c-0.9,0-1.9-0.2-2.7-0.7c-0.7-0.4-1.4-0.9-2-1.4c-0.9-0.9-1.7-2.1-2.2-3.3
		c-0.3-0.8-0.6-1.6-0.7-2.4c0-0.2-0.1-0.4-0.1-0.7c0-0.1,0-0.2,0-0.2c0.2,1.1,0.5,2.2,1,3.2c0.5,1.2,1.3,2.2,2.2,3.1
		c0.6,0.5,1.3,1,2,1.3c0.8,0.4,1.6,0.6,2.5,0.6l0,0c2.6,0.1,5-1,6.6-3c1.6-2.2,2.2-5.3,2.4-8.4c0.2-4-0.5-7.9-2.7-10.6
		c-1-1.3-2.4-2.2-3.9-2.8c-0.7-0.2-1.4-0.3-2.1-0.3c-0.7,0-1.3,0.1-2,0.3c-1.1,0.3-2.1,0.9-3,1.7c-0.7,0.6-1.2,1.3-1.7,2
		C357.8,310.4,357.5,311,357.2,311.7z"/>
	<path class="st1" d="M354.5,322.7c0.2,2,1,4,2.3,5.6c1.1,1.5,3.5,3,5.4,2.9c2.9,0.1,5.7-1.2,7.3-3.6c2.3-3.7,2.9-11.3,1-15.8
		c-1.3-3.1-4.1-6-7.5-6.1c-3.8,0-7.2,2.6-8.1,6.3"/>
	<path class="st7" d="M354.8,311.9c0.1-0.8,0.4-1.5,0.8-2.1c0.4-0.8,1-1.5,1.6-2.2c1.4-1.4,3.3-2.1,5.2-2.2c0.8,0,1.6,0.1,2.3,0.3
		c1.6,0.6,3,1.6,4.1,2.9c1.2,1.4,2,3.2,2.4,5c0.4,1.9,0.6,3.9,0.5,5.9c-0.2,3.1-0.8,6.2-2.5,8.6c-0.9,1.1-2,2-3.3,2.5
		c-1.2,0.5-2.5,0.7-3.8,0.6l0,0c-0.9,0-1.9-0.2-2.7-0.7c-0.7-0.4-1.4-0.8-2-1.4c-0.9-0.9-1.7-2.1-2.2-3.3c-0.3-0.8-0.6-1.6-0.7-2.4
		c0-0.3-0.1-0.5-0.1-0.7c0-0.1,0-0.2,0-0.2c0.2,1.1,0.5,2.2,1,3.2c0.5,1.2,1.3,2.2,2.2,3.1c0.6,0.5,1.3,1,2,1.3
		c0.8,0.4,1.6,0.6,2.5,0.6l0,0c2.6,0.1,5-1,6.6-3c1.6-2.2,2.2-5.3,2.4-8.4c0.2-4-0.5-7.9-2.7-10.6c-1-1.3-2.3-2.3-3.9-2.8
		c-0.7-0.2-1.4-0.3-2.1-0.3c-1.9,0-3.6,0.7-5,2c-0.7,0.6-1.2,1.3-1.7,2C355.5,310.6,355.1,311.2,354.8,311.9z"/>
	<path class="st1" d="M358.7,310.8c-2.3-0.3-4.5,1-5.4,3.1c-0.8,2.1-0.8,4.4,0,6.5c0.3,1.1,0.9,2.1,1.7,2.9c0.8,0.9,1.8,1.4,3,1.5
		c1.7-0.1,3.2-1,4.1-2.4c1.6-2.2,2.1-5,1.4-7.7c-0.5-1.7-1.7-3.5-3.5-3.6"/>
	<path class="st7" d="M360,311.1c0,0,0.1,0,0.4,0c0.4,0,0.8,0.2,1.1,0.4c1.2,0.8,2,2,2.3,3.4c0.5,2.1,0.3,4.2-0.6,6.1
		c-0.5,1.1-1.3,2.2-2.2,2.9c-1.1,0.9-2.5,1.3-3.9,0.9c-1.3-0.4-2.4-1.3-3.1-2.5c-0.6-1.1-1-2.2-1.3-3.5c-0.5-2.1-0.1-4.2,1-6
		c0.8-1.2,2.1-2,3.5-2.2c0.4-0.1,0.8-0.1,1.1,0c0.2,0,0.4,0.1,0.4,0.1c-0.5,0-1,0-1.5,0.1c-1.3,0.3-2.5,1.1-3.2,2.2
		c-1,1.7-1.3,3.8-0.8,5.7c0.2,1.2,0.7,2.3,1.2,3.3c0.6,1.1,1.6,1.9,2.8,2.3c1.2,0.3,2.5,0,3.4-0.8c0.9-0.7,1.6-1.7,2.1-2.7
		c0.9-1.8,1.1-3.9,0.7-5.8c-0.2-1.3-0.9-2.5-2-3.4C361,311.5,360.5,311.3,360,311.1z"/>
	<path class="st7" d="M363.7,327.2c-0.1,0-0.2-0.3-0.5-0.7c-0.5-0.5-1.1-0.9-1.7-1.1c-0.7-0.2-1.4-0.3-2.1-0.3
		c-0.5,0-0.9-0.1-0.9-0.2s0.3-0.1,0.9-0.2c0.8-0.1,1.5,0,2.3,0.2c0.8,0.2,1.4,0.7,1.9,1.4C363.8,326.8,363.8,327.2,363.7,327.2z"/>
	<path class="st7" d="M364.5,309.5c0,0-0.2,0.4-0.6,0.7c-0.6,0.5-1.3,0.8-2.1,0.9c-0.8,0.1-1.6,0.1-2.3-0.1
		c-0.6-0.2-0.9-0.4-0.8-0.5c1,0.2,2,0.2,3,0.1C362.7,310.3,363.6,309.9,364.5,309.5z"/>
	<path class="st7" d="M433.2,237.8c0,0,0.1,0,0.3,0.1c0.3,0.1,0.6,0.3,0.9,0.5c1.1,0.6,2.1,1.3,3,2.1c3.1,2.7,5.3,6.2,6.4,10.2
		c1.2,3.9,2,7.8,2.5,11.9c0.2,1.5,0.3,2.8,0.3,3.6c0.1,0.4,0.1,0.9,0,1.4c-0.1-0.4-0.2-0.9-0.2-1.3c-0.1-1-0.3-2.2-0.5-3.6
		c-0.6-4-1.4-7.9-2.6-11.8c-1.1-3.9-3.2-7.3-6.2-10.1C436,239.7,434.6,238.7,433.2,237.8z"/>
	<path class="st7" d="M420.8,347.9c2.9-0.1,5.2-3,8.1-2.8c2.2,0.2,3.8,2.1,3.7,4.3s-2.1,3.8-4.3,3.7l0,0c-3-0.4-4.8-3.9-7.8-4.6"/>
	<path class="st7" d="M445.4,350.4c-0.9,0-1.8-0.1-2.7-0.2l0.2-1c3.6,0.6,6.6,0,8.9-1.8c3-2.2,4.9-6.1,5.7-11.6v-0.2
		c0.3-2.2,0.8-45,0.8-53.1c0-12.7-11.1-14.4-11.6-14.5s-10.6-1.8-15.9,12.1c-5.6,14.5-14.6,42.5-15.2,45.8c-0.1,0.4-0.2,0.9-0.3,1.5
		c-0.9,4.2-2.9,12.9,2.9,18c6.5,5.6,11.6,3.4,11.8,3.4l0.4,0.9c-0.2,0.1-5.9,2.5-12.9-3.5c-6.3-5.4-4.2-14.5-3.3-18.9
		c0.1-0.6,0.2-1,0.3-1.4c0.6-3.3,9.6-31.4,15.3-45.9s16.9-12.7,17-12.7s12.4,1.9,12.4,15.5c0,6.7-0.4,50.9-0.8,53.2v0.2
		c-0.8,5.8-2.9,9.9-6.1,12.2C450.3,349.7,447.8,350.4,445.4,350.4z"/>
	<path class="st7" d="M458.7,290.7c-0.4-1.8-1.1-3.4-2.1-5c-1.1-1.6-2.4-3.1-4-4.3c-1.9-1.4-4.1-2.5-6.4-3
		c-4.3-0.9-8.8-0.4-12.6,1.6c-1.6,0.9-3.1,1.9-4.4,3.1c0.1-0.1,0.1-0.2,0.2-0.3c0.2-0.3,0.5-0.6,0.8-0.8c1-0.9,2.1-1.7,3.2-2.4
		c4-2.2,8.6-2.8,13-1.8c2.4,0.6,4.7,1.6,6.6,3.2c1.6,1.2,2.9,2.7,4,4.5c0.7,1.2,1.2,2.4,1.5,3.7c0.1,0.4,0.2,0.7,0.2,1.1
		C458.7,290.6,458.8,290.7,458.7,290.7z"/>
	<path class="st7" d="M484.2,370.7c-0.4-1.4-0.8-2.9-1.4-4.3c-1.4-3.3-3.8-6.1-6.8-8.1c-1.7-1-3.6-1.7-5.5-2
		c-1.6-0.2-3.2-0.4-4.9-0.5l-3.3-0.2c-0.4,0-0.8-0.1-1.2-0.2c0.4,0,0.8,0,1.2,0l3.3,0.1c1.6,0,3.3,0.2,4.9,0.4c2,0.3,4,0.9,5.7,2
		c3.1,2,5.5,5,6.8,8.4c0.4,1,0.7,2.1,0.9,3.2C484.2,369.9,484.2,370.3,484.2,370.7z"/>
	<path class="st11" d="M433.8,354c0,0,9.8-14.9,12.4-16.8s24-11.6,26.5-10.1s1,4.9,1,4.9s9.1-3.2,10-1.9c1.1,1.5,1.1,3.6,0,5.1
		c0,0,5-0.8,5,0.8c0,2.1-1.1,4.1-2.9,5.2c-2.3,1.7-17.4,11.8-18.6,14.6l-4.9-0.3L433.8,354z"/>
	<path class="st12" d="M462,349.7c0.1-0.3,0.3-0.6,0.5-0.9c0.5-0.8,1-1.6,1.6-2.3c2-2.4,4.4-4.4,7.1-6c2.7-1.6,5.5-2.9,8.4-4
		c1.1-0.4,2-0.8,2.6-1c0.3-0.1,0.7-0.2,1-0.3c-0.3,0.2-0.6,0.4-0.9,0.5l-2.6,1.1c-2.9,1.2-5.6,2.5-8.3,4.1c-2.7,1.6-5.1,3.5-7.1,5.8
		C462.8,348.5,462.1,349.8,462,349.7z"/>
	<path class="st12" d="M449.6,349.5c0.1-0.4,0.3-0.7,0.5-1.1c0.3-0.7,0.8-1.7,1.5-2.9c0.8-1.4,1.7-2.7,2.7-4c0.6-0.8,1.3-1.4,2.1-2
		c0.8-0.6,1.7-1.1,2.6-1.6c3.1-1.8,6.3-3.4,9.6-4.8c1-0.4,2-0.7,3.1-1c0.4-0.1,0.8-0.2,1.2-0.2c0,0.1-1.6,0.5-4.1,1.6
		c-3.3,1.4-6.4,3.1-9.5,4.9c-0.9,0.5-1.8,1.1-2.6,1.6c-0.7,0.6-1.4,1.2-2,1.9c-1,1.2-1.9,2.5-2.8,3.9l-1.7,2.8
		C450,348.9,449.8,349.2,449.6,349.5z"/>
</g>
<g id="freepik--Desk--inject-2">
	<path class="st7" d="M712,451.4c0,0.1-150.9,0.3-336.9,0.3s-337-0.1-337-0.3s150.8-0.3,337-0.3S712,451.2,712,451.4z"/>
</g>
</svg>
